G04 #@! TF.GenerationSoftware,KiCad,Pcbnew,10.0.0*
G04 #@! TF.CreationDate,2026-05-15T00:22:42+03:00*
G04 #@! TF.ProjectId,Final_Version,46696e61-6c5f-4566-9572-73696f6e2e6b,rev?*
G04 #@! TF.SameCoordinates,Original*
G04 #@! TF.FileFunction,Paste,Top*
G04 #@! TF.FilePolarity,Positive*
%FSLAX46Y46*%
G04 Gerber Fmt 4.6, Leading zero omitted, Abs format (unit mm)*
G04 Created by KiCad (PCBNEW 10.0.0) date 2026-05-15 00:22:42*
%MOMM*%
%LPD*%
G01*
G04 APERTURE LIST*
G04 Aperture macros list*
%AMRoundRect*
0 Rectangle with rounded corners*
0 $1 Rounding radius*
0 $2 $3 $4 $5 $6 $7 $8 $9 X,Y pos of 4 corners*
0 Add a 4 corners polygon primitive as box body*
4,1,4,$2,$3,$4,$5,$6,$7,$8,$9,$2,$3,0*
0 Add four circle primitives for the rounded corners*
1,1,$1+$1,$2,$3*
1,1,$1+$1,$4,$5*
1,1,$1+$1,$6,$7*
1,1,$1+$1,$8,$9*
0 Add four rect primitives between the rounded corners*
20,1,$1+$1,$2,$3,$4,$5,0*
20,1,$1+$1,$4,$5,$6,$7,0*
20,1,$1+$1,$6,$7,$8,$9,0*
20,1,$1+$1,$8,$9,$2,$3,0*%
G04 Aperture macros list end*
%ADD10C,0.010000*%
%ADD11RoundRect,0.250000X-0.250000X-0.475000X0.250000X-0.475000X0.250000X0.475000X-0.250000X0.475000X0*%
%ADD12RoundRect,0.250000X-0.650000X1.000000X-0.650000X-1.000000X0.650000X-1.000000X0.650000X1.000000X0*%
%ADD13RoundRect,0.250000X1.000000X0.650000X-1.000000X0.650000X-1.000000X-0.650000X1.000000X-0.650000X0*%
%ADD14RoundRect,0.250000X0.475000X-0.250000X0.475000X0.250000X-0.475000X0.250000X-0.475000X-0.250000X0*%
%ADD15RoundRect,0.070000X-0.355000X-0.070000X0.355000X-0.070000X0.355000X0.070000X-0.355000X0.070000X0*%
%ADD16RoundRect,0.070000X-0.070000X-0.355000X0.070000X-0.355000X0.070000X0.355000X-0.070000X0.355000X0*%
%ADD17RoundRect,0.250000X-0.525000X-0.400000X0.525000X-0.400000X0.525000X0.400000X-0.525000X0.400000X0*%
%ADD18RoundRect,0.250000X0.450000X-0.262500X0.450000X0.262500X-0.450000X0.262500X-0.450000X-0.262500X0*%
%ADD19RoundRect,0.035000X-0.765000X-0.105000X0.765000X-0.105000X0.765000X0.105000X-0.765000X0.105000X0*%
%ADD20RoundRect,0.035000X-0.105000X-0.765000X0.105000X-0.765000X0.105000X0.765000X-0.105000X0.765000X0*%
%ADD21RoundRect,0.250000X0.350000X-0.450000X0.350000X0.450000X-0.350000X0.450000X-0.350000X-0.450000X0*%
%ADD22RoundRect,0.250000X-0.475000X0.250000X-0.475000X-0.250000X0.475000X-0.250000X0.475000X0.250000X0*%
%ADD23RoundRect,0.250000X-0.450000X0.262500X-0.450000X-0.262500X0.450000X-0.262500X0.450000X0.262500X0*%
%ADD24RoundRect,0.243750X0.456250X-0.243750X0.456250X0.243750X-0.456250X0.243750X-0.456250X-0.243750X0*%
%ADD25RoundRect,0.218750X-0.218750X-0.381250X0.218750X-0.381250X0.218750X0.381250X-0.218750X0.381250X0*%
%ADD26RoundRect,0.250000X0.250000X0.475000X-0.250000X0.475000X-0.250000X-0.475000X0.250000X-0.475000X0*%
%ADD27RoundRect,0.250000X-0.262500X-0.450000X0.262500X-0.450000X0.262500X0.450000X-0.262500X0.450000X0*%
%ADD28RoundRect,0.243750X-0.456250X0.243750X-0.456250X-0.243750X0.456250X-0.243750X0.456250X0.243750X0*%
%ADD29RoundRect,0.150000X0.150000X-0.835000X0.150000X0.835000X-0.150000X0.835000X-0.150000X-0.835000X0*%
%ADD30RoundRect,0.250000X0.450000X0.350000X-0.450000X0.350000X-0.450000X-0.350000X0.450000X-0.350000X0*%
%ADD31RoundRect,0.375000X-0.625000X-0.375000X0.625000X-0.375000X0.625000X0.375000X-0.625000X0.375000X0*%
%ADD32RoundRect,0.500000X-0.500000X-1.400000X0.500000X-1.400000X0.500000X1.400000X-0.500000X1.400000X0*%
%ADD33RoundRect,0.250000X0.650000X-1.000000X0.650000X1.000000X-0.650000X1.000000X-0.650000X-1.000000X0*%
%ADD34RoundRect,0.375000X-0.375000X0.625000X-0.375000X-0.625000X0.375000X-0.625000X0.375000X0.625000X0*%
%ADD35RoundRect,0.500000X-1.400000X0.500000X-1.400000X-0.500000X1.400000X-0.500000X1.400000X0.500000X0*%
%ADD36RoundRect,0.218750X-0.381250X0.218750X-0.381250X-0.218750X0.381250X-0.218750X0.381250X0.218750X0*%
%ADD37RoundRect,0.250000X0.262500X0.450000X-0.262500X0.450000X-0.262500X-0.450000X0.262500X-0.450000X0*%
%ADD38RoundRect,0.140000X-0.170000X0.140000X-0.170000X-0.140000X0.170000X-0.140000X0.170000X0.140000X0*%
%ADD39RoundRect,0.147500X-0.147500X-0.172500X0.147500X-0.172500X0.147500X0.172500X-0.147500X0.172500X0*%
G04 APERTURE END LIST*
D10*
G04 #@! TO.C,U1*
X143325000Y-120675390D02*
X140474610Y-120675390D01*
X140474610Y-117825000D01*
X143325000Y-117825000D01*
X143325000Y-120675390D01*
G36*
X143325000Y-120675390D02*
G01*
X140474610Y-120675390D01*
X140474610Y-117825000D01*
X143325000Y-117825000D01*
X143325000Y-120675390D01*
G37*
G04 #@! TD*
D11*
G04 #@! TO.C,C55*
X132450000Y-107000000D03*
X134350000Y-107000000D03*
G04 #@! TD*
G04 #@! TO.C,C45*
X132400000Y-123500000D03*
X134300000Y-123500000D03*
G04 #@! TD*
D12*
G04 #@! TO.C,D22*
X62040000Y-100172500D03*
X62040000Y-104172500D03*
G04 #@! TD*
D13*
G04 #@! TO.C,D24*
X53540000Y-93000000D03*
X49540000Y-93000000D03*
G04 #@! TD*
D11*
G04 #@! TO.C,C29*
X99050000Y-99000000D03*
X100950000Y-99000000D03*
G04 #@! TD*
D13*
G04 #@! TO.C,D28*
X61040000Y-93000000D03*
X57040000Y-93000000D03*
G04 #@! TD*
D14*
G04 #@! TO.C,C4*
X119600000Y-133650000D03*
X119600000Y-131750000D03*
G04 #@! TD*
D11*
G04 #@! TO.C,C43*
X141400000Y-127000000D03*
X143300000Y-127000000D03*
G04 #@! TD*
D15*
G04 #@! TO.C,U1*
X138900000Y-117000000D03*
X138900000Y-117500000D03*
X138900000Y-118000000D03*
X138900000Y-118500000D03*
X138900000Y-119000000D03*
X138900000Y-119500000D03*
X138900000Y-120000000D03*
X138900000Y-120500000D03*
X138900000Y-121000000D03*
X138900000Y-121500000D03*
D16*
X139650000Y-122250000D03*
X140150000Y-122250000D03*
X140650000Y-122250000D03*
X141150000Y-122250000D03*
X141650000Y-122250000D03*
X142150000Y-122250000D03*
X142650000Y-122250000D03*
X143150000Y-122250000D03*
X143650000Y-122250000D03*
X144150000Y-122250000D03*
D15*
X144900000Y-121500000D03*
X144900000Y-121000000D03*
X144900000Y-120500000D03*
X144900000Y-120000000D03*
X144900000Y-119500000D03*
X144900000Y-119000000D03*
X144900000Y-118500000D03*
X144900000Y-118000000D03*
X144900000Y-117500000D03*
X144900000Y-117000000D03*
D16*
X144150000Y-116250000D03*
X143650000Y-116250000D03*
X143150000Y-116250000D03*
X142650000Y-116250000D03*
X142150000Y-116250000D03*
X141650000Y-116250000D03*
X141150000Y-116250000D03*
X140650000Y-116250000D03*
X140150000Y-116250000D03*
X139650000Y-116250000D03*
G04 #@! TD*
D17*
G04 #@! TO.C,SW2*
X90720000Y-132250000D03*
X98680000Y-132250000D03*
X90720000Y-136750000D03*
X98680000Y-136750000D03*
G04 #@! TD*
D18*
G04 #@! TO.C,R28*
X113080000Y-128962500D03*
X113080000Y-127137500D03*
G04 #@! TD*
G04 #@! TO.C,R29*
X117580000Y-128462500D03*
X117580000Y-126637500D03*
G04 #@! TD*
D11*
G04 #@! TO.C,C39*
X157950000Y-117000000D03*
X159850000Y-117000000D03*
G04 #@! TD*
G04 #@! TO.C,C54*
X132400000Y-128000000D03*
X134300000Y-128000000D03*
G04 #@! TD*
G04 #@! TO.C,C40*
X132450000Y-132000000D03*
X134350000Y-132000000D03*
G04 #@! TD*
D19*
G04 #@! TO.C,U11*
X89000000Y-109500000D03*
X89000000Y-110000000D03*
X89000000Y-110500000D03*
X89000000Y-111000000D03*
X89000000Y-111500000D03*
X89000000Y-112000000D03*
X89000000Y-112500000D03*
X89000000Y-113000000D03*
X89000000Y-113500000D03*
X89000000Y-114000000D03*
X89000000Y-114500000D03*
X89000000Y-115000000D03*
X89000000Y-115500000D03*
X89000000Y-116000000D03*
X89000000Y-116500000D03*
X89000000Y-117000000D03*
X89000000Y-117500000D03*
X89000000Y-118000000D03*
X89000000Y-118500000D03*
X89000000Y-119000000D03*
X89000000Y-119500000D03*
X89000000Y-120000000D03*
X89000000Y-120500000D03*
X89000000Y-121000000D03*
X89000000Y-121500000D03*
D20*
X90680000Y-123180000D03*
X91180000Y-123180000D03*
X91680000Y-123180000D03*
X92180000Y-123180000D03*
X92680000Y-123180000D03*
X93180000Y-123180000D03*
X93680000Y-123180000D03*
X94180000Y-123180000D03*
X94680000Y-123180000D03*
X95180000Y-123180000D03*
X95680000Y-123180000D03*
X96180000Y-123180000D03*
X96680000Y-123180000D03*
X97180000Y-123180000D03*
X97680000Y-123180000D03*
X98180000Y-123180000D03*
X98680000Y-123180000D03*
X99180000Y-123180000D03*
X99680000Y-123180000D03*
X100180000Y-123180000D03*
X100680000Y-123180000D03*
X101180000Y-123180000D03*
X101680000Y-123180000D03*
X102180000Y-123180000D03*
X102680000Y-123180000D03*
D19*
X104360000Y-121500000D03*
X104360000Y-121000000D03*
X104360000Y-120500000D03*
X104360000Y-120000000D03*
X104360000Y-119500000D03*
X104360000Y-119000000D03*
X104360000Y-118500000D03*
X104360000Y-118000000D03*
X104360000Y-117500000D03*
X104360000Y-117000000D03*
X104360000Y-116500000D03*
X104360000Y-116000000D03*
X104360000Y-115500000D03*
X104360000Y-115000000D03*
X104360000Y-114500000D03*
X104360000Y-114000000D03*
X104360000Y-113500000D03*
X104360000Y-113000000D03*
X104360000Y-112500000D03*
X104360000Y-112000000D03*
X104360000Y-111500000D03*
X104360000Y-111000000D03*
X104360000Y-110500000D03*
X104360000Y-110000000D03*
X104360000Y-109500000D03*
D20*
X102680000Y-107820000D03*
X102180000Y-107820000D03*
X101680000Y-107820000D03*
X101180000Y-107820000D03*
X100680000Y-107820000D03*
X100180000Y-107820000D03*
X99680000Y-107820000D03*
X99180000Y-107820000D03*
X98680000Y-107820000D03*
X98180000Y-107820000D03*
X97680000Y-107820000D03*
X97180000Y-107820000D03*
X96680000Y-107820000D03*
X96180000Y-107820000D03*
X95680000Y-107820000D03*
X95180000Y-107820000D03*
X94680000Y-107820000D03*
X94180000Y-107820000D03*
X93680000Y-107820000D03*
X93180000Y-107820000D03*
X92680000Y-107820000D03*
X92180000Y-107820000D03*
X91680000Y-107820000D03*
X91180000Y-107820000D03*
X90680000Y-107820000D03*
G04 #@! TD*
D21*
G04 #@! TO.C,Y4*
X144750000Y-111600000D03*
X144750000Y-109400000D03*
X143050000Y-109400000D03*
X143050000Y-111600000D03*
G04 #@! TD*
D22*
G04 #@! TO.C,C26*
X128900000Y-113000000D03*
X128900000Y-114900000D03*
G04 #@! TD*
D23*
G04 #@! TO.C,R27*
X132500000Y-77660000D03*
X132500000Y-79485000D03*
G04 #@! TD*
D11*
G04 #@! TO.C,C48*
X136450000Y-126000000D03*
X138350000Y-126000000D03*
G04 #@! TD*
D23*
G04 #@! TO.C,R33*
X111080000Y-100637500D03*
X111080000Y-102462500D03*
G04 #@! TD*
G04 #@! TO.C,R32*
X116080000Y-101050000D03*
X116080000Y-102875000D03*
G04 #@! TD*
D24*
G04 #@! TO.C,D17*
X122080000Y-124425000D03*
X122080000Y-122550000D03*
G04 #@! TD*
D23*
G04 #@! TO.C,R26*
X104150000Y-78087500D03*
X104150000Y-79912500D03*
G04 #@! TD*
D25*
G04 #@! TO.C,L1*
X162837500Y-111000000D03*
X164962500Y-111000000D03*
G04 #@! TD*
D23*
G04 #@! TO.C,R34*
X156400000Y-124500000D03*
X156400000Y-126325000D03*
G04 #@! TD*
D11*
G04 #@! TO.C,C38*
X137450000Y-105000000D03*
X139350000Y-105000000D03*
G04 #@! TD*
G04 #@! TO.C,C41*
X146500000Y-131500000D03*
X148400000Y-131500000D03*
G04 #@! TD*
G04 #@! TO.C,C25*
X157000000Y-111500000D03*
X158900000Y-111500000D03*
G04 #@! TD*
G04 #@! TO.C,C52*
X148900000Y-111500000D03*
X150800000Y-111500000D03*
G04 #@! TD*
D26*
G04 #@! TO.C,C11*
X101130000Y-127000000D03*
X99230000Y-127000000D03*
G04 #@! TD*
D11*
G04 #@! TO.C,C53*
X132500000Y-111500000D03*
X134400000Y-111500000D03*
G04 #@! TD*
D18*
G04 #@! TO.C,R30*
X122080000Y-128462500D03*
X122080000Y-126637500D03*
G04 #@! TD*
D27*
G04 #@! TO.C,R35*
X103767500Y-127000000D03*
X105592500Y-127000000D03*
G04 #@! TD*
D28*
G04 #@! TO.C,D19*
X116080000Y-105525000D03*
X116080000Y-107400000D03*
G04 #@! TD*
D29*
G04 #@! TO.C,U16*
X111960000Y-117500000D03*
X113230000Y-117500000D03*
X114500000Y-117500000D03*
X115770000Y-117500000D03*
X117040000Y-117500000D03*
X118310000Y-117500000D03*
X119580000Y-117500000D03*
X119580000Y-112550000D03*
X118310000Y-112550000D03*
X117040000Y-112550000D03*
X115770000Y-112550000D03*
X114500000Y-112550000D03*
X113230000Y-112550000D03*
X111960000Y-112550000D03*
G04 #@! TD*
D30*
G04 #@! TO.C,Y2*
X151100000Y-119800000D03*
X148900000Y-119800000D03*
X148900000Y-121500000D03*
X151100000Y-121500000D03*
G04 #@! TD*
D11*
G04 #@! TO.C,C14*
X89500000Y-94000000D03*
X91400000Y-94000000D03*
G04 #@! TD*
D23*
G04 #@! TO.C,R17*
X80250000Y-77937500D03*
X80250000Y-79762500D03*
G04 #@! TD*
G04 #@! TO.C,R19*
X94750000Y-78317500D03*
X94750000Y-80142500D03*
G04 #@! TD*
D14*
G04 #@! TO.C,C2*
X113580000Y-133500000D03*
X113580000Y-131600000D03*
G04 #@! TD*
D23*
G04 #@! TO.C,R24*
X88750000Y-77817500D03*
X88750000Y-79642500D03*
G04 #@! TD*
D11*
G04 #@! TO.C,C15*
X94000000Y-99000000D03*
X95900000Y-99000000D03*
G04 #@! TD*
D31*
G04 #@! TO.C,U13*
X68850000Y-132700000D03*
X68850000Y-135000000D03*
D32*
X75150000Y-135000000D03*
D31*
X68850000Y-137300000D03*
G04 #@! TD*
D33*
G04 #@! TO.C,D26*
X57040000Y-104172500D03*
X57040000Y-100172500D03*
G04 #@! TD*
D11*
G04 #@! TO.C,C13*
X89500000Y-99000000D03*
X91400000Y-99000000D03*
G04 #@! TD*
D34*
G04 #@! TO.C,U12*
X48800000Y-131850000D03*
X46500000Y-131850000D03*
D35*
X46500000Y-138150000D03*
D34*
X44200000Y-131850000D03*
G04 #@! TD*
D26*
G04 #@! TO.C,C30*
X101350000Y-94000000D03*
X99450000Y-94000000D03*
G04 #@! TD*
G04 #@! TO.C,C19*
X63000000Y-135500000D03*
X61100000Y-135500000D03*
G04 #@! TD*
D11*
G04 #@! TO.C,C23*
X154000000Y-116500000D03*
X155900000Y-116500000D03*
G04 #@! TD*
G04 #@! TO.C,C22*
X155500000Y-107000000D03*
X157400000Y-107000000D03*
G04 #@! TD*
G04 #@! TO.C,C51*
X148950000Y-116000000D03*
X150850000Y-116000000D03*
G04 #@! TD*
D12*
G04 #@! TO.C,D21*
X67540000Y-100172500D03*
X67540000Y-104172500D03*
G04 #@! TD*
D23*
G04 #@! TO.C,R22*
X139000000Y-77660000D03*
X139000000Y-79485000D03*
G04 #@! TD*
D14*
G04 #@! TO.C,C18*
X55000000Y-132400000D03*
X55000000Y-130500000D03*
G04 #@! TD*
D36*
G04 #@! TO.C,L3*
X128900000Y-108937500D03*
X128900000Y-111062500D03*
G04 #@! TD*
D37*
G04 #@! TO.C,R18*
X93005000Y-127000000D03*
X91180000Y-127000000D03*
G04 #@! TD*
D28*
G04 #@! TO.C,D20*
X111080000Y-105525000D03*
X111080000Y-107400000D03*
G04 #@! TD*
D26*
G04 #@! TO.C,C16*
X45400000Y-129150000D03*
X43500000Y-129150000D03*
G04 #@! TD*
D12*
G04 #@! TO.C,D27*
X73040000Y-100172500D03*
X73040000Y-104172500D03*
G04 #@! TD*
D27*
G04 #@! TO.C,R36*
X95180000Y-127000000D03*
X97005000Y-127000000D03*
G04 #@! TD*
D23*
G04 #@! TO.C,R31*
X121080000Y-101137500D03*
X121080000Y-102962500D03*
G04 #@! TD*
D11*
G04 #@! TO.C,C28*
X142500000Y-131500000D03*
X144400000Y-131500000D03*
G04 #@! TD*
D27*
G04 #@! TO.C,R37*
X146487500Y-127500000D03*
X148312500Y-127500000D03*
G04 #@! TD*
D11*
G04 #@! TO.C,C42*
X132450000Y-119000000D03*
X134350000Y-119000000D03*
G04 #@! TD*
D33*
G04 #@! TO.C,D25*
X52040000Y-104172500D03*
X52040000Y-100172500D03*
G04 #@! TD*
D23*
G04 #@! TO.C,R20*
X125600000Y-78427500D03*
X125600000Y-80252500D03*
G04 #@! TD*
D11*
G04 #@! TO.C,C50*
X132500000Y-116000000D03*
X134400000Y-116000000D03*
G04 #@! TD*
D23*
G04 #@! TO.C,R21*
X110150000Y-78175000D03*
X110150000Y-80000000D03*
G04 #@! TD*
D25*
G04 #@! TO.C,L2*
X160837500Y-106500000D03*
X162962500Y-106500000D03*
G04 #@! TD*
D38*
G04 #@! TO.C,C24*
X139400000Y-130520000D03*
X139400000Y-131480000D03*
G04 #@! TD*
D24*
G04 #@! TO.C,D16*
X117580000Y-124487500D03*
X117580000Y-122612500D03*
G04 #@! TD*
D11*
G04 #@! TO.C,C12*
X87230000Y-127000000D03*
X89130000Y-127000000D03*
G04 #@! TD*
D14*
G04 #@! TO.C,C21*
X154900000Y-122000000D03*
X154900000Y-120100000D03*
G04 #@! TD*
D24*
G04 #@! TO.C,D15*
X113080000Y-124487500D03*
X113080000Y-122612500D03*
G04 #@! TD*
D11*
G04 #@! TO.C,C46*
X150900000Y-129500000D03*
X152800000Y-129500000D03*
G04 #@! TD*
G04 #@! TO.C,C44*
X151000000Y-107000000D03*
X152900000Y-107000000D03*
G04 #@! TD*
D14*
G04 #@! TO.C,C27*
X160400000Y-122900000D03*
X160400000Y-121000000D03*
G04 #@! TD*
D11*
G04 #@! TO.C,C47*
X137450000Y-110000000D03*
X139350000Y-110000000D03*
G04 #@! TD*
D12*
G04 #@! TO.C,D23*
X46040000Y-100172500D03*
X46040000Y-104172500D03*
G04 #@! TD*
D13*
G04 #@! TO.C,D1*
X67000000Y-125000000D03*
X63000000Y-125000000D03*
G04 #@! TD*
D39*
G04 #@! TO.C,L4*
X153900000Y-112000000D03*
X154870000Y-112000000D03*
G04 #@! TD*
D23*
G04 #@! TO.C,R23*
X73750000Y-77525000D03*
X73750000Y-79350000D03*
G04 #@! TD*
D11*
G04 #@! TO.C,C49*
X151000000Y-126000000D03*
X152900000Y-126000000D03*
G04 #@! TD*
D26*
G04 #@! TO.C,C31*
X49400000Y-127500000D03*
X47500000Y-127500000D03*
G04 #@! TD*
D14*
G04 #@! TO.C,C20*
X128900000Y-118950000D03*
X128900000Y-117050000D03*
G04 #@! TD*
D28*
G04 #@! TO.C,D18*
X121080000Y-106025000D03*
X121080000Y-107900000D03*
G04 #@! TD*
D23*
G04 #@! TO.C,R25*
X120600000Y-78427500D03*
X120600000Y-80252500D03*
G04 #@! TD*
D14*
G04 #@! TO.C,C17*
X55000000Y-137600000D03*
X55000000Y-135700000D03*
G04 #@! TD*
M02*
