M48
; DRILL file KiCad 10.0.0 date 2026-05-15T00:22:33
; FORMAT={-:-/ absolute / metric / decimal}
; #@! TF.CreationDate,2026-05-15T00:22:33+03:00
; #@! TF.GenerationSoftware,Kicad,Pcbnew,10.0.0
; #@! TF.FileFunction,Plated,1,4,PTH
FMAT,2
METRIC
; #@! TA.AperFunction,Plated,PTH,ViaDrill
T1C0.300
; #@! TA.AperFunction,Plated,PTH,ComponentDrill
T2C0.300
; #@! TA.AperFunction,Plated,PTH,ComponentDrill
T3C1.000
; #@! TA.AperFunction,Plated,PTH,ComponentDrill
T4C1.080
; #@! TA.AperFunction,Plated,PTH,ComponentDrill
T5C1.300
%
G90
G05
T1
X45.0Y-125.5
X46.5Y-93.5
X47.0Y-119.5
X48.378Y-104.484
X49.5Y-125.5
X51.0Y-129.5
X51.54Y-92.606
X54.5Y-120.0
X56.0Y-98.5
X56.5Y-138.0
X57.0Y-131.5
X57.303Y-102.172
X57.5Y-95.5
X59.811Y-100.203
X60.275Y-125.269
X62.5Y-132.5
X63.541Y-92.606
X64.5Y-105.5
X66.0Y-131.0
X68.337Y-108.387
X71.46Y-104.484
X71.5Y-90.0
X72.278Y-92.606
X73.077Y-102.172
X73.5Y-119.5
X74.5Y-122.5
X75.356Y-98.545
X77.0Y-112.5
X77.76Y-133.422
X78.268Y-115.888
X81.0Y-90.0
X86.5Y-129.0
X86.978Y-110.489
X87.266Y-120.172
X87.5Y-90.0
X87.5Y-114.5
X88.5Y-132.5
X90.0Y-101.5
X90.149Y-127.342
X90.773Y-115.878
X91.5Y-92.0
X91.5Y-105.5
X93.5Y-101.5
X93.5Y-125.0
X94.5Y-128.5
X96.771Y-119.85
X97.5Y-89.0
X98.0Y-92.5
X99.5Y-101.0
X100.0Y-106.0
X100.0Y-129.0
X100.271Y-112.834
X100.422Y-121.605
X101.0Y-133.0
X101.117Y-110.378
X102.145Y-119.33
X102.149Y-110.507
X102.283Y-113.608
X103.0Y-109.386
X103.023Y-106.494
X103.5Y-89.5
X105.94Y-117.311
X106.0Y-116.0
X108.5Y-104.5
X110.688Y-113.392
X110.722Y-116.676
X111.0Y-131.0
X112.0Y-88.0
X112.209Y-101.55
X114.09Y-115.697
X114.518Y-119.65
X115.048Y-115.306
X115.168Y-113.863
X116.492Y-109.204
X116.858Y-115.695
X117.5Y-89.5
X117.631Y-110.952
X119.428Y-120.118
X120.5Y-119.5
X122.5Y-131.0
X127.0Y-89.0
X127.0Y-115.0
X127.0Y-120.0
X130.091Y-109.092
X131.0Y-120.0
X131.0Y-127.0
X131.055Y-114.055
X132.0Y-89.5
X132.5Y-105.5
X132.5Y-110.0
X132.5Y-114.5
X132.5Y-121.5
X132.5Y-134.5
X135.55Y-123.1
X135.724Y-115.882
X136.5Y-103.5
X136.5Y-124.0
X137.496Y-122.295
X137.5Y-108.5
X137.5Y-117.0
X137.862Y-130.944
X138.411Y-115.144
X139.0Y-132.5
X139.331Y-111.316
X140.5Y-128.0
X141.0Y-89.0
X141.122Y-124.677
X141.5Y-111.5
X142.5Y-134.5
X145.0Y-107.5
X145.029Y-122.656
X145.861Y-118.9
X146.0Y-116.5
X146.5Y-133.5
X147.153Y-107.334
X147.5Y-120.9
X148.5Y-109.0
X149.0Y-118.5
X149.0Y-125.5
X149.0Y-129.5
X150.0Y-114.5
X150.151Y-127.404
X150.5Y-123.0
X152.485Y-116.53
X152.625Y-110.932
X152.988Y-119.33
X153.969Y-125.575
X155.0Y-113.0
X155.0Y-127.5
X156.5Y-121.5
X157.018Y-115.575
X157.29Y-109.856
X158.0Y-115.0
X158.0Y-125.0
X158.845Y-115.842
X160.016Y-111.099
X160.5Y-124.5
T2
X161.5Y-77.375
T3
X74.75Y-83.938
X74.75Y-86.477
X79.0Y-122.5
X79.0Y-125.04
X79.0Y-127.58
X80.25Y-83.938
X80.25Y-86.477
X81.54Y-122.5
X81.54Y-125.04
X81.54Y-127.58
X89.75Y-83.73
X89.75Y-86.27
X95.25Y-83.73
X95.25Y-86.27
X104.4Y-84.218
X104.4Y-86.757
X109.9Y-84.218
X109.9Y-86.757
X120.5Y-83.96
X120.5Y-86.5
X126.0Y-83.96
X126.0Y-86.5
X133.25Y-83.63
X133.25Y-86.17
X138.75Y-83.63
X138.75Y-86.17
T4
X56.57Y-117.08
X57.84Y-112.0
X59.11Y-117.08
X60.38Y-112.0
X61.65Y-117.08
X62.92Y-112.0
X64.19Y-117.08
X65.46Y-112.0
X66.73Y-117.08
X68.0Y-112.0
X69.27Y-117.08
X70.54Y-112.0
X71.81Y-117.08
X73.08Y-112.0
X74.35Y-117.08
T5
X48.04Y-109.593
X48.04Y-114.672
X48.5Y-67.92
X48.5Y-73.0
X48.5Y-78.08
X48.5Y-83.16
M30
