G04 #@! TF.GenerationSoftware,KiCad,Pcbnew,10.0.0*
G04 #@! TF.CreationDate,2026-05-15T00:22:42+03:00*
G04 #@! TF.ProjectId,Final_Version,46696e61-6c5f-4566-9572-73696f6e2e6b,rev?*
G04 #@! TF.SameCoordinates,Original*
G04 #@! TF.FileFunction,Legend,Top*
G04 #@! TF.FilePolarity,Positive*
%FSLAX46Y46*%
G04 Gerber Fmt 4.6, Leading zero omitted, Abs format (unit mm)*
G04 Created by KiCad (PCBNEW 10.0.0) date 2026-05-15 00:22:42*
%MOMM*%
%LPD*%
G01*
G04 APERTURE LIST*
%ADD10C,0.100000*%
%ADD11C,0.150000*%
%ADD12C,0.120000*%
%ADD13C,0.203200*%
%ADD14C,0.127000*%
%ADD15C,0.200000*%
G04 APERTURE END LIST*
D10*
X47343884Y-118694919D02*
X47343884Y-117694919D01*
X47343884Y-117694919D02*
X47724836Y-117694919D01*
X47724836Y-117694919D02*
X47820074Y-117742538D01*
X47820074Y-117742538D02*
X47867693Y-117790157D01*
X47867693Y-117790157D02*
X47915312Y-117885395D01*
X47915312Y-117885395D02*
X47915312Y-118028252D01*
X47915312Y-118028252D02*
X47867693Y-118123490D01*
X47867693Y-118123490D02*
X47820074Y-118171109D01*
X47820074Y-118171109D02*
X47724836Y-118218728D01*
X47724836Y-118218728D02*
X47343884Y-118218728D01*
X48248646Y-117694919D02*
X48486741Y-118694919D01*
X48486741Y-118694919D02*
X48677217Y-117980633D01*
X48677217Y-117980633D02*
X48867693Y-118694919D01*
X48867693Y-118694919D02*
X49105789Y-117694919D01*
X50058169Y-118694919D02*
X49724836Y-118218728D01*
X49486741Y-118694919D02*
X49486741Y-117694919D01*
X49486741Y-117694919D02*
X49867693Y-117694919D01*
X49867693Y-117694919D02*
X49962931Y-117742538D01*
X49962931Y-117742538D02*
X50010550Y-117790157D01*
X50010550Y-117790157D02*
X50058169Y-117885395D01*
X50058169Y-117885395D02*
X50058169Y-118028252D01*
X50058169Y-118028252D02*
X50010550Y-118123490D01*
X50010550Y-118123490D02*
X49962931Y-118171109D01*
X49962931Y-118171109D02*
X49867693Y-118218728D01*
X49867693Y-118218728D02*
X49486741Y-118218728D01*
X51248646Y-118694919D02*
X51248646Y-117694919D01*
X51248646Y-117694919D02*
X51629598Y-117694919D01*
X51629598Y-117694919D02*
X51724836Y-117742538D01*
X51724836Y-117742538D02*
X51772455Y-117790157D01*
X51772455Y-117790157D02*
X51820074Y-117885395D01*
X51820074Y-117885395D02*
X51820074Y-118028252D01*
X51820074Y-118028252D02*
X51772455Y-118123490D01*
X51772455Y-118123490D02*
X51724836Y-118171109D01*
X51724836Y-118171109D02*
X51629598Y-118218728D01*
X51629598Y-118218728D02*
X51248646Y-118218728D01*
X52201027Y-118409204D02*
X52677217Y-118409204D01*
X52105789Y-118694919D02*
X52439122Y-117694919D01*
X52439122Y-117694919D02*
X52772455Y-118694919D01*
X53677217Y-118694919D02*
X53343884Y-118218728D01*
X53105789Y-118694919D02*
X53105789Y-117694919D01*
X53105789Y-117694919D02*
X53486741Y-117694919D01*
X53486741Y-117694919D02*
X53581979Y-117742538D01*
X53581979Y-117742538D02*
X53629598Y-117790157D01*
X53629598Y-117790157D02*
X53677217Y-117885395D01*
X53677217Y-117885395D02*
X53677217Y-118028252D01*
X53677217Y-118028252D02*
X53629598Y-118123490D01*
X53629598Y-118123490D02*
X53581979Y-118171109D01*
X53581979Y-118171109D02*
X53486741Y-118218728D01*
X53486741Y-118218728D02*
X53105789Y-118218728D01*
X53962932Y-117694919D02*
X54534360Y-117694919D01*
X54248646Y-118694919D02*
X54248646Y-117694919D01*
X103756265Y-69586704D02*
X104232455Y-69586704D01*
X103661027Y-69872419D02*
X103994360Y-68872419D01*
X103994360Y-68872419D02*
X104327693Y-69872419D01*
X104661027Y-69872419D02*
X104661027Y-68872419D01*
X104661027Y-69253371D02*
X104756265Y-69205752D01*
X104756265Y-69205752D02*
X104946741Y-69205752D01*
X104946741Y-69205752D02*
X105041979Y-69253371D01*
X105041979Y-69253371D02*
X105089598Y-69300990D01*
X105089598Y-69300990D02*
X105137217Y-69396228D01*
X105137217Y-69396228D02*
X105137217Y-69681942D01*
X105137217Y-69681942D02*
X105089598Y-69777180D01*
X105089598Y-69777180D02*
X105041979Y-69824800D01*
X105041979Y-69824800D02*
X104946741Y-69872419D01*
X104946741Y-69872419D02*
X104756265Y-69872419D01*
X104756265Y-69872419D02*
X104661027Y-69824800D01*
X105994360Y-69872419D02*
X105994360Y-69348609D01*
X105994360Y-69348609D02*
X105946741Y-69253371D01*
X105946741Y-69253371D02*
X105851503Y-69205752D01*
X105851503Y-69205752D02*
X105661027Y-69205752D01*
X105661027Y-69205752D02*
X105565789Y-69253371D01*
X105994360Y-69824800D02*
X105899122Y-69872419D01*
X105899122Y-69872419D02*
X105661027Y-69872419D01*
X105661027Y-69872419D02*
X105565789Y-69824800D01*
X105565789Y-69824800D02*
X105518170Y-69729561D01*
X105518170Y-69729561D02*
X105518170Y-69634323D01*
X105518170Y-69634323D02*
X105565789Y-69539085D01*
X105565789Y-69539085D02*
X105661027Y-69491466D01*
X105661027Y-69491466D02*
X105899122Y-69491466D01*
X105899122Y-69491466D02*
X105994360Y-69443847D01*
X106470551Y-69205752D02*
X106470551Y-69872419D01*
X106470551Y-69300990D02*
X106518170Y-69253371D01*
X106518170Y-69253371D02*
X106613408Y-69205752D01*
X106613408Y-69205752D02*
X106756265Y-69205752D01*
X106756265Y-69205752D02*
X106851503Y-69253371D01*
X106851503Y-69253371D02*
X106899122Y-69348609D01*
X106899122Y-69348609D02*
X106899122Y-69872419D01*
X107518170Y-69872419D02*
X107422932Y-69824800D01*
X107422932Y-69824800D02*
X107375313Y-69777180D01*
X107375313Y-69777180D02*
X107327694Y-69681942D01*
X107327694Y-69681942D02*
X107327694Y-69396228D01*
X107327694Y-69396228D02*
X107375313Y-69300990D01*
X107375313Y-69300990D02*
X107422932Y-69253371D01*
X107422932Y-69253371D02*
X107518170Y-69205752D01*
X107518170Y-69205752D02*
X107661027Y-69205752D01*
X107661027Y-69205752D02*
X107756265Y-69253371D01*
X107756265Y-69253371D02*
X107803884Y-69300990D01*
X107803884Y-69300990D02*
X107851503Y-69396228D01*
X107851503Y-69396228D02*
X107851503Y-69681942D01*
X107851503Y-69681942D02*
X107803884Y-69777180D01*
X107803884Y-69777180D02*
X107756265Y-69824800D01*
X107756265Y-69824800D02*
X107661027Y-69872419D01*
X107661027Y-69872419D02*
X107518170Y-69872419D01*
X108708646Y-69205752D02*
X108708646Y-69872419D01*
X108280075Y-69205752D02*
X108280075Y-69729561D01*
X108280075Y-69729561D02*
X108327694Y-69824800D01*
X108327694Y-69824800D02*
X108422932Y-69872419D01*
X108422932Y-69872419D02*
X108565789Y-69872419D01*
X108565789Y-69872419D02*
X108661027Y-69824800D01*
X108661027Y-69824800D02*
X108708646Y-69777180D01*
X109184837Y-69872419D02*
X109184837Y-68872419D01*
X109184837Y-69253371D02*
X109280075Y-69205752D01*
X109280075Y-69205752D02*
X109470551Y-69205752D01*
X109470551Y-69205752D02*
X109565789Y-69253371D01*
X109565789Y-69253371D02*
X109613408Y-69300990D01*
X109613408Y-69300990D02*
X109661027Y-69396228D01*
X109661027Y-69396228D02*
X109661027Y-69681942D01*
X109661027Y-69681942D02*
X109613408Y-69777180D01*
X109613408Y-69777180D02*
X109565789Y-69824800D01*
X109565789Y-69824800D02*
X109470551Y-69872419D01*
X109470551Y-69872419D02*
X109280075Y-69872419D01*
X109280075Y-69872419D02*
X109184837Y-69824800D01*
X110089599Y-69491466D02*
X110851504Y-69491466D01*
X111613408Y-68872419D02*
X111613408Y-69586704D01*
X111613408Y-69586704D02*
X111565789Y-69729561D01*
X111565789Y-69729561D02*
X111470551Y-69824800D01*
X111470551Y-69824800D02*
X111327694Y-69872419D01*
X111327694Y-69872419D02*
X111232456Y-69872419D01*
X112232456Y-69872419D02*
X112137218Y-69824800D01*
X112137218Y-69824800D02*
X112089599Y-69777180D01*
X112089599Y-69777180D02*
X112041980Y-69681942D01*
X112041980Y-69681942D02*
X112041980Y-69396228D01*
X112041980Y-69396228D02*
X112089599Y-69300990D01*
X112089599Y-69300990D02*
X112137218Y-69253371D01*
X112137218Y-69253371D02*
X112232456Y-69205752D01*
X112232456Y-69205752D02*
X112375313Y-69205752D01*
X112375313Y-69205752D02*
X112470551Y-69253371D01*
X112470551Y-69253371D02*
X112518170Y-69300990D01*
X112518170Y-69300990D02*
X112565789Y-69396228D01*
X112565789Y-69396228D02*
X112565789Y-69681942D01*
X112565789Y-69681942D02*
X112518170Y-69777180D01*
X112518170Y-69777180D02*
X112470551Y-69824800D01*
X112470551Y-69824800D02*
X112375313Y-69872419D01*
X112375313Y-69872419D02*
X112232456Y-69872419D01*
X112994361Y-69872419D02*
X112994361Y-68872419D01*
X113422932Y-69872419D02*
X113422932Y-69348609D01*
X113422932Y-69348609D02*
X113375313Y-69253371D01*
X113375313Y-69253371D02*
X113280075Y-69205752D01*
X113280075Y-69205752D02*
X113137218Y-69205752D01*
X113137218Y-69205752D02*
X113041980Y-69253371D01*
X113041980Y-69253371D02*
X112994361Y-69300990D01*
X113899123Y-69205752D02*
X113899123Y-69872419D01*
X113899123Y-69300990D02*
X113946742Y-69253371D01*
X113946742Y-69253371D02*
X114041980Y-69205752D01*
X114041980Y-69205752D02*
X114184837Y-69205752D01*
X114184837Y-69205752D02*
X114280075Y-69253371D01*
X114280075Y-69253371D02*
X114327694Y-69348609D01*
X114327694Y-69348609D02*
X114327694Y-69872419D01*
X114803885Y-69491466D02*
X115565790Y-69491466D01*
X116041980Y-69872419D02*
X116041980Y-68872419D01*
X116041980Y-68872419D02*
X116375313Y-69586704D01*
X116375313Y-69586704D02*
X116708646Y-68872419D01*
X116708646Y-68872419D02*
X116708646Y-69872419D01*
X117184837Y-69872419D02*
X117184837Y-69205752D01*
X117184837Y-68872419D02*
X117137218Y-68920038D01*
X117137218Y-68920038D02*
X117184837Y-68967657D01*
X117184837Y-68967657D02*
X117232456Y-68920038D01*
X117232456Y-68920038D02*
X117184837Y-68872419D01*
X117184837Y-68872419D02*
X117184837Y-68967657D01*
X117661027Y-69205752D02*
X117661027Y-69872419D01*
X117661027Y-69300990D02*
X117708646Y-69253371D01*
X117708646Y-69253371D02*
X117803884Y-69205752D01*
X117803884Y-69205752D02*
X117946741Y-69205752D01*
X117946741Y-69205752D02*
X118041979Y-69253371D01*
X118041979Y-69253371D02*
X118089598Y-69348609D01*
X118089598Y-69348609D02*
X118089598Y-69872419D01*
X118994360Y-69872419D02*
X118994360Y-69348609D01*
X118994360Y-69348609D02*
X118946741Y-69253371D01*
X118946741Y-69253371D02*
X118851503Y-69205752D01*
X118851503Y-69205752D02*
X118661027Y-69205752D01*
X118661027Y-69205752D02*
X118565789Y-69253371D01*
X118994360Y-69824800D02*
X118899122Y-69872419D01*
X118899122Y-69872419D02*
X118661027Y-69872419D01*
X118661027Y-69872419D02*
X118565789Y-69824800D01*
X118565789Y-69824800D02*
X118518170Y-69729561D01*
X118518170Y-69729561D02*
X118518170Y-69634323D01*
X118518170Y-69634323D02*
X118565789Y-69539085D01*
X118565789Y-69539085D02*
X118661027Y-69491466D01*
X118661027Y-69491466D02*
X118899122Y-69491466D01*
X118899122Y-69491466D02*
X118994360Y-69443847D01*
X119470551Y-69491466D02*
X120232456Y-69491466D01*
X120899122Y-68872419D02*
X121089598Y-68872419D01*
X121089598Y-68872419D02*
X121184836Y-68920038D01*
X121184836Y-68920038D02*
X121280074Y-69015276D01*
X121280074Y-69015276D02*
X121327693Y-69205752D01*
X121327693Y-69205752D02*
X121327693Y-69539085D01*
X121327693Y-69539085D02*
X121280074Y-69729561D01*
X121280074Y-69729561D02*
X121184836Y-69824800D01*
X121184836Y-69824800D02*
X121089598Y-69872419D01*
X121089598Y-69872419D02*
X120899122Y-69872419D01*
X120899122Y-69872419D02*
X120803884Y-69824800D01*
X120803884Y-69824800D02*
X120708646Y-69729561D01*
X120708646Y-69729561D02*
X120661027Y-69539085D01*
X120661027Y-69539085D02*
X120661027Y-69205752D01*
X120661027Y-69205752D02*
X120708646Y-69015276D01*
X120708646Y-69015276D02*
X120803884Y-68920038D01*
X120803884Y-68920038D02*
X120899122Y-68872419D01*
X121756265Y-69872419D02*
X121756265Y-69205752D01*
X121756265Y-69300990D02*
X121803884Y-69253371D01*
X121803884Y-69253371D02*
X121899122Y-69205752D01*
X121899122Y-69205752D02*
X122041979Y-69205752D01*
X122041979Y-69205752D02*
X122137217Y-69253371D01*
X122137217Y-69253371D02*
X122184836Y-69348609D01*
X122184836Y-69348609D02*
X122184836Y-69872419D01*
X122184836Y-69348609D02*
X122232455Y-69253371D01*
X122232455Y-69253371D02*
X122327693Y-69205752D01*
X122327693Y-69205752D02*
X122470550Y-69205752D01*
X122470550Y-69205752D02*
X122565789Y-69253371D01*
X122565789Y-69253371D02*
X122613408Y-69348609D01*
X122613408Y-69348609D02*
X122613408Y-69872419D01*
X123518169Y-69872419D02*
X123518169Y-69348609D01*
X123518169Y-69348609D02*
X123470550Y-69253371D01*
X123470550Y-69253371D02*
X123375312Y-69205752D01*
X123375312Y-69205752D02*
X123184836Y-69205752D01*
X123184836Y-69205752D02*
X123089598Y-69253371D01*
X123518169Y-69824800D02*
X123422931Y-69872419D01*
X123422931Y-69872419D02*
X123184836Y-69872419D01*
X123184836Y-69872419D02*
X123089598Y-69824800D01*
X123089598Y-69824800D02*
X123041979Y-69729561D01*
X123041979Y-69729561D02*
X123041979Y-69634323D01*
X123041979Y-69634323D02*
X123089598Y-69539085D01*
X123089598Y-69539085D02*
X123184836Y-69491466D01*
X123184836Y-69491466D02*
X123422931Y-69491466D01*
X123422931Y-69491466D02*
X123518169Y-69443847D01*
X123994360Y-69872419D02*
X123994360Y-69205752D01*
X123994360Y-69396228D02*
X124041979Y-69300990D01*
X124041979Y-69300990D02*
X124089598Y-69253371D01*
X124089598Y-69253371D02*
X124184836Y-69205752D01*
X124184836Y-69205752D02*
X124280074Y-69205752D01*
D11*
X132757142Y-105679580D02*
X132709523Y-105727200D01*
X132709523Y-105727200D02*
X132566666Y-105774819D01*
X132566666Y-105774819D02*
X132471428Y-105774819D01*
X132471428Y-105774819D02*
X132328571Y-105727200D01*
X132328571Y-105727200D02*
X132233333Y-105631961D01*
X132233333Y-105631961D02*
X132185714Y-105536723D01*
X132185714Y-105536723D02*
X132138095Y-105346247D01*
X132138095Y-105346247D02*
X132138095Y-105203390D01*
X132138095Y-105203390D02*
X132185714Y-105012914D01*
X132185714Y-105012914D02*
X132233333Y-104917676D01*
X132233333Y-104917676D02*
X132328571Y-104822438D01*
X132328571Y-104822438D02*
X132471428Y-104774819D01*
X132471428Y-104774819D02*
X132566666Y-104774819D01*
X132566666Y-104774819D02*
X132709523Y-104822438D01*
X132709523Y-104822438D02*
X132757142Y-104870057D01*
X133661904Y-104774819D02*
X133185714Y-104774819D01*
X133185714Y-104774819D02*
X133138095Y-105251009D01*
X133138095Y-105251009D02*
X133185714Y-105203390D01*
X133185714Y-105203390D02*
X133280952Y-105155771D01*
X133280952Y-105155771D02*
X133519047Y-105155771D01*
X133519047Y-105155771D02*
X133614285Y-105203390D01*
X133614285Y-105203390D02*
X133661904Y-105251009D01*
X133661904Y-105251009D02*
X133709523Y-105346247D01*
X133709523Y-105346247D02*
X133709523Y-105584342D01*
X133709523Y-105584342D02*
X133661904Y-105679580D01*
X133661904Y-105679580D02*
X133614285Y-105727200D01*
X133614285Y-105727200D02*
X133519047Y-105774819D01*
X133519047Y-105774819D02*
X133280952Y-105774819D01*
X133280952Y-105774819D02*
X133185714Y-105727200D01*
X133185714Y-105727200D02*
X133138095Y-105679580D01*
X134614285Y-104774819D02*
X134138095Y-104774819D01*
X134138095Y-104774819D02*
X134090476Y-105251009D01*
X134090476Y-105251009D02*
X134138095Y-105203390D01*
X134138095Y-105203390D02*
X134233333Y-105155771D01*
X134233333Y-105155771D02*
X134471428Y-105155771D01*
X134471428Y-105155771D02*
X134566666Y-105203390D01*
X134566666Y-105203390D02*
X134614285Y-105251009D01*
X134614285Y-105251009D02*
X134661904Y-105346247D01*
X134661904Y-105346247D02*
X134661904Y-105584342D01*
X134661904Y-105584342D02*
X134614285Y-105679580D01*
X134614285Y-105679580D02*
X134566666Y-105727200D01*
X134566666Y-105727200D02*
X134471428Y-105774819D01*
X134471428Y-105774819D02*
X134233333Y-105774819D01*
X134233333Y-105774819D02*
X134138095Y-105727200D01*
X134138095Y-105727200D02*
X134090476Y-105679580D01*
X133807142Y-122129580D02*
X133759523Y-122177200D01*
X133759523Y-122177200D02*
X133616666Y-122224819D01*
X133616666Y-122224819D02*
X133521428Y-122224819D01*
X133521428Y-122224819D02*
X133378571Y-122177200D01*
X133378571Y-122177200D02*
X133283333Y-122081961D01*
X133283333Y-122081961D02*
X133235714Y-121986723D01*
X133235714Y-121986723D02*
X133188095Y-121796247D01*
X133188095Y-121796247D02*
X133188095Y-121653390D01*
X133188095Y-121653390D02*
X133235714Y-121462914D01*
X133235714Y-121462914D02*
X133283333Y-121367676D01*
X133283333Y-121367676D02*
X133378571Y-121272438D01*
X133378571Y-121272438D02*
X133521428Y-121224819D01*
X133521428Y-121224819D02*
X133616666Y-121224819D01*
X133616666Y-121224819D02*
X133759523Y-121272438D01*
X133759523Y-121272438D02*
X133807142Y-121320057D01*
X134664285Y-121558152D02*
X134664285Y-122224819D01*
X134426190Y-121177200D02*
X134188095Y-121891485D01*
X134188095Y-121891485D02*
X134807142Y-121891485D01*
X135664285Y-121224819D02*
X135188095Y-121224819D01*
X135188095Y-121224819D02*
X135140476Y-121701009D01*
X135140476Y-121701009D02*
X135188095Y-121653390D01*
X135188095Y-121653390D02*
X135283333Y-121605771D01*
X135283333Y-121605771D02*
X135521428Y-121605771D01*
X135521428Y-121605771D02*
X135616666Y-121653390D01*
X135616666Y-121653390D02*
X135664285Y-121701009D01*
X135664285Y-121701009D02*
X135711904Y-121796247D01*
X135711904Y-121796247D02*
X135711904Y-122034342D01*
X135711904Y-122034342D02*
X135664285Y-122129580D01*
X135664285Y-122129580D02*
X135616666Y-122177200D01*
X135616666Y-122177200D02*
X135521428Y-122224819D01*
X135521428Y-122224819D02*
X135283333Y-122224819D01*
X135283333Y-122224819D02*
X135188095Y-122177200D01*
X135188095Y-122177200D02*
X135140476Y-122129580D01*
X64994819Y-103386785D02*
X63994819Y-103386785D01*
X63994819Y-103386785D02*
X63994819Y-103148690D01*
X63994819Y-103148690D02*
X64042438Y-103005833D01*
X64042438Y-103005833D02*
X64137676Y-102910595D01*
X64137676Y-102910595D02*
X64232914Y-102862976D01*
X64232914Y-102862976D02*
X64423390Y-102815357D01*
X64423390Y-102815357D02*
X64566247Y-102815357D01*
X64566247Y-102815357D02*
X64756723Y-102862976D01*
X64756723Y-102862976D02*
X64851961Y-102910595D01*
X64851961Y-102910595D02*
X64947200Y-103005833D01*
X64947200Y-103005833D02*
X64994819Y-103148690D01*
X64994819Y-103148690D02*
X64994819Y-103386785D01*
X64090057Y-102434404D02*
X64042438Y-102386785D01*
X64042438Y-102386785D02*
X63994819Y-102291547D01*
X63994819Y-102291547D02*
X63994819Y-102053452D01*
X63994819Y-102053452D02*
X64042438Y-101958214D01*
X64042438Y-101958214D02*
X64090057Y-101910595D01*
X64090057Y-101910595D02*
X64185295Y-101862976D01*
X64185295Y-101862976D02*
X64280533Y-101862976D01*
X64280533Y-101862976D02*
X64423390Y-101910595D01*
X64423390Y-101910595D02*
X64994819Y-102482023D01*
X64994819Y-102482023D02*
X64994819Y-101862976D01*
X64090057Y-101482023D02*
X64042438Y-101434404D01*
X64042438Y-101434404D02*
X63994819Y-101339166D01*
X63994819Y-101339166D02*
X63994819Y-101101071D01*
X63994819Y-101101071D02*
X64042438Y-101005833D01*
X64042438Y-101005833D02*
X64090057Y-100958214D01*
X64090057Y-100958214D02*
X64185295Y-100910595D01*
X64185295Y-100910595D02*
X64280533Y-100910595D01*
X64280533Y-100910595D02*
X64423390Y-100958214D01*
X64423390Y-100958214D02*
X64994819Y-101529642D01*
X64994819Y-101529642D02*
X64994819Y-100910595D01*
X50325714Y-95954819D02*
X50325714Y-94954819D01*
X50325714Y-94954819D02*
X50563809Y-94954819D01*
X50563809Y-94954819D02*
X50706666Y-95002438D01*
X50706666Y-95002438D02*
X50801904Y-95097676D01*
X50801904Y-95097676D02*
X50849523Y-95192914D01*
X50849523Y-95192914D02*
X50897142Y-95383390D01*
X50897142Y-95383390D02*
X50897142Y-95526247D01*
X50897142Y-95526247D02*
X50849523Y-95716723D01*
X50849523Y-95716723D02*
X50801904Y-95811961D01*
X50801904Y-95811961D02*
X50706666Y-95907200D01*
X50706666Y-95907200D02*
X50563809Y-95954819D01*
X50563809Y-95954819D02*
X50325714Y-95954819D01*
X51278095Y-95050057D02*
X51325714Y-95002438D01*
X51325714Y-95002438D02*
X51420952Y-94954819D01*
X51420952Y-94954819D02*
X51659047Y-94954819D01*
X51659047Y-94954819D02*
X51754285Y-95002438D01*
X51754285Y-95002438D02*
X51801904Y-95050057D01*
X51801904Y-95050057D02*
X51849523Y-95145295D01*
X51849523Y-95145295D02*
X51849523Y-95240533D01*
X51849523Y-95240533D02*
X51801904Y-95383390D01*
X51801904Y-95383390D02*
X51230476Y-95954819D01*
X51230476Y-95954819D02*
X51849523Y-95954819D01*
X52706666Y-95288152D02*
X52706666Y-95954819D01*
X52468571Y-94907200D02*
X52230476Y-95621485D01*
X52230476Y-95621485D02*
X52849523Y-95621485D01*
X99357142Y-97679580D02*
X99309523Y-97727200D01*
X99309523Y-97727200D02*
X99166666Y-97774819D01*
X99166666Y-97774819D02*
X99071428Y-97774819D01*
X99071428Y-97774819D02*
X98928571Y-97727200D01*
X98928571Y-97727200D02*
X98833333Y-97631961D01*
X98833333Y-97631961D02*
X98785714Y-97536723D01*
X98785714Y-97536723D02*
X98738095Y-97346247D01*
X98738095Y-97346247D02*
X98738095Y-97203390D01*
X98738095Y-97203390D02*
X98785714Y-97012914D01*
X98785714Y-97012914D02*
X98833333Y-96917676D01*
X98833333Y-96917676D02*
X98928571Y-96822438D01*
X98928571Y-96822438D02*
X99071428Y-96774819D01*
X99071428Y-96774819D02*
X99166666Y-96774819D01*
X99166666Y-96774819D02*
X99309523Y-96822438D01*
X99309523Y-96822438D02*
X99357142Y-96870057D01*
X99738095Y-96870057D02*
X99785714Y-96822438D01*
X99785714Y-96822438D02*
X99880952Y-96774819D01*
X99880952Y-96774819D02*
X100119047Y-96774819D01*
X100119047Y-96774819D02*
X100214285Y-96822438D01*
X100214285Y-96822438D02*
X100261904Y-96870057D01*
X100261904Y-96870057D02*
X100309523Y-96965295D01*
X100309523Y-96965295D02*
X100309523Y-97060533D01*
X100309523Y-97060533D02*
X100261904Y-97203390D01*
X100261904Y-97203390D02*
X99690476Y-97774819D01*
X99690476Y-97774819D02*
X100309523Y-97774819D01*
X100785714Y-97774819D02*
X100976190Y-97774819D01*
X100976190Y-97774819D02*
X101071428Y-97727200D01*
X101071428Y-97727200D02*
X101119047Y-97679580D01*
X101119047Y-97679580D02*
X101214285Y-97536723D01*
X101214285Y-97536723D02*
X101261904Y-97346247D01*
X101261904Y-97346247D02*
X101261904Y-96965295D01*
X101261904Y-96965295D02*
X101214285Y-96870057D01*
X101214285Y-96870057D02*
X101166666Y-96822438D01*
X101166666Y-96822438D02*
X101071428Y-96774819D01*
X101071428Y-96774819D02*
X100880952Y-96774819D01*
X100880952Y-96774819D02*
X100785714Y-96822438D01*
X100785714Y-96822438D02*
X100738095Y-96870057D01*
X100738095Y-96870057D02*
X100690476Y-96965295D01*
X100690476Y-96965295D02*
X100690476Y-97203390D01*
X100690476Y-97203390D02*
X100738095Y-97298628D01*
X100738095Y-97298628D02*
X100785714Y-97346247D01*
X100785714Y-97346247D02*
X100880952Y-97393866D01*
X100880952Y-97393866D02*
X101071428Y-97393866D01*
X101071428Y-97393866D02*
X101166666Y-97346247D01*
X101166666Y-97346247D02*
X101214285Y-97298628D01*
X101214285Y-97298628D02*
X101261904Y-97203390D01*
X57825714Y-95954819D02*
X57825714Y-94954819D01*
X57825714Y-94954819D02*
X58063809Y-94954819D01*
X58063809Y-94954819D02*
X58206666Y-95002438D01*
X58206666Y-95002438D02*
X58301904Y-95097676D01*
X58301904Y-95097676D02*
X58349523Y-95192914D01*
X58349523Y-95192914D02*
X58397142Y-95383390D01*
X58397142Y-95383390D02*
X58397142Y-95526247D01*
X58397142Y-95526247D02*
X58349523Y-95716723D01*
X58349523Y-95716723D02*
X58301904Y-95811961D01*
X58301904Y-95811961D02*
X58206666Y-95907200D01*
X58206666Y-95907200D02*
X58063809Y-95954819D01*
X58063809Y-95954819D02*
X57825714Y-95954819D01*
X58778095Y-95050057D02*
X58825714Y-95002438D01*
X58825714Y-95002438D02*
X58920952Y-94954819D01*
X58920952Y-94954819D02*
X59159047Y-94954819D01*
X59159047Y-94954819D02*
X59254285Y-95002438D01*
X59254285Y-95002438D02*
X59301904Y-95050057D01*
X59301904Y-95050057D02*
X59349523Y-95145295D01*
X59349523Y-95145295D02*
X59349523Y-95240533D01*
X59349523Y-95240533D02*
X59301904Y-95383390D01*
X59301904Y-95383390D02*
X58730476Y-95954819D01*
X58730476Y-95954819D02*
X59349523Y-95954819D01*
X59920952Y-95383390D02*
X59825714Y-95335771D01*
X59825714Y-95335771D02*
X59778095Y-95288152D01*
X59778095Y-95288152D02*
X59730476Y-95192914D01*
X59730476Y-95192914D02*
X59730476Y-95145295D01*
X59730476Y-95145295D02*
X59778095Y-95050057D01*
X59778095Y-95050057D02*
X59825714Y-95002438D01*
X59825714Y-95002438D02*
X59920952Y-94954819D01*
X59920952Y-94954819D02*
X60111428Y-94954819D01*
X60111428Y-94954819D02*
X60206666Y-95002438D01*
X60206666Y-95002438D02*
X60254285Y-95050057D01*
X60254285Y-95050057D02*
X60301904Y-95145295D01*
X60301904Y-95145295D02*
X60301904Y-95192914D01*
X60301904Y-95192914D02*
X60254285Y-95288152D01*
X60254285Y-95288152D02*
X60206666Y-95335771D01*
X60206666Y-95335771D02*
X60111428Y-95383390D01*
X60111428Y-95383390D02*
X59920952Y-95383390D01*
X59920952Y-95383390D02*
X59825714Y-95431009D01*
X59825714Y-95431009D02*
X59778095Y-95478628D01*
X59778095Y-95478628D02*
X59730476Y-95573866D01*
X59730476Y-95573866D02*
X59730476Y-95764342D01*
X59730476Y-95764342D02*
X59778095Y-95859580D01*
X59778095Y-95859580D02*
X59825714Y-95907200D01*
X59825714Y-95907200D02*
X59920952Y-95954819D01*
X59920952Y-95954819D02*
X60111428Y-95954819D01*
X60111428Y-95954819D02*
X60206666Y-95907200D01*
X60206666Y-95907200D02*
X60254285Y-95859580D01*
X60254285Y-95859580D02*
X60301904Y-95764342D01*
X60301904Y-95764342D02*
X60301904Y-95573866D01*
X60301904Y-95573866D02*
X60254285Y-95478628D01*
X60254285Y-95478628D02*
X60206666Y-95431009D01*
X60206666Y-95431009D02*
X60111428Y-95383390D01*
X118279580Y-132866666D02*
X118327200Y-132914285D01*
X118327200Y-132914285D02*
X118374819Y-133057142D01*
X118374819Y-133057142D02*
X118374819Y-133152380D01*
X118374819Y-133152380D02*
X118327200Y-133295237D01*
X118327200Y-133295237D02*
X118231961Y-133390475D01*
X118231961Y-133390475D02*
X118136723Y-133438094D01*
X118136723Y-133438094D02*
X117946247Y-133485713D01*
X117946247Y-133485713D02*
X117803390Y-133485713D01*
X117803390Y-133485713D02*
X117612914Y-133438094D01*
X117612914Y-133438094D02*
X117517676Y-133390475D01*
X117517676Y-133390475D02*
X117422438Y-133295237D01*
X117422438Y-133295237D02*
X117374819Y-133152380D01*
X117374819Y-133152380D02*
X117374819Y-133057142D01*
X117374819Y-133057142D02*
X117422438Y-132914285D01*
X117422438Y-132914285D02*
X117470057Y-132866666D01*
X117708152Y-132009523D02*
X118374819Y-132009523D01*
X117327200Y-132247618D02*
X118041485Y-132485713D01*
X118041485Y-132485713D02*
X118041485Y-131866666D01*
X141707142Y-125679580D02*
X141659523Y-125727200D01*
X141659523Y-125727200D02*
X141516666Y-125774819D01*
X141516666Y-125774819D02*
X141421428Y-125774819D01*
X141421428Y-125774819D02*
X141278571Y-125727200D01*
X141278571Y-125727200D02*
X141183333Y-125631961D01*
X141183333Y-125631961D02*
X141135714Y-125536723D01*
X141135714Y-125536723D02*
X141088095Y-125346247D01*
X141088095Y-125346247D02*
X141088095Y-125203390D01*
X141088095Y-125203390D02*
X141135714Y-125012914D01*
X141135714Y-125012914D02*
X141183333Y-124917676D01*
X141183333Y-124917676D02*
X141278571Y-124822438D01*
X141278571Y-124822438D02*
X141421428Y-124774819D01*
X141421428Y-124774819D02*
X141516666Y-124774819D01*
X141516666Y-124774819D02*
X141659523Y-124822438D01*
X141659523Y-124822438D02*
X141707142Y-124870057D01*
X142564285Y-125108152D02*
X142564285Y-125774819D01*
X142326190Y-124727200D02*
X142088095Y-125441485D01*
X142088095Y-125441485D02*
X142707142Y-125441485D01*
X142992857Y-124774819D02*
X143611904Y-124774819D01*
X143611904Y-124774819D02*
X143278571Y-125155771D01*
X143278571Y-125155771D02*
X143421428Y-125155771D01*
X143421428Y-125155771D02*
X143516666Y-125203390D01*
X143516666Y-125203390D02*
X143564285Y-125251009D01*
X143564285Y-125251009D02*
X143611904Y-125346247D01*
X143611904Y-125346247D02*
X143611904Y-125584342D01*
X143611904Y-125584342D02*
X143564285Y-125679580D01*
X143564285Y-125679580D02*
X143516666Y-125727200D01*
X143516666Y-125727200D02*
X143421428Y-125774819D01*
X143421428Y-125774819D02*
X143135714Y-125774819D01*
X143135714Y-125774819D02*
X143040476Y-125727200D01*
X143040476Y-125727200D02*
X142992857Y-125679580D01*
X140560641Y-114060298D02*
X140560641Y-114871314D01*
X140560641Y-114871314D02*
X140608347Y-114966728D01*
X140608347Y-114966728D02*
X140656054Y-115014435D01*
X140656054Y-115014435D02*
X140751468Y-115062141D01*
X140751468Y-115062141D02*
X140942295Y-115062141D01*
X140942295Y-115062141D02*
X141037709Y-115014435D01*
X141037709Y-115014435D02*
X141085415Y-114966728D01*
X141085415Y-114966728D02*
X141133122Y-114871314D01*
X141133122Y-114871314D02*
X141133122Y-114060298D01*
X142134965Y-115062141D02*
X141562484Y-115062141D01*
X141848725Y-115062141D02*
X141848725Y-114060298D01*
X141848725Y-114060298D02*
X141753311Y-114203419D01*
X141753311Y-114203419D02*
X141657897Y-114298832D01*
X141657897Y-114298832D02*
X141562484Y-114346539D01*
X93366667Y-130857200D02*
X93509524Y-130904819D01*
X93509524Y-130904819D02*
X93747619Y-130904819D01*
X93747619Y-130904819D02*
X93842857Y-130857200D01*
X93842857Y-130857200D02*
X93890476Y-130809580D01*
X93890476Y-130809580D02*
X93938095Y-130714342D01*
X93938095Y-130714342D02*
X93938095Y-130619104D01*
X93938095Y-130619104D02*
X93890476Y-130523866D01*
X93890476Y-130523866D02*
X93842857Y-130476247D01*
X93842857Y-130476247D02*
X93747619Y-130428628D01*
X93747619Y-130428628D02*
X93557143Y-130381009D01*
X93557143Y-130381009D02*
X93461905Y-130333390D01*
X93461905Y-130333390D02*
X93414286Y-130285771D01*
X93414286Y-130285771D02*
X93366667Y-130190533D01*
X93366667Y-130190533D02*
X93366667Y-130095295D01*
X93366667Y-130095295D02*
X93414286Y-130000057D01*
X93414286Y-130000057D02*
X93461905Y-129952438D01*
X93461905Y-129952438D02*
X93557143Y-129904819D01*
X93557143Y-129904819D02*
X93795238Y-129904819D01*
X93795238Y-129904819D02*
X93938095Y-129952438D01*
X94271429Y-129904819D02*
X94509524Y-130904819D01*
X94509524Y-130904819D02*
X94700000Y-130190533D01*
X94700000Y-130190533D02*
X94890476Y-130904819D01*
X94890476Y-130904819D02*
X95128572Y-129904819D01*
X95461905Y-130000057D02*
X95509524Y-129952438D01*
X95509524Y-129952438D02*
X95604762Y-129904819D01*
X95604762Y-129904819D02*
X95842857Y-129904819D01*
X95842857Y-129904819D02*
X95938095Y-129952438D01*
X95938095Y-129952438D02*
X95985714Y-130000057D01*
X95985714Y-130000057D02*
X96033333Y-130095295D01*
X96033333Y-130095295D02*
X96033333Y-130190533D01*
X96033333Y-130190533D02*
X95985714Y-130333390D01*
X95985714Y-130333390D02*
X95414286Y-130904819D01*
X95414286Y-130904819D02*
X96033333Y-130904819D01*
X111884819Y-128692857D02*
X111408628Y-129026190D01*
X111884819Y-129264285D02*
X110884819Y-129264285D01*
X110884819Y-129264285D02*
X110884819Y-128883333D01*
X110884819Y-128883333D02*
X110932438Y-128788095D01*
X110932438Y-128788095D02*
X110980057Y-128740476D01*
X110980057Y-128740476D02*
X111075295Y-128692857D01*
X111075295Y-128692857D02*
X111218152Y-128692857D01*
X111218152Y-128692857D02*
X111313390Y-128740476D01*
X111313390Y-128740476D02*
X111361009Y-128788095D01*
X111361009Y-128788095D02*
X111408628Y-128883333D01*
X111408628Y-128883333D02*
X111408628Y-129264285D01*
X110980057Y-128311904D02*
X110932438Y-128264285D01*
X110932438Y-128264285D02*
X110884819Y-128169047D01*
X110884819Y-128169047D02*
X110884819Y-127930952D01*
X110884819Y-127930952D02*
X110932438Y-127835714D01*
X110932438Y-127835714D02*
X110980057Y-127788095D01*
X110980057Y-127788095D02*
X111075295Y-127740476D01*
X111075295Y-127740476D02*
X111170533Y-127740476D01*
X111170533Y-127740476D02*
X111313390Y-127788095D01*
X111313390Y-127788095D02*
X111884819Y-128359523D01*
X111884819Y-128359523D02*
X111884819Y-127740476D01*
X111313390Y-127169047D02*
X111265771Y-127264285D01*
X111265771Y-127264285D02*
X111218152Y-127311904D01*
X111218152Y-127311904D02*
X111122914Y-127359523D01*
X111122914Y-127359523D02*
X111075295Y-127359523D01*
X111075295Y-127359523D02*
X110980057Y-127311904D01*
X110980057Y-127311904D02*
X110932438Y-127264285D01*
X110932438Y-127264285D02*
X110884819Y-127169047D01*
X110884819Y-127169047D02*
X110884819Y-126978571D01*
X110884819Y-126978571D02*
X110932438Y-126883333D01*
X110932438Y-126883333D02*
X110980057Y-126835714D01*
X110980057Y-126835714D02*
X111075295Y-126788095D01*
X111075295Y-126788095D02*
X111122914Y-126788095D01*
X111122914Y-126788095D02*
X111218152Y-126835714D01*
X111218152Y-126835714D02*
X111265771Y-126883333D01*
X111265771Y-126883333D02*
X111313390Y-126978571D01*
X111313390Y-126978571D02*
X111313390Y-127169047D01*
X111313390Y-127169047D02*
X111361009Y-127264285D01*
X111361009Y-127264285D02*
X111408628Y-127311904D01*
X111408628Y-127311904D02*
X111503866Y-127359523D01*
X111503866Y-127359523D02*
X111694342Y-127359523D01*
X111694342Y-127359523D02*
X111789580Y-127311904D01*
X111789580Y-127311904D02*
X111837200Y-127264285D01*
X111837200Y-127264285D02*
X111884819Y-127169047D01*
X111884819Y-127169047D02*
X111884819Y-126978571D01*
X111884819Y-126978571D02*
X111837200Y-126883333D01*
X111837200Y-126883333D02*
X111789580Y-126835714D01*
X111789580Y-126835714D02*
X111694342Y-126788095D01*
X111694342Y-126788095D02*
X111503866Y-126788095D01*
X111503866Y-126788095D02*
X111408628Y-126835714D01*
X111408628Y-126835714D02*
X111361009Y-126883333D01*
X111361009Y-126883333D02*
X111313390Y-126978571D01*
X116384819Y-128192857D02*
X115908628Y-128526190D01*
X116384819Y-128764285D02*
X115384819Y-128764285D01*
X115384819Y-128764285D02*
X115384819Y-128383333D01*
X115384819Y-128383333D02*
X115432438Y-128288095D01*
X115432438Y-128288095D02*
X115480057Y-128240476D01*
X115480057Y-128240476D02*
X115575295Y-128192857D01*
X115575295Y-128192857D02*
X115718152Y-128192857D01*
X115718152Y-128192857D02*
X115813390Y-128240476D01*
X115813390Y-128240476D02*
X115861009Y-128288095D01*
X115861009Y-128288095D02*
X115908628Y-128383333D01*
X115908628Y-128383333D02*
X115908628Y-128764285D01*
X115480057Y-127811904D02*
X115432438Y-127764285D01*
X115432438Y-127764285D02*
X115384819Y-127669047D01*
X115384819Y-127669047D02*
X115384819Y-127430952D01*
X115384819Y-127430952D02*
X115432438Y-127335714D01*
X115432438Y-127335714D02*
X115480057Y-127288095D01*
X115480057Y-127288095D02*
X115575295Y-127240476D01*
X115575295Y-127240476D02*
X115670533Y-127240476D01*
X115670533Y-127240476D02*
X115813390Y-127288095D01*
X115813390Y-127288095D02*
X116384819Y-127859523D01*
X116384819Y-127859523D02*
X116384819Y-127240476D01*
X116384819Y-126764285D02*
X116384819Y-126573809D01*
X116384819Y-126573809D02*
X116337200Y-126478571D01*
X116337200Y-126478571D02*
X116289580Y-126430952D01*
X116289580Y-126430952D02*
X116146723Y-126335714D01*
X116146723Y-126335714D02*
X115956247Y-126288095D01*
X115956247Y-126288095D02*
X115575295Y-126288095D01*
X115575295Y-126288095D02*
X115480057Y-126335714D01*
X115480057Y-126335714D02*
X115432438Y-126383333D01*
X115432438Y-126383333D02*
X115384819Y-126478571D01*
X115384819Y-126478571D02*
X115384819Y-126669047D01*
X115384819Y-126669047D02*
X115432438Y-126764285D01*
X115432438Y-126764285D02*
X115480057Y-126811904D01*
X115480057Y-126811904D02*
X115575295Y-126859523D01*
X115575295Y-126859523D02*
X115813390Y-126859523D01*
X115813390Y-126859523D02*
X115908628Y-126811904D01*
X115908628Y-126811904D02*
X115956247Y-126764285D01*
X115956247Y-126764285D02*
X116003866Y-126669047D01*
X116003866Y-126669047D02*
X116003866Y-126478571D01*
X116003866Y-126478571D02*
X115956247Y-126383333D01*
X115956247Y-126383333D02*
X115908628Y-126335714D01*
X115908628Y-126335714D02*
X115813390Y-126288095D01*
X158257142Y-115679580D02*
X158209523Y-115727200D01*
X158209523Y-115727200D02*
X158066666Y-115774819D01*
X158066666Y-115774819D02*
X157971428Y-115774819D01*
X157971428Y-115774819D02*
X157828571Y-115727200D01*
X157828571Y-115727200D02*
X157733333Y-115631961D01*
X157733333Y-115631961D02*
X157685714Y-115536723D01*
X157685714Y-115536723D02*
X157638095Y-115346247D01*
X157638095Y-115346247D02*
X157638095Y-115203390D01*
X157638095Y-115203390D02*
X157685714Y-115012914D01*
X157685714Y-115012914D02*
X157733333Y-114917676D01*
X157733333Y-114917676D02*
X157828571Y-114822438D01*
X157828571Y-114822438D02*
X157971428Y-114774819D01*
X157971428Y-114774819D02*
X158066666Y-114774819D01*
X158066666Y-114774819D02*
X158209523Y-114822438D01*
X158209523Y-114822438D02*
X158257142Y-114870057D01*
X158590476Y-114774819D02*
X159209523Y-114774819D01*
X159209523Y-114774819D02*
X158876190Y-115155771D01*
X158876190Y-115155771D02*
X159019047Y-115155771D01*
X159019047Y-115155771D02*
X159114285Y-115203390D01*
X159114285Y-115203390D02*
X159161904Y-115251009D01*
X159161904Y-115251009D02*
X159209523Y-115346247D01*
X159209523Y-115346247D02*
X159209523Y-115584342D01*
X159209523Y-115584342D02*
X159161904Y-115679580D01*
X159161904Y-115679580D02*
X159114285Y-115727200D01*
X159114285Y-115727200D02*
X159019047Y-115774819D01*
X159019047Y-115774819D02*
X158733333Y-115774819D01*
X158733333Y-115774819D02*
X158638095Y-115727200D01*
X158638095Y-115727200D02*
X158590476Y-115679580D01*
X159685714Y-115774819D02*
X159876190Y-115774819D01*
X159876190Y-115774819D02*
X159971428Y-115727200D01*
X159971428Y-115727200D02*
X160019047Y-115679580D01*
X160019047Y-115679580D02*
X160114285Y-115536723D01*
X160114285Y-115536723D02*
X160161904Y-115346247D01*
X160161904Y-115346247D02*
X160161904Y-114965295D01*
X160161904Y-114965295D02*
X160114285Y-114870057D01*
X160114285Y-114870057D02*
X160066666Y-114822438D01*
X160066666Y-114822438D02*
X159971428Y-114774819D01*
X159971428Y-114774819D02*
X159780952Y-114774819D01*
X159780952Y-114774819D02*
X159685714Y-114822438D01*
X159685714Y-114822438D02*
X159638095Y-114870057D01*
X159638095Y-114870057D02*
X159590476Y-114965295D01*
X159590476Y-114965295D02*
X159590476Y-115203390D01*
X159590476Y-115203390D02*
X159638095Y-115298628D01*
X159638095Y-115298628D02*
X159685714Y-115346247D01*
X159685714Y-115346247D02*
X159780952Y-115393866D01*
X159780952Y-115393866D02*
X159971428Y-115393866D01*
X159971428Y-115393866D02*
X160066666Y-115346247D01*
X160066666Y-115346247D02*
X160114285Y-115298628D01*
X160114285Y-115298628D02*
X160161904Y-115203390D01*
X74971401Y-80085342D02*
X74971401Y-80898206D01*
X74971401Y-80898206D02*
X75019217Y-80993837D01*
X75019217Y-80993837D02*
X75067032Y-81041653D01*
X75067032Y-81041653D02*
X75162663Y-81089468D01*
X75162663Y-81089468D02*
X75353925Y-81089468D01*
X75353925Y-81089468D02*
X75449556Y-81041653D01*
X75449556Y-81041653D02*
X75497372Y-80993837D01*
X75497372Y-80993837D02*
X75545187Y-80898206D01*
X75545187Y-80898206D02*
X75545187Y-80085342D01*
X75927712Y-80085342D02*
X76549314Y-80085342D01*
X76549314Y-80085342D02*
X76214605Y-80467866D01*
X76214605Y-80467866D02*
X76358052Y-80467866D01*
X76358052Y-80467866D02*
X76453683Y-80515682D01*
X76453683Y-80515682D02*
X76501498Y-80563497D01*
X76501498Y-80563497D02*
X76549314Y-80659128D01*
X76549314Y-80659128D02*
X76549314Y-80898206D01*
X76549314Y-80898206D02*
X76501498Y-80993837D01*
X76501498Y-80993837D02*
X76453683Y-81041653D01*
X76453683Y-81041653D02*
X76358052Y-81089468D01*
X76358052Y-81089468D02*
X76071159Y-81089468D01*
X76071159Y-81089468D02*
X75975528Y-81041653D01*
X75975528Y-81041653D02*
X75927712Y-80993837D01*
X132707142Y-126679580D02*
X132659523Y-126727200D01*
X132659523Y-126727200D02*
X132516666Y-126774819D01*
X132516666Y-126774819D02*
X132421428Y-126774819D01*
X132421428Y-126774819D02*
X132278571Y-126727200D01*
X132278571Y-126727200D02*
X132183333Y-126631961D01*
X132183333Y-126631961D02*
X132135714Y-126536723D01*
X132135714Y-126536723D02*
X132088095Y-126346247D01*
X132088095Y-126346247D02*
X132088095Y-126203390D01*
X132088095Y-126203390D02*
X132135714Y-126012914D01*
X132135714Y-126012914D02*
X132183333Y-125917676D01*
X132183333Y-125917676D02*
X132278571Y-125822438D01*
X132278571Y-125822438D02*
X132421428Y-125774819D01*
X132421428Y-125774819D02*
X132516666Y-125774819D01*
X132516666Y-125774819D02*
X132659523Y-125822438D01*
X132659523Y-125822438D02*
X132707142Y-125870057D01*
X133611904Y-125774819D02*
X133135714Y-125774819D01*
X133135714Y-125774819D02*
X133088095Y-126251009D01*
X133088095Y-126251009D02*
X133135714Y-126203390D01*
X133135714Y-126203390D02*
X133230952Y-126155771D01*
X133230952Y-126155771D02*
X133469047Y-126155771D01*
X133469047Y-126155771D02*
X133564285Y-126203390D01*
X133564285Y-126203390D02*
X133611904Y-126251009D01*
X133611904Y-126251009D02*
X133659523Y-126346247D01*
X133659523Y-126346247D02*
X133659523Y-126584342D01*
X133659523Y-126584342D02*
X133611904Y-126679580D01*
X133611904Y-126679580D02*
X133564285Y-126727200D01*
X133564285Y-126727200D02*
X133469047Y-126774819D01*
X133469047Y-126774819D02*
X133230952Y-126774819D01*
X133230952Y-126774819D02*
X133135714Y-126727200D01*
X133135714Y-126727200D02*
X133088095Y-126679580D01*
X134516666Y-126108152D02*
X134516666Y-126774819D01*
X134278571Y-125727200D02*
X134040476Y-126441485D01*
X134040476Y-126441485D02*
X134659523Y-126441485D01*
X132757142Y-130679580D02*
X132709523Y-130727200D01*
X132709523Y-130727200D02*
X132566666Y-130774819D01*
X132566666Y-130774819D02*
X132471428Y-130774819D01*
X132471428Y-130774819D02*
X132328571Y-130727200D01*
X132328571Y-130727200D02*
X132233333Y-130631961D01*
X132233333Y-130631961D02*
X132185714Y-130536723D01*
X132185714Y-130536723D02*
X132138095Y-130346247D01*
X132138095Y-130346247D02*
X132138095Y-130203390D01*
X132138095Y-130203390D02*
X132185714Y-130012914D01*
X132185714Y-130012914D02*
X132233333Y-129917676D01*
X132233333Y-129917676D02*
X132328571Y-129822438D01*
X132328571Y-129822438D02*
X132471428Y-129774819D01*
X132471428Y-129774819D02*
X132566666Y-129774819D01*
X132566666Y-129774819D02*
X132709523Y-129822438D01*
X132709523Y-129822438D02*
X132757142Y-129870057D01*
X133614285Y-130108152D02*
X133614285Y-130774819D01*
X133376190Y-129727200D02*
X133138095Y-130441485D01*
X133138095Y-130441485D02*
X133757142Y-130441485D01*
X134328571Y-129774819D02*
X134423809Y-129774819D01*
X134423809Y-129774819D02*
X134519047Y-129822438D01*
X134519047Y-129822438D02*
X134566666Y-129870057D01*
X134566666Y-129870057D02*
X134614285Y-129965295D01*
X134614285Y-129965295D02*
X134661904Y-130155771D01*
X134661904Y-130155771D02*
X134661904Y-130393866D01*
X134661904Y-130393866D02*
X134614285Y-130584342D01*
X134614285Y-130584342D02*
X134566666Y-130679580D01*
X134566666Y-130679580D02*
X134519047Y-130727200D01*
X134519047Y-130727200D02*
X134423809Y-130774819D01*
X134423809Y-130774819D02*
X134328571Y-130774819D01*
X134328571Y-130774819D02*
X134233333Y-130727200D01*
X134233333Y-130727200D02*
X134185714Y-130679580D01*
X134185714Y-130679580D02*
X134138095Y-130584342D01*
X134138095Y-130584342D02*
X134090476Y-130393866D01*
X134090476Y-130393866D02*
X134090476Y-130155771D01*
X134090476Y-130155771D02*
X134138095Y-129965295D01*
X134138095Y-129965295D02*
X134185714Y-129870057D01*
X134185714Y-129870057D02*
X134233333Y-129822438D01*
X134233333Y-129822438D02*
X134328571Y-129774819D01*
X95441905Y-114954819D02*
X95441905Y-115764342D01*
X95441905Y-115764342D02*
X95489524Y-115859580D01*
X95489524Y-115859580D02*
X95537143Y-115907200D01*
X95537143Y-115907200D02*
X95632381Y-115954819D01*
X95632381Y-115954819D02*
X95822857Y-115954819D01*
X95822857Y-115954819D02*
X95918095Y-115907200D01*
X95918095Y-115907200D02*
X95965714Y-115859580D01*
X95965714Y-115859580D02*
X96013333Y-115764342D01*
X96013333Y-115764342D02*
X96013333Y-114954819D01*
X97013333Y-115954819D02*
X96441905Y-115954819D01*
X96727619Y-115954819D02*
X96727619Y-114954819D01*
X96727619Y-114954819D02*
X96632381Y-115097676D01*
X96632381Y-115097676D02*
X96537143Y-115192914D01*
X96537143Y-115192914D02*
X96441905Y-115240533D01*
X97965714Y-115954819D02*
X97394286Y-115954819D01*
X97680000Y-115954819D02*
X97680000Y-114954819D01*
X97680000Y-114954819D02*
X97584762Y-115097676D01*
X97584762Y-115097676D02*
X97489524Y-115192914D01*
X97489524Y-115192914D02*
X97394286Y-115240533D01*
X141428628Y-110976190D02*
X141904819Y-110976190D01*
X140904819Y-111309523D02*
X141428628Y-110976190D01*
X141428628Y-110976190D02*
X140904819Y-110642857D01*
X141238152Y-109880952D02*
X141904819Y-109880952D01*
X140857200Y-110119047D02*
X141571485Y-110357142D01*
X141571485Y-110357142D02*
X141571485Y-109738095D01*
X130939580Y-114592857D02*
X130987200Y-114640476D01*
X130987200Y-114640476D02*
X131034819Y-114783333D01*
X131034819Y-114783333D02*
X131034819Y-114878571D01*
X131034819Y-114878571D02*
X130987200Y-115021428D01*
X130987200Y-115021428D02*
X130891961Y-115116666D01*
X130891961Y-115116666D02*
X130796723Y-115164285D01*
X130796723Y-115164285D02*
X130606247Y-115211904D01*
X130606247Y-115211904D02*
X130463390Y-115211904D01*
X130463390Y-115211904D02*
X130272914Y-115164285D01*
X130272914Y-115164285D02*
X130177676Y-115116666D01*
X130177676Y-115116666D02*
X130082438Y-115021428D01*
X130082438Y-115021428D02*
X130034819Y-114878571D01*
X130034819Y-114878571D02*
X130034819Y-114783333D01*
X130034819Y-114783333D02*
X130082438Y-114640476D01*
X130082438Y-114640476D02*
X130130057Y-114592857D01*
X130130057Y-114211904D02*
X130082438Y-114164285D01*
X130082438Y-114164285D02*
X130034819Y-114069047D01*
X130034819Y-114069047D02*
X130034819Y-113830952D01*
X130034819Y-113830952D02*
X130082438Y-113735714D01*
X130082438Y-113735714D02*
X130130057Y-113688095D01*
X130130057Y-113688095D02*
X130225295Y-113640476D01*
X130225295Y-113640476D02*
X130320533Y-113640476D01*
X130320533Y-113640476D02*
X130463390Y-113688095D01*
X130463390Y-113688095D02*
X131034819Y-114259523D01*
X131034819Y-114259523D02*
X131034819Y-113640476D01*
X130034819Y-112783333D02*
X130034819Y-112973809D01*
X130034819Y-112973809D02*
X130082438Y-113069047D01*
X130082438Y-113069047D02*
X130130057Y-113116666D01*
X130130057Y-113116666D02*
X130272914Y-113211904D01*
X130272914Y-113211904D02*
X130463390Y-113259523D01*
X130463390Y-113259523D02*
X130844342Y-113259523D01*
X130844342Y-113259523D02*
X130939580Y-113211904D01*
X130939580Y-113211904D02*
X130987200Y-113164285D01*
X130987200Y-113164285D02*
X131034819Y-113069047D01*
X131034819Y-113069047D02*
X131034819Y-112878571D01*
X131034819Y-112878571D02*
X130987200Y-112783333D01*
X130987200Y-112783333D02*
X130939580Y-112735714D01*
X130939580Y-112735714D02*
X130844342Y-112688095D01*
X130844342Y-112688095D02*
X130606247Y-112688095D01*
X130606247Y-112688095D02*
X130511009Y-112735714D01*
X130511009Y-112735714D02*
X130463390Y-112783333D01*
X130463390Y-112783333D02*
X130415771Y-112878571D01*
X130415771Y-112878571D02*
X130415771Y-113069047D01*
X130415771Y-113069047D02*
X130463390Y-113164285D01*
X130463390Y-113164285D02*
X130511009Y-113211904D01*
X130511009Y-113211904D02*
X130606247Y-113259523D01*
X134604819Y-79215357D02*
X134128628Y-79548690D01*
X134604819Y-79786785D02*
X133604819Y-79786785D01*
X133604819Y-79786785D02*
X133604819Y-79405833D01*
X133604819Y-79405833D02*
X133652438Y-79310595D01*
X133652438Y-79310595D02*
X133700057Y-79262976D01*
X133700057Y-79262976D02*
X133795295Y-79215357D01*
X133795295Y-79215357D02*
X133938152Y-79215357D01*
X133938152Y-79215357D02*
X134033390Y-79262976D01*
X134033390Y-79262976D02*
X134081009Y-79310595D01*
X134081009Y-79310595D02*
X134128628Y-79405833D01*
X134128628Y-79405833D02*
X134128628Y-79786785D01*
X133700057Y-78834404D02*
X133652438Y-78786785D01*
X133652438Y-78786785D02*
X133604819Y-78691547D01*
X133604819Y-78691547D02*
X133604819Y-78453452D01*
X133604819Y-78453452D02*
X133652438Y-78358214D01*
X133652438Y-78358214D02*
X133700057Y-78310595D01*
X133700057Y-78310595D02*
X133795295Y-78262976D01*
X133795295Y-78262976D02*
X133890533Y-78262976D01*
X133890533Y-78262976D02*
X134033390Y-78310595D01*
X134033390Y-78310595D02*
X134604819Y-78882023D01*
X134604819Y-78882023D02*
X134604819Y-78262976D01*
X133604819Y-77929642D02*
X133604819Y-77262976D01*
X133604819Y-77262976D02*
X134604819Y-77691547D01*
X136757142Y-124679580D02*
X136709523Y-124727200D01*
X136709523Y-124727200D02*
X136566666Y-124774819D01*
X136566666Y-124774819D02*
X136471428Y-124774819D01*
X136471428Y-124774819D02*
X136328571Y-124727200D01*
X136328571Y-124727200D02*
X136233333Y-124631961D01*
X136233333Y-124631961D02*
X136185714Y-124536723D01*
X136185714Y-124536723D02*
X136138095Y-124346247D01*
X136138095Y-124346247D02*
X136138095Y-124203390D01*
X136138095Y-124203390D02*
X136185714Y-124012914D01*
X136185714Y-124012914D02*
X136233333Y-123917676D01*
X136233333Y-123917676D02*
X136328571Y-123822438D01*
X136328571Y-123822438D02*
X136471428Y-123774819D01*
X136471428Y-123774819D02*
X136566666Y-123774819D01*
X136566666Y-123774819D02*
X136709523Y-123822438D01*
X136709523Y-123822438D02*
X136757142Y-123870057D01*
X137614285Y-124108152D02*
X137614285Y-124774819D01*
X137376190Y-123727200D02*
X137138095Y-124441485D01*
X137138095Y-124441485D02*
X137757142Y-124441485D01*
X138280952Y-124203390D02*
X138185714Y-124155771D01*
X138185714Y-124155771D02*
X138138095Y-124108152D01*
X138138095Y-124108152D02*
X138090476Y-124012914D01*
X138090476Y-124012914D02*
X138090476Y-123965295D01*
X138090476Y-123965295D02*
X138138095Y-123870057D01*
X138138095Y-123870057D02*
X138185714Y-123822438D01*
X138185714Y-123822438D02*
X138280952Y-123774819D01*
X138280952Y-123774819D02*
X138471428Y-123774819D01*
X138471428Y-123774819D02*
X138566666Y-123822438D01*
X138566666Y-123822438D02*
X138614285Y-123870057D01*
X138614285Y-123870057D02*
X138661904Y-123965295D01*
X138661904Y-123965295D02*
X138661904Y-124012914D01*
X138661904Y-124012914D02*
X138614285Y-124108152D01*
X138614285Y-124108152D02*
X138566666Y-124155771D01*
X138566666Y-124155771D02*
X138471428Y-124203390D01*
X138471428Y-124203390D02*
X138280952Y-124203390D01*
X138280952Y-124203390D02*
X138185714Y-124251009D01*
X138185714Y-124251009D02*
X138138095Y-124298628D01*
X138138095Y-124298628D02*
X138090476Y-124393866D01*
X138090476Y-124393866D02*
X138090476Y-124584342D01*
X138090476Y-124584342D02*
X138138095Y-124679580D01*
X138138095Y-124679580D02*
X138185714Y-124727200D01*
X138185714Y-124727200D02*
X138280952Y-124774819D01*
X138280952Y-124774819D02*
X138471428Y-124774819D01*
X138471428Y-124774819D02*
X138566666Y-124727200D01*
X138566666Y-124727200D02*
X138614285Y-124679580D01*
X138614285Y-124679580D02*
X138661904Y-124584342D01*
X138661904Y-124584342D02*
X138661904Y-124393866D01*
X138661904Y-124393866D02*
X138614285Y-124298628D01*
X138614285Y-124298628D02*
X138566666Y-124251009D01*
X138566666Y-124251009D02*
X138471428Y-124203390D01*
X113184819Y-102192857D02*
X112708628Y-102526190D01*
X113184819Y-102764285D02*
X112184819Y-102764285D01*
X112184819Y-102764285D02*
X112184819Y-102383333D01*
X112184819Y-102383333D02*
X112232438Y-102288095D01*
X112232438Y-102288095D02*
X112280057Y-102240476D01*
X112280057Y-102240476D02*
X112375295Y-102192857D01*
X112375295Y-102192857D02*
X112518152Y-102192857D01*
X112518152Y-102192857D02*
X112613390Y-102240476D01*
X112613390Y-102240476D02*
X112661009Y-102288095D01*
X112661009Y-102288095D02*
X112708628Y-102383333D01*
X112708628Y-102383333D02*
X112708628Y-102764285D01*
X112184819Y-101859523D02*
X112184819Y-101240476D01*
X112184819Y-101240476D02*
X112565771Y-101573809D01*
X112565771Y-101573809D02*
X112565771Y-101430952D01*
X112565771Y-101430952D02*
X112613390Y-101335714D01*
X112613390Y-101335714D02*
X112661009Y-101288095D01*
X112661009Y-101288095D02*
X112756247Y-101240476D01*
X112756247Y-101240476D02*
X112994342Y-101240476D01*
X112994342Y-101240476D02*
X113089580Y-101288095D01*
X113089580Y-101288095D02*
X113137200Y-101335714D01*
X113137200Y-101335714D02*
X113184819Y-101430952D01*
X113184819Y-101430952D02*
X113184819Y-101716666D01*
X113184819Y-101716666D02*
X113137200Y-101811904D01*
X113137200Y-101811904D02*
X113089580Y-101859523D01*
X112184819Y-100907142D02*
X112184819Y-100288095D01*
X112184819Y-100288095D02*
X112565771Y-100621428D01*
X112565771Y-100621428D02*
X112565771Y-100478571D01*
X112565771Y-100478571D02*
X112613390Y-100383333D01*
X112613390Y-100383333D02*
X112661009Y-100335714D01*
X112661009Y-100335714D02*
X112756247Y-100288095D01*
X112756247Y-100288095D02*
X112994342Y-100288095D01*
X112994342Y-100288095D02*
X113089580Y-100335714D01*
X113089580Y-100335714D02*
X113137200Y-100383333D01*
X113137200Y-100383333D02*
X113184819Y-100478571D01*
X113184819Y-100478571D02*
X113184819Y-100764285D01*
X113184819Y-100764285D02*
X113137200Y-100859523D01*
X113137200Y-100859523D02*
X113089580Y-100907142D01*
X118184819Y-102605357D02*
X117708628Y-102938690D01*
X118184819Y-103176785D02*
X117184819Y-103176785D01*
X117184819Y-103176785D02*
X117184819Y-102795833D01*
X117184819Y-102795833D02*
X117232438Y-102700595D01*
X117232438Y-102700595D02*
X117280057Y-102652976D01*
X117280057Y-102652976D02*
X117375295Y-102605357D01*
X117375295Y-102605357D02*
X117518152Y-102605357D01*
X117518152Y-102605357D02*
X117613390Y-102652976D01*
X117613390Y-102652976D02*
X117661009Y-102700595D01*
X117661009Y-102700595D02*
X117708628Y-102795833D01*
X117708628Y-102795833D02*
X117708628Y-103176785D01*
X117184819Y-102272023D02*
X117184819Y-101652976D01*
X117184819Y-101652976D02*
X117565771Y-101986309D01*
X117565771Y-101986309D02*
X117565771Y-101843452D01*
X117565771Y-101843452D02*
X117613390Y-101748214D01*
X117613390Y-101748214D02*
X117661009Y-101700595D01*
X117661009Y-101700595D02*
X117756247Y-101652976D01*
X117756247Y-101652976D02*
X117994342Y-101652976D01*
X117994342Y-101652976D02*
X118089580Y-101700595D01*
X118089580Y-101700595D02*
X118137200Y-101748214D01*
X118137200Y-101748214D02*
X118184819Y-101843452D01*
X118184819Y-101843452D02*
X118184819Y-102129166D01*
X118184819Y-102129166D02*
X118137200Y-102224404D01*
X118137200Y-102224404D02*
X118089580Y-102272023D01*
X117280057Y-101272023D02*
X117232438Y-101224404D01*
X117232438Y-101224404D02*
X117184819Y-101129166D01*
X117184819Y-101129166D02*
X117184819Y-100891071D01*
X117184819Y-100891071D02*
X117232438Y-100795833D01*
X117232438Y-100795833D02*
X117280057Y-100748214D01*
X117280057Y-100748214D02*
X117375295Y-100700595D01*
X117375295Y-100700595D02*
X117470533Y-100700595D01*
X117470533Y-100700595D02*
X117613390Y-100748214D01*
X117613390Y-100748214D02*
X118184819Y-101319642D01*
X118184819Y-101319642D02*
X118184819Y-100700595D01*
X120884819Y-124701785D02*
X119884819Y-124701785D01*
X119884819Y-124701785D02*
X119884819Y-124463690D01*
X119884819Y-124463690D02*
X119932438Y-124320833D01*
X119932438Y-124320833D02*
X120027676Y-124225595D01*
X120027676Y-124225595D02*
X120122914Y-124177976D01*
X120122914Y-124177976D02*
X120313390Y-124130357D01*
X120313390Y-124130357D02*
X120456247Y-124130357D01*
X120456247Y-124130357D02*
X120646723Y-124177976D01*
X120646723Y-124177976D02*
X120741961Y-124225595D01*
X120741961Y-124225595D02*
X120837200Y-124320833D01*
X120837200Y-124320833D02*
X120884819Y-124463690D01*
X120884819Y-124463690D02*
X120884819Y-124701785D01*
X120884819Y-123177976D02*
X120884819Y-123749404D01*
X120884819Y-123463690D02*
X119884819Y-123463690D01*
X119884819Y-123463690D02*
X120027676Y-123558928D01*
X120027676Y-123558928D02*
X120122914Y-123654166D01*
X120122914Y-123654166D02*
X120170533Y-123749404D01*
X119884819Y-122844642D02*
X119884819Y-122177976D01*
X119884819Y-122177976D02*
X120884819Y-122606547D01*
X106504819Y-79642857D02*
X106028628Y-79976190D01*
X106504819Y-80214285D02*
X105504819Y-80214285D01*
X105504819Y-80214285D02*
X105504819Y-79833333D01*
X105504819Y-79833333D02*
X105552438Y-79738095D01*
X105552438Y-79738095D02*
X105600057Y-79690476D01*
X105600057Y-79690476D02*
X105695295Y-79642857D01*
X105695295Y-79642857D02*
X105838152Y-79642857D01*
X105838152Y-79642857D02*
X105933390Y-79690476D01*
X105933390Y-79690476D02*
X105981009Y-79738095D01*
X105981009Y-79738095D02*
X106028628Y-79833333D01*
X106028628Y-79833333D02*
X106028628Y-80214285D01*
X105600057Y-79261904D02*
X105552438Y-79214285D01*
X105552438Y-79214285D02*
X105504819Y-79119047D01*
X105504819Y-79119047D02*
X105504819Y-78880952D01*
X105504819Y-78880952D02*
X105552438Y-78785714D01*
X105552438Y-78785714D02*
X105600057Y-78738095D01*
X105600057Y-78738095D02*
X105695295Y-78690476D01*
X105695295Y-78690476D02*
X105790533Y-78690476D01*
X105790533Y-78690476D02*
X105933390Y-78738095D01*
X105933390Y-78738095D02*
X106504819Y-79309523D01*
X106504819Y-79309523D02*
X106504819Y-78690476D01*
X105504819Y-77833333D02*
X105504819Y-78023809D01*
X105504819Y-78023809D02*
X105552438Y-78119047D01*
X105552438Y-78119047D02*
X105600057Y-78166666D01*
X105600057Y-78166666D02*
X105742914Y-78261904D01*
X105742914Y-78261904D02*
X105933390Y-78309523D01*
X105933390Y-78309523D02*
X106314342Y-78309523D01*
X106314342Y-78309523D02*
X106409580Y-78261904D01*
X106409580Y-78261904D02*
X106457200Y-78214285D01*
X106457200Y-78214285D02*
X106504819Y-78119047D01*
X106504819Y-78119047D02*
X106504819Y-77928571D01*
X106504819Y-77928571D02*
X106457200Y-77833333D01*
X106457200Y-77833333D02*
X106409580Y-77785714D01*
X106409580Y-77785714D02*
X106314342Y-77738095D01*
X106314342Y-77738095D02*
X106076247Y-77738095D01*
X106076247Y-77738095D02*
X105981009Y-77785714D01*
X105981009Y-77785714D02*
X105933390Y-77833333D01*
X105933390Y-77833333D02*
X105885771Y-77928571D01*
X105885771Y-77928571D02*
X105885771Y-78119047D01*
X105885771Y-78119047D02*
X105933390Y-78214285D01*
X105933390Y-78214285D02*
X105981009Y-78261904D01*
X105981009Y-78261904D02*
X106076247Y-78309523D01*
X163733333Y-109904819D02*
X163257143Y-109904819D01*
X163257143Y-109904819D02*
X163257143Y-108904819D01*
X164590476Y-109904819D02*
X164019048Y-109904819D01*
X164304762Y-109904819D02*
X164304762Y-108904819D01*
X164304762Y-108904819D02*
X164209524Y-109047676D01*
X164209524Y-109047676D02*
X164114286Y-109142914D01*
X164114286Y-109142914D02*
X164019048Y-109190533D01*
X79936666Y-129414819D02*
X79936666Y-130129104D01*
X79936666Y-130129104D02*
X79889047Y-130271961D01*
X79889047Y-130271961D02*
X79793809Y-130367200D01*
X79793809Y-130367200D02*
X79650952Y-130414819D01*
X79650952Y-130414819D02*
X79555714Y-130414819D01*
X80841428Y-129414819D02*
X80650952Y-129414819D01*
X80650952Y-129414819D02*
X80555714Y-129462438D01*
X80555714Y-129462438D02*
X80508095Y-129510057D01*
X80508095Y-129510057D02*
X80412857Y-129652914D01*
X80412857Y-129652914D02*
X80365238Y-129843390D01*
X80365238Y-129843390D02*
X80365238Y-130224342D01*
X80365238Y-130224342D02*
X80412857Y-130319580D01*
X80412857Y-130319580D02*
X80460476Y-130367200D01*
X80460476Y-130367200D02*
X80555714Y-130414819D01*
X80555714Y-130414819D02*
X80746190Y-130414819D01*
X80746190Y-130414819D02*
X80841428Y-130367200D01*
X80841428Y-130367200D02*
X80889047Y-130319580D01*
X80889047Y-130319580D02*
X80936666Y-130224342D01*
X80936666Y-130224342D02*
X80936666Y-129986247D01*
X80936666Y-129986247D02*
X80889047Y-129891009D01*
X80889047Y-129891009D02*
X80841428Y-129843390D01*
X80841428Y-129843390D02*
X80746190Y-129795771D01*
X80746190Y-129795771D02*
X80555714Y-129795771D01*
X80555714Y-129795771D02*
X80460476Y-129843390D01*
X80460476Y-129843390D02*
X80412857Y-129891009D01*
X80412857Y-129891009D02*
X80365238Y-129986247D01*
X158504819Y-126055357D02*
X158028628Y-126388690D01*
X158504819Y-126626785D02*
X157504819Y-126626785D01*
X157504819Y-126626785D02*
X157504819Y-126245833D01*
X157504819Y-126245833D02*
X157552438Y-126150595D01*
X157552438Y-126150595D02*
X157600057Y-126102976D01*
X157600057Y-126102976D02*
X157695295Y-126055357D01*
X157695295Y-126055357D02*
X157838152Y-126055357D01*
X157838152Y-126055357D02*
X157933390Y-126102976D01*
X157933390Y-126102976D02*
X157981009Y-126150595D01*
X157981009Y-126150595D02*
X158028628Y-126245833D01*
X158028628Y-126245833D02*
X158028628Y-126626785D01*
X157504819Y-125722023D02*
X157504819Y-125102976D01*
X157504819Y-125102976D02*
X157885771Y-125436309D01*
X157885771Y-125436309D02*
X157885771Y-125293452D01*
X157885771Y-125293452D02*
X157933390Y-125198214D01*
X157933390Y-125198214D02*
X157981009Y-125150595D01*
X157981009Y-125150595D02*
X158076247Y-125102976D01*
X158076247Y-125102976D02*
X158314342Y-125102976D01*
X158314342Y-125102976D02*
X158409580Y-125150595D01*
X158409580Y-125150595D02*
X158457200Y-125198214D01*
X158457200Y-125198214D02*
X158504819Y-125293452D01*
X158504819Y-125293452D02*
X158504819Y-125579166D01*
X158504819Y-125579166D02*
X158457200Y-125674404D01*
X158457200Y-125674404D02*
X158409580Y-125722023D01*
X157838152Y-124245833D02*
X158504819Y-124245833D01*
X157457200Y-124483928D02*
X158171485Y-124722023D01*
X158171485Y-124722023D02*
X158171485Y-124102976D01*
X137757142Y-103679580D02*
X137709523Y-103727200D01*
X137709523Y-103727200D02*
X137566666Y-103774819D01*
X137566666Y-103774819D02*
X137471428Y-103774819D01*
X137471428Y-103774819D02*
X137328571Y-103727200D01*
X137328571Y-103727200D02*
X137233333Y-103631961D01*
X137233333Y-103631961D02*
X137185714Y-103536723D01*
X137185714Y-103536723D02*
X137138095Y-103346247D01*
X137138095Y-103346247D02*
X137138095Y-103203390D01*
X137138095Y-103203390D02*
X137185714Y-103012914D01*
X137185714Y-103012914D02*
X137233333Y-102917676D01*
X137233333Y-102917676D02*
X137328571Y-102822438D01*
X137328571Y-102822438D02*
X137471428Y-102774819D01*
X137471428Y-102774819D02*
X137566666Y-102774819D01*
X137566666Y-102774819D02*
X137709523Y-102822438D01*
X137709523Y-102822438D02*
X137757142Y-102870057D01*
X138090476Y-102774819D02*
X138709523Y-102774819D01*
X138709523Y-102774819D02*
X138376190Y-103155771D01*
X138376190Y-103155771D02*
X138519047Y-103155771D01*
X138519047Y-103155771D02*
X138614285Y-103203390D01*
X138614285Y-103203390D02*
X138661904Y-103251009D01*
X138661904Y-103251009D02*
X138709523Y-103346247D01*
X138709523Y-103346247D02*
X138709523Y-103584342D01*
X138709523Y-103584342D02*
X138661904Y-103679580D01*
X138661904Y-103679580D02*
X138614285Y-103727200D01*
X138614285Y-103727200D02*
X138519047Y-103774819D01*
X138519047Y-103774819D02*
X138233333Y-103774819D01*
X138233333Y-103774819D02*
X138138095Y-103727200D01*
X138138095Y-103727200D02*
X138090476Y-103679580D01*
X139280952Y-103203390D02*
X139185714Y-103155771D01*
X139185714Y-103155771D02*
X139138095Y-103108152D01*
X139138095Y-103108152D02*
X139090476Y-103012914D01*
X139090476Y-103012914D02*
X139090476Y-102965295D01*
X139090476Y-102965295D02*
X139138095Y-102870057D01*
X139138095Y-102870057D02*
X139185714Y-102822438D01*
X139185714Y-102822438D02*
X139280952Y-102774819D01*
X139280952Y-102774819D02*
X139471428Y-102774819D01*
X139471428Y-102774819D02*
X139566666Y-102822438D01*
X139566666Y-102822438D02*
X139614285Y-102870057D01*
X139614285Y-102870057D02*
X139661904Y-102965295D01*
X139661904Y-102965295D02*
X139661904Y-103012914D01*
X139661904Y-103012914D02*
X139614285Y-103108152D01*
X139614285Y-103108152D02*
X139566666Y-103155771D01*
X139566666Y-103155771D02*
X139471428Y-103203390D01*
X139471428Y-103203390D02*
X139280952Y-103203390D01*
X139280952Y-103203390D02*
X139185714Y-103251009D01*
X139185714Y-103251009D02*
X139138095Y-103298628D01*
X139138095Y-103298628D02*
X139090476Y-103393866D01*
X139090476Y-103393866D02*
X139090476Y-103584342D01*
X139090476Y-103584342D02*
X139138095Y-103679580D01*
X139138095Y-103679580D02*
X139185714Y-103727200D01*
X139185714Y-103727200D02*
X139280952Y-103774819D01*
X139280952Y-103774819D02*
X139471428Y-103774819D01*
X139471428Y-103774819D02*
X139566666Y-103727200D01*
X139566666Y-103727200D02*
X139614285Y-103679580D01*
X139614285Y-103679580D02*
X139661904Y-103584342D01*
X139661904Y-103584342D02*
X139661904Y-103393866D01*
X139661904Y-103393866D02*
X139614285Y-103298628D01*
X139614285Y-103298628D02*
X139566666Y-103251009D01*
X139566666Y-103251009D02*
X139471428Y-103203390D01*
X146807142Y-130179580D02*
X146759523Y-130227200D01*
X146759523Y-130227200D02*
X146616666Y-130274819D01*
X146616666Y-130274819D02*
X146521428Y-130274819D01*
X146521428Y-130274819D02*
X146378571Y-130227200D01*
X146378571Y-130227200D02*
X146283333Y-130131961D01*
X146283333Y-130131961D02*
X146235714Y-130036723D01*
X146235714Y-130036723D02*
X146188095Y-129846247D01*
X146188095Y-129846247D02*
X146188095Y-129703390D01*
X146188095Y-129703390D02*
X146235714Y-129512914D01*
X146235714Y-129512914D02*
X146283333Y-129417676D01*
X146283333Y-129417676D02*
X146378571Y-129322438D01*
X146378571Y-129322438D02*
X146521428Y-129274819D01*
X146521428Y-129274819D02*
X146616666Y-129274819D01*
X146616666Y-129274819D02*
X146759523Y-129322438D01*
X146759523Y-129322438D02*
X146807142Y-129370057D01*
X147664285Y-129608152D02*
X147664285Y-130274819D01*
X147426190Y-129227200D02*
X147188095Y-129941485D01*
X147188095Y-129941485D02*
X147807142Y-129941485D01*
X148711904Y-130274819D02*
X148140476Y-130274819D01*
X148426190Y-130274819D02*
X148426190Y-129274819D01*
X148426190Y-129274819D02*
X148330952Y-129417676D01*
X148330952Y-129417676D02*
X148235714Y-129512914D01*
X148235714Y-129512914D02*
X148140476Y-129560533D01*
X156757142Y-110179580D02*
X156709523Y-110227200D01*
X156709523Y-110227200D02*
X156566666Y-110274819D01*
X156566666Y-110274819D02*
X156471428Y-110274819D01*
X156471428Y-110274819D02*
X156328571Y-110227200D01*
X156328571Y-110227200D02*
X156233333Y-110131961D01*
X156233333Y-110131961D02*
X156185714Y-110036723D01*
X156185714Y-110036723D02*
X156138095Y-109846247D01*
X156138095Y-109846247D02*
X156138095Y-109703390D01*
X156138095Y-109703390D02*
X156185714Y-109512914D01*
X156185714Y-109512914D02*
X156233333Y-109417676D01*
X156233333Y-109417676D02*
X156328571Y-109322438D01*
X156328571Y-109322438D02*
X156471428Y-109274819D01*
X156471428Y-109274819D02*
X156566666Y-109274819D01*
X156566666Y-109274819D02*
X156709523Y-109322438D01*
X156709523Y-109322438D02*
X156757142Y-109370057D01*
X157138095Y-109370057D02*
X157185714Y-109322438D01*
X157185714Y-109322438D02*
X157280952Y-109274819D01*
X157280952Y-109274819D02*
X157519047Y-109274819D01*
X157519047Y-109274819D02*
X157614285Y-109322438D01*
X157614285Y-109322438D02*
X157661904Y-109370057D01*
X157661904Y-109370057D02*
X157709523Y-109465295D01*
X157709523Y-109465295D02*
X157709523Y-109560533D01*
X157709523Y-109560533D02*
X157661904Y-109703390D01*
X157661904Y-109703390D02*
X157090476Y-110274819D01*
X157090476Y-110274819D02*
X157709523Y-110274819D01*
X158614285Y-109274819D02*
X158138095Y-109274819D01*
X158138095Y-109274819D02*
X158090476Y-109751009D01*
X158090476Y-109751009D02*
X158138095Y-109703390D01*
X158138095Y-109703390D02*
X158233333Y-109655771D01*
X158233333Y-109655771D02*
X158471428Y-109655771D01*
X158471428Y-109655771D02*
X158566666Y-109703390D01*
X158566666Y-109703390D02*
X158614285Y-109751009D01*
X158614285Y-109751009D02*
X158661904Y-109846247D01*
X158661904Y-109846247D02*
X158661904Y-110084342D01*
X158661904Y-110084342D02*
X158614285Y-110179580D01*
X158614285Y-110179580D02*
X158566666Y-110227200D01*
X158566666Y-110227200D02*
X158471428Y-110274819D01*
X158471428Y-110274819D02*
X158233333Y-110274819D01*
X158233333Y-110274819D02*
X158138095Y-110227200D01*
X158138095Y-110227200D02*
X158090476Y-110179580D01*
X148657142Y-110179580D02*
X148609523Y-110227200D01*
X148609523Y-110227200D02*
X148466666Y-110274819D01*
X148466666Y-110274819D02*
X148371428Y-110274819D01*
X148371428Y-110274819D02*
X148228571Y-110227200D01*
X148228571Y-110227200D02*
X148133333Y-110131961D01*
X148133333Y-110131961D02*
X148085714Y-110036723D01*
X148085714Y-110036723D02*
X148038095Y-109846247D01*
X148038095Y-109846247D02*
X148038095Y-109703390D01*
X148038095Y-109703390D02*
X148085714Y-109512914D01*
X148085714Y-109512914D02*
X148133333Y-109417676D01*
X148133333Y-109417676D02*
X148228571Y-109322438D01*
X148228571Y-109322438D02*
X148371428Y-109274819D01*
X148371428Y-109274819D02*
X148466666Y-109274819D01*
X148466666Y-109274819D02*
X148609523Y-109322438D01*
X148609523Y-109322438D02*
X148657142Y-109370057D01*
X149561904Y-109274819D02*
X149085714Y-109274819D01*
X149085714Y-109274819D02*
X149038095Y-109751009D01*
X149038095Y-109751009D02*
X149085714Y-109703390D01*
X149085714Y-109703390D02*
X149180952Y-109655771D01*
X149180952Y-109655771D02*
X149419047Y-109655771D01*
X149419047Y-109655771D02*
X149514285Y-109703390D01*
X149514285Y-109703390D02*
X149561904Y-109751009D01*
X149561904Y-109751009D02*
X149609523Y-109846247D01*
X149609523Y-109846247D02*
X149609523Y-110084342D01*
X149609523Y-110084342D02*
X149561904Y-110179580D01*
X149561904Y-110179580D02*
X149514285Y-110227200D01*
X149514285Y-110227200D02*
X149419047Y-110274819D01*
X149419047Y-110274819D02*
X149180952Y-110274819D01*
X149180952Y-110274819D02*
X149085714Y-110227200D01*
X149085714Y-110227200D02*
X149038095Y-110179580D01*
X149990476Y-109370057D02*
X150038095Y-109322438D01*
X150038095Y-109322438D02*
X150133333Y-109274819D01*
X150133333Y-109274819D02*
X150371428Y-109274819D01*
X150371428Y-109274819D02*
X150466666Y-109322438D01*
X150466666Y-109322438D02*
X150514285Y-109370057D01*
X150514285Y-109370057D02*
X150561904Y-109465295D01*
X150561904Y-109465295D02*
X150561904Y-109560533D01*
X150561904Y-109560533D02*
X150514285Y-109703390D01*
X150514285Y-109703390D02*
X149942857Y-110274819D01*
X149942857Y-110274819D02*
X150561904Y-110274819D01*
X99537142Y-129039580D02*
X99489523Y-129087200D01*
X99489523Y-129087200D02*
X99346666Y-129134819D01*
X99346666Y-129134819D02*
X99251428Y-129134819D01*
X99251428Y-129134819D02*
X99108571Y-129087200D01*
X99108571Y-129087200D02*
X99013333Y-128991961D01*
X99013333Y-128991961D02*
X98965714Y-128896723D01*
X98965714Y-128896723D02*
X98918095Y-128706247D01*
X98918095Y-128706247D02*
X98918095Y-128563390D01*
X98918095Y-128563390D02*
X98965714Y-128372914D01*
X98965714Y-128372914D02*
X99013333Y-128277676D01*
X99013333Y-128277676D02*
X99108571Y-128182438D01*
X99108571Y-128182438D02*
X99251428Y-128134819D01*
X99251428Y-128134819D02*
X99346666Y-128134819D01*
X99346666Y-128134819D02*
X99489523Y-128182438D01*
X99489523Y-128182438D02*
X99537142Y-128230057D01*
X100489523Y-129134819D02*
X99918095Y-129134819D01*
X100203809Y-129134819D02*
X100203809Y-128134819D01*
X100203809Y-128134819D02*
X100108571Y-128277676D01*
X100108571Y-128277676D02*
X100013333Y-128372914D01*
X100013333Y-128372914D02*
X99918095Y-128420533D01*
X101441904Y-129134819D02*
X100870476Y-129134819D01*
X101156190Y-129134819D02*
X101156190Y-128134819D01*
X101156190Y-128134819D02*
X101060952Y-128277676D01*
X101060952Y-128277676D02*
X100965714Y-128372914D01*
X100965714Y-128372914D02*
X100870476Y-128420533D01*
X135234951Y-88952602D02*
X135234951Y-89765466D01*
X135234951Y-89765466D02*
X135282767Y-89861097D01*
X135282767Y-89861097D02*
X135330582Y-89908913D01*
X135330582Y-89908913D02*
X135426213Y-89956728D01*
X135426213Y-89956728D02*
X135617475Y-89956728D01*
X135617475Y-89956728D02*
X135713106Y-89908913D01*
X135713106Y-89908913D02*
X135760922Y-89861097D01*
X135760922Y-89861097D02*
X135808737Y-89765466D01*
X135808737Y-89765466D02*
X135808737Y-88952602D01*
X136191262Y-88952602D02*
X136860679Y-88952602D01*
X136860679Y-88952602D02*
X136430340Y-89956728D01*
X132807142Y-110179580D02*
X132759523Y-110227200D01*
X132759523Y-110227200D02*
X132616666Y-110274819D01*
X132616666Y-110274819D02*
X132521428Y-110274819D01*
X132521428Y-110274819D02*
X132378571Y-110227200D01*
X132378571Y-110227200D02*
X132283333Y-110131961D01*
X132283333Y-110131961D02*
X132235714Y-110036723D01*
X132235714Y-110036723D02*
X132188095Y-109846247D01*
X132188095Y-109846247D02*
X132188095Y-109703390D01*
X132188095Y-109703390D02*
X132235714Y-109512914D01*
X132235714Y-109512914D02*
X132283333Y-109417676D01*
X132283333Y-109417676D02*
X132378571Y-109322438D01*
X132378571Y-109322438D02*
X132521428Y-109274819D01*
X132521428Y-109274819D02*
X132616666Y-109274819D01*
X132616666Y-109274819D02*
X132759523Y-109322438D01*
X132759523Y-109322438D02*
X132807142Y-109370057D01*
X133711904Y-109274819D02*
X133235714Y-109274819D01*
X133235714Y-109274819D02*
X133188095Y-109751009D01*
X133188095Y-109751009D02*
X133235714Y-109703390D01*
X133235714Y-109703390D02*
X133330952Y-109655771D01*
X133330952Y-109655771D02*
X133569047Y-109655771D01*
X133569047Y-109655771D02*
X133664285Y-109703390D01*
X133664285Y-109703390D02*
X133711904Y-109751009D01*
X133711904Y-109751009D02*
X133759523Y-109846247D01*
X133759523Y-109846247D02*
X133759523Y-110084342D01*
X133759523Y-110084342D02*
X133711904Y-110179580D01*
X133711904Y-110179580D02*
X133664285Y-110227200D01*
X133664285Y-110227200D02*
X133569047Y-110274819D01*
X133569047Y-110274819D02*
X133330952Y-110274819D01*
X133330952Y-110274819D02*
X133235714Y-110227200D01*
X133235714Y-110227200D02*
X133188095Y-110179580D01*
X134092857Y-109274819D02*
X134711904Y-109274819D01*
X134711904Y-109274819D02*
X134378571Y-109655771D01*
X134378571Y-109655771D02*
X134521428Y-109655771D01*
X134521428Y-109655771D02*
X134616666Y-109703390D01*
X134616666Y-109703390D02*
X134664285Y-109751009D01*
X134664285Y-109751009D02*
X134711904Y-109846247D01*
X134711904Y-109846247D02*
X134711904Y-110084342D01*
X134711904Y-110084342D02*
X134664285Y-110179580D01*
X134664285Y-110179580D02*
X134616666Y-110227200D01*
X134616666Y-110227200D02*
X134521428Y-110274819D01*
X134521428Y-110274819D02*
X134235714Y-110274819D01*
X134235714Y-110274819D02*
X134140476Y-110227200D01*
X134140476Y-110227200D02*
X134092857Y-110179580D01*
X120884819Y-128192857D02*
X120408628Y-128526190D01*
X120884819Y-128764285D02*
X119884819Y-128764285D01*
X119884819Y-128764285D02*
X119884819Y-128383333D01*
X119884819Y-128383333D02*
X119932438Y-128288095D01*
X119932438Y-128288095D02*
X119980057Y-128240476D01*
X119980057Y-128240476D02*
X120075295Y-128192857D01*
X120075295Y-128192857D02*
X120218152Y-128192857D01*
X120218152Y-128192857D02*
X120313390Y-128240476D01*
X120313390Y-128240476D02*
X120361009Y-128288095D01*
X120361009Y-128288095D02*
X120408628Y-128383333D01*
X120408628Y-128383333D02*
X120408628Y-128764285D01*
X119884819Y-127859523D02*
X119884819Y-127240476D01*
X119884819Y-127240476D02*
X120265771Y-127573809D01*
X120265771Y-127573809D02*
X120265771Y-127430952D01*
X120265771Y-127430952D02*
X120313390Y-127335714D01*
X120313390Y-127335714D02*
X120361009Y-127288095D01*
X120361009Y-127288095D02*
X120456247Y-127240476D01*
X120456247Y-127240476D02*
X120694342Y-127240476D01*
X120694342Y-127240476D02*
X120789580Y-127288095D01*
X120789580Y-127288095D02*
X120837200Y-127335714D01*
X120837200Y-127335714D02*
X120884819Y-127430952D01*
X120884819Y-127430952D02*
X120884819Y-127716666D01*
X120884819Y-127716666D02*
X120837200Y-127811904D01*
X120837200Y-127811904D02*
X120789580Y-127859523D01*
X119884819Y-126621428D02*
X119884819Y-126526190D01*
X119884819Y-126526190D02*
X119932438Y-126430952D01*
X119932438Y-126430952D02*
X119980057Y-126383333D01*
X119980057Y-126383333D02*
X120075295Y-126335714D01*
X120075295Y-126335714D02*
X120265771Y-126288095D01*
X120265771Y-126288095D02*
X120503866Y-126288095D01*
X120503866Y-126288095D02*
X120694342Y-126335714D01*
X120694342Y-126335714D02*
X120789580Y-126383333D01*
X120789580Y-126383333D02*
X120837200Y-126430952D01*
X120837200Y-126430952D02*
X120884819Y-126526190D01*
X120884819Y-126526190D02*
X120884819Y-126621428D01*
X120884819Y-126621428D02*
X120837200Y-126716666D01*
X120837200Y-126716666D02*
X120789580Y-126764285D01*
X120789580Y-126764285D02*
X120694342Y-126811904D01*
X120694342Y-126811904D02*
X120503866Y-126859523D01*
X120503866Y-126859523D02*
X120265771Y-126859523D01*
X120265771Y-126859523D02*
X120075295Y-126811904D01*
X120075295Y-126811904D02*
X119980057Y-126764285D01*
X119980057Y-126764285D02*
X119932438Y-126716666D01*
X119932438Y-126716666D02*
X119884819Y-126621428D01*
X104037142Y-125804819D02*
X103703809Y-125328628D01*
X103465714Y-125804819D02*
X103465714Y-124804819D01*
X103465714Y-124804819D02*
X103846666Y-124804819D01*
X103846666Y-124804819D02*
X103941904Y-124852438D01*
X103941904Y-124852438D02*
X103989523Y-124900057D01*
X103989523Y-124900057D02*
X104037142Y-124995295D01*
X104037142Y-124995295D02*
X104037142Y-125138152D01*
X104037142Y-125138152D02*
X103989523Y-125233390D01*
X103989523Y-125233390D02*
X103941904Y-125281009D01*
X103941904Y-125281009D02*
X103846666Y-125328628D01*
X103846666Y-125328628D02*
X103465714Y-125328628D01*
X104370476Y-124804819D02*
X104989523Y-124804819D01*
X104989523Y-124804819D02*
X104656190Y-125185771D01*
X104656190Y-125185771D02*
X104799047Y-125185771D01*
X104799047Y-125185771D02*
X104894285Y-125233390D01*
X104894285Y-125233390D02*
X104941904Y-125281009D01*
X104941904Y-125281009D02*
X104989523Y-125376247D01*
X104989523Y-125376247D02*
X104989523Y-125614342D01*
X104989523Y-125614342D02*
X104941904Y-125709580D01*
X104941904Y-125709580D02*
X104894285Y-125757200D01*
X104894285Y-125757200D02*
X104799047Y-125804819D01*
X104799047Y-125804819D02*
X104513333Y-125804819D01*
X104513333Y-125804819D02*
X104418095Y-125757200D01*
X104418095Y-125757200D02*
X104370476Y-125709580D01*
X105894285Y-124804819D02*
X105418095Y-124804819D01*
X105418095Y-124804819D02*
X105370476Y-125281009D01*
X105370476Y-125281009D02*
X105418095Y-125233390D01*
X105418095Y-125233390D02*
X105513333Y-125185771D01*
X105513333Y-125185771D02*
X105751428Y-125185771D01*
X105751428Y-125185771D02*
X105846666Y-125233390D01*
X105846666Y-125233390D02*
X105894285Y-125281009D01*
X105894285Y-125281009D02*
X105941904Y-125376247D01*
X105941904Y-125376247D02*
X105941904Y-125614342D01*
X105941904Y-125614342D02*
X105894285Y-125709580D01*
X105894285Y-125709580D02*
X105846666Y-125757200D01*
X105846666Y-125757200D02*
X105751428Y-125804819D01*
X105751428Y-125804819D02*
X105513333Y-125804819D01*
X105513333Y-125804819D02*
X105418095Y-125757200D01*
X105418095Y-125757200D02*
X105370476Y-125709580D01*
X118184819Y-107676785D02*
X117184819Y-107676785D01*
X117184819Y-107676785D02*
X117184819Y-107438690D01*
X117184819Y-107438690D02*
X117232438Y-107295833D01*
X117232438Y-107295833D02*
X117327676Y-107200595D01*
X117327676Y-107200595D02*
X117422914Y-107152976D01*
X117422914Y-107152976D02*
X117613390Y-107105357D01*
X117613390Y-107105357D02*
X117756247Y-107105357D01*
X117756247Y-107105357D02*
X117946723Y-107152976D01*
X117946723Y-107152976D02*
X118041961Y-107200595D01*
X118041961Y-107200595D02*
X118137200Y-107295833D01*
X118137200Y-107295833D02*
X118184819Y-107438690D01*
X118184819Y-107438690D02*
X118184819Y-107676785D01*
X118184819Y-106152976D02*
X118184819Y-106724404D01*
X118184819Y-106438690D02*
X117184819Y-106438690D01*
X117184819Y-106438690D02*
X117327676Y-106533928D01*
X117327676Y-106533928D02*
X117422914Y-106629166D01*
X117422914Y-106629166D02*
X117470533Y-106724404D01*
X118184819Y-105676785D02*
X118184819Y-105486309D01*
X118184819Y-105486309D02*
X118137200Y-105391071D01*
X118137200Y-105391071D02*
X118089580Y-105343452D01*
X118089580Y-105343452D02*
X117946723Y-105248214D01*
X117946723Y-105248214D02*
X117756247Y-105200595D01*
X117756247Y-105200595D02*
X117375295Y-105200595D01*
X117375295Y-105200595D02*
X117280057Y-105248214D01*
X117280057Y-105248214D02*
X117232438Y-105295833D01*
X117232438Y-105295833D02*
X117184819Y-105391071D01*
X117184819Y-105391071D02*
X117184819Y-105581547D01*
X117184819Y-105581547D02*
X117232438Y-105676785D01*
X117232438Y-105676785D02*
X117280057Y-105724404D01*
X117280057Y-105724404D02*
X117375295Y-105772023D01*
X117375295Y-105772023D02*
X117613390Y-105772023D01*
X117613390Y-105772023D02*
X117708628Y-105724404D01*
X117708628Y-105724404D02*
X117756247Y-105676785D01*
X117756247Y-105676785D02*
X117803866Y-105581547D01*
X117803866Y-105581547D02*
X117803866Y-105391071D01*
X117803866Y-105391071D02*
X117756247Y-105295833D01*
X117756247Y-105295833D02*
X117708628Y-105248214D01*
X117708628Y-105248214D02*
X117613390Y-105200595D01*
X109789819Y-116688094D02*
X110599342Y-116688094D01*
X110599342Y-116688094D02*
X110694580Y-116640475D01*
X110694580Y-116640475D02*
X110742200Y-116592856D01*
X110742200Y-116592856D02*
X110789819Y-116497618D01*
X110789819Y-116497618D02*
X110789819Y-116307142D01*
X110789819Y-116307142D02*
X110742200Y-116211904D01*
X110742200Y-116211904D02*
X110694580Y-116164285D01*
X110694580Y-116164285D02*
X110599342Y-116116666D01*
X110599342Y-116116666D02*
X109789819Y-116116666D01*
X110789819Y-115116666D02*
X110789819Y-115688094D01*
X110789819Y-115402380D02*
X109789819Y-115402380D01*
X109789819Y-115402380D02*
X109932676Y-115497618D01*
X109932676Y-115497618D02*
X110027914Y-115592856D01*
X110027914Y-115592856D02*
X110075533Y-115688094D01*
X109789819Y-114259523D02*
X109789819Y-114449999D01*
X109789819Y-114449999D02*
X109837438Y-114545237D01*
X109837438Y-114545237D02*
X109885057Y-114592856D01*
X109885057Y-114592856D02*
X110027914Y-114688094D01*
X110027914Y-114688094D02*
X110218390Y-114735713D01*
X110218390Y-114735713D02*
X110599342Y-114735713D01*
X110599342Y-114735713D02*
X110694580Y-114688094D01*
X110694580Y-114688094D02*
X110742200Y-114640475D01*
X110742200Y-114640475D02*
X110789819Y-114545237D01*
X110789819Y-114545237D02*
X110789819Y-114354761D01*
X110789819Y-114354761D02*
X110742200Y-114259523D01*
X110742200Y-114259523D02*
X110694580Y-114211904D01*
X110694580Y-114211904D02*
X110599342Y-114164285D01*
X110599342Y-114164285D02*
X110361247Y-114164285D01*
X110361247Y-114164285D02*
X110266009Y-114211904D01*
X110266009Y-114211904D02*
X110218390Y-114259523D01*
X110218390Y-114259523D02*
X110170771Y-114354761D01*
X110170771Y-114354761D02*
X110170771Y-114545237D01*
X110170771Y-114545237D02*
X110218390Y-114640475D01*
X110218390Y-114640475D02*
X110266009Y-114688094D01*
X110266009Y-114688094D02*
X110361247Y-114735713D01*
X149523809Y-123078628D02*
X149523809Y-123554819D01*
X149190476Y-122554819D02*
X149523809Y-123078628D01*
X149523809Y-123078628D02*
X149857142Y-122554819D01*
X150142857Y-122650057D02*
X150190476Y-122602438D01*
X150190476Y-122602438D02*
X150285714Y-122554819D01*
X150285714Y-122554819D02*
X150523809Y-122554819D01*
X150523809Y-122554819D02*
X150619047Y-122602438D01*
X150619047Y-122602438D02*
X150666666Y-122650057D01*
X150666666Y-122650057D02*
X150714285Y-122745295D01*
X150714285Y-122745295D02*
X150714285Y-122840533D01*
X150714285Y-122840533D02*
X150666666Y-122983390D01*
X150666666Y-122983390D02*
X150095238Y-123554819D01*
X150095238Y-123554819D02*
X150714285Y-123554819D01*
X89807142Y-92679580D02*
X89759523Y-92727200D01*
X89759523Y-92727200D02*
X89616666Y-92774819D01*
X89616666Y-92774819D02*
X89521428Y-92774819D01*
X89521428Y-92774819D02*
X89378571Y-92727200D01*
X89378571Y-92727200D02*
X89283333Y-92631961D01*
X89283333Y-92631961D02*
X89235714Y-92536723D01*
X89235714Y-92536723D02*
X89188095Y-92346247D01*
X89188095Y-92346247D02*
X89188095Y-92203390D01*
X89188095Y-92203390D02*
X89235714Y-92012914D01*
X89235714Y-92012914D02*
X89283333Y-91917676D01*
X89283333Y-91917676D02*
X89378571Y-91822438D01*
X89378571Y-91822438D02*
X89521428Y-91774819D01*
X89521428Y-91774819D02*
X89616666Y-91774819D01*
X89616666Y-91774819D02*
X89759523Y-91822438D01*
X89759523Y-91822438D02*
X89807142Y-91870057D01*
X90759523Y-92774819D02*
X90188095Y-92774819D01*
X90473809Y-92774819D02*
X90473809Y-91774819D01*
X90473809Y-91774819D02*
X90378571Y-91917676D01*
X90378571Y-91917676D02*
X90283333Y-92012914D01*
X90283333Y-92012914D02*
X90188095Y-92060533D01*
X91616666Y-92108152D02*
X91616666Y-92774819D01*
X91378571Y-91727200D02*
X91140476Y-92441485D01*
X91140476Y-92441485D02*
X91759523Y-92441485D01*
X166983333Y-71134104D02*
X167459523Y-71134104D01*
X166888095Y-71419819D02*
X167221428Y-70419819D01*
X167221428Y-70419819D02*
X167554761Y-71419819D01*
X167888095Y-70896009D02*
X168221428Y-70896009D01*
X168364285Y-71419819D02*
X167888095Y-71419819D01*
X167888095Y-71419819D02*
X167888095Y-70419819D01*
X167888095Y-70419819D02*
X168364285Y-70419819D01*
X168745238Y-70515057D02*
X168792857Y-70467438D01*
X168792857Y-70467438D02*
X168888095Y-70419819D01*
X168888095Y-70419819D02*
X169126190Y-70419819D01*
X169126190Y-70419819D02*
X169221428Y-70467438D01*
X169221428Y-70467438D02*
X169269047Y-70515057D01*
X169269047Y-70515057D02*
X169316666Y-70610295D01*
X169316666Y-70610295D02*
X169316666Y-70705533D01*
X169316666Y-70705533D02*
X169269047Y-70848390D01*
X169269047Y-70848390D02*
X168697619Y-71419819D01*
X168697619Y-71419819D02*
X169316666Y-71419819D01*
X82354819Y-79492857D02*
X81878628Y-79826190D01*
X82354819Y-80064285D02*
X81354819Y-80064285D01*
X81354819Y-80064285D02*
X81354819Y-79683333D01*
X81354819Y-79683333D02*
X81402438Y-79588095D01*
X81402438Y-79588095D02*
X81450057Y-79540476D01*
X81450057Y-79540476D02*
X81545295Y-79492857D01*
X81545295Y-79492857D02*
X81688152Y-79492857D01*
X81688152Y-79492857D02*
X81783390Y-79540476D01*
X81783390Y-79540476D02*
X81831009Y-79588095D01*
X81831009Y-79588095D02*
X81878628Y-79683333D01*
X81878628Y-79683333D02*
X81878628Y-80064285D01*
X82354819Y-78540476D02*
X82354819Y-79111904D01*
X82354819Y-78826190D02*
X81354819Y-78826190D01*
X81354819Y-78826190D02*
X81497676Y-78921428D01*
X81497676Y-78921428D02*
X81592914Y-79016666D01*
X81592914Y-79016666D02*
X81640533Y-79111904D01*
X81354819Y-78207142D02*
X81354819Y-77540476D01*
X81354819Y-77540476D02*
X82354819Y-77969047D01*
X96854819Y-79872857D02*
X96378628Y-80206190D01*
X96854819Y-80444285D02*
X95854819Y-80444285D01*
X95854819Y-80444285D02*
X95854819Y-80063333D01*
X95854819Y-80063333D02*
X95902438Y-79968095D01*
X95902438Y-79968095D02*
X95950057Y-79920476D01*
X95950057Y-79920476D02*
X96045295Y-79872857D01*
X96045295Y-79872857D02*
X96188152Y-79872857D01*
X96188152Y-79872857D02*
X96283390Y-79920476D01*
X96283390Y-79920476D02*
X96331009Y-79968095D01*
X96331009Y-79968095D02*
X96378628Y-80063333D01*
X96378628Y-80063333D02*
X96378628Y-80444285D01*
X96854819Y-78920476D02*
X96854819Y-79491904D01*
X96854819Y-79206190D02*
X95854819Y-79206190D01*
X95854819Y-79206190D02*
X95997676Y-79301428D01*
X95997676Y-79301428D02*
X96092914Y-79396666D01*
X96092914Y-79396666D02*
X96140533Y-79491904D01*
X96854819Y-78444285D02*
X96854819Y-78253809D01*
X96854819Y-78253809D02*
X96807200Y-78158571D01*
X96807200Y-78158571D02*
X96759580Y-78110952D01*
X96759580Y-78110952D02*
X96616723Y-78015714D01*
X96616723Y-78015714D02*
X96426247Y-77968095D01*
X96426247Y-77968095D02*
X96045295Y-77968095D01*
X96045295Y-77968095D02*
X95950057Y-78015714D01*
X95950057Y-78015714D02*
X95902438Y-78063333D01*
X95902438Y-78063333D02*
X95854819Y-78158571D01*
X95854819Y-78158571D02*
X95854819Y-78349047D01*
X95854819Y-78349047D02*
X95902438Y-78444285D01*
X95902438Y-78444285D02*
X95950057Y-78491904D01*
X95950057Y-78491904D02*
X96045295Y-78539523D01*
X96045295Y-78539523D02*
X96283390Y-78539523D01*
X96283390Y-78539523D02*
X96378628Y-78491904D01*
X96378628Y-78491904D02*
X96426247Y-78444285D01*
X96426247Y-78444285D02*
X96473866Y-78349047D01*
X96473866Y-78349047D02*
X96473866Y-78158571D01*
X96473866Y-78158571D02*
X96426247Y-78063333D01*
X96426247Y-78063333D02*
X96378628Y-78015714D01*
X96378628Y-78015714D02*
X96283390Y-77968095D01*
X112259580Y-132716666D02*
X112307200Y-132764285D01*
X112307200Y-132764285D02*
X112354819Y-132907142D01*
X112354819Y-132907142D02*
X112354819Y-133002380D01*
X112354819Y-133002380D02*
X112307200Y-133145237D01*
X112307200Y-133145237D02*
X112211961Y-133240475D01*
X112211961Y-133240475D02*
X112116723Y-133288094D01*
X112116723Y-133288094D02*
X111926247Y-133335713D01*
X111926247Y-133335713D02*
X111783390Y-133335713D01*
X111783390Y-133335713D02*
X111592914Y-133288094D01*
X111592914Y-133288094D02*
X111497676Y-133240475D01*
X111497676Y-133240475D02*
X111402438Y-133145237D01*
X111402438Y-133145237D02*
X111354819Y-133002380D01*
X111354819Y-133002380D02*
X111354819Y-132907142D01*
X111354819Y-132907142D02*
X111402438Y-132764285D01*
X111402438Y-132764285D02*
X111450057Y-132716666D01*
X111450057Y-132335713D02*
X111402438Y-132288094D01*
X111402438Y-132288094D02*
X111354819Y-132192856D01*
X111354819Y-132192856D02*
X111354819Y-131954761D01*
X111354819Y-131954761D02*
X111402438Y-131859523D01*
X111402438Y-131859523D02*
X111450057Y-131811904D01*
X111450057Y-131811904D02*
X111545295Y-131764285D01*
X111545295Y-131764285D02*
X111640533Y-131764285D01*
X111640533Y-131764285D02*
X111783390Y-131811904D01*
X111783390Y-131811904D02*
X112354819Y-132383332D01*
X112354819Y-132383332D02*
X112354819Y-131764285D01*
X90854819Y-79372857D02*
X90378628Y-79706190D01*
X90854819Y-79944285D02*
X89854819Y-79944285D01*
X89854819Y-79944285D02*
X89854819Y-79563333D01*
X89854819Y-79563333D02*
X89902438Y-79468095D01*
X89902438Y-79468095D02*
X89950057Y-79420476D01*
X89950057Y-79420476D02*
X90045295Y-79372857D01*
X90045295Y-79372857D02*
X90188152Y-79372857D01*
X90188152Y-79372857D02*
X90283390Y-79420476D01*
X90283390Y-79420476D02*
X90331009Y-79468095D01*
X90331009Y-79468095D02*
X90378628Y-79563333D01*
X90378628Y-79563333D02*
X90378628Y-79944285D01*
X89950057Y-78991904D02*
X89902438Y-78944285D01*
X89902438Y-78944285D02*
X89854819Y-78849047D01*
X89854819Y-78849047D02*
X89854819Y-78610952D01*
X89854819Y-78610952D02*
X89902438Y-78515714D01*
X89902438Y-78515714D02*
X89950057Y-78468095D01*
X89950057Y-78468095D02*
X90045295Y-78420476D01*
X90045295Y-78420476D02*
X90140533Y-78420476D01*
X90140533Y-78420476D02*
X90283390Y-78468095D01*
X90283390Y-78468095D02*
X90854819Y-79039523D01*
X90854819Y-79039523D02*
X90854819Y-78420476D01*
X90188152Y-77563333D02*
X90854819Y-77563333D01*
X89807200Y-77801428D02*
X90521485Y-78039523D01*
X90521485Y-78039523D02*
X90521485Y-77420476D01*
X94307142Y-97679580D02*
X94259523Y-97727200D01*
X94259523Y-97727200D02*
X94116666Y-97774819D01*
X94116666Y-97774819D02*
X94021428Y-97774819D01*
X94021428Y-97774819D02*
X93878571Y-97727200D01*
X93878571Y-97727200D02*
X93783333Y-97631961D01*
X93783333Y-97631961D02*
X93735714Y-97536723D01*
X93735714Y-97536723D02*
X93688095Y-97346247D01*
X93688095Y-97346247D02*
X93688095Y-97203390D01*
X93688095Y-97203390D02*
X93735714Y-97012914D01*
X93735714Y-97012914D02*
X93783333Y-96917676D01*
X93783333Y-96917676D02*
X93878571Y-96822438D01*
X93878571Y-96822438D02*
X94021428Y-96774819D01*
X94021428Y-96774819D02*
X94116666Y-96774819D01*
X94116666Y-96774819D02*
X94259523Y-96822438D01*
X94259523Y-96822438D02*
X94307142Y-96870057D01*
X95259523Y-97774819D02*
X94688095Y-97774819D01*
X94973809Y-97774819D02*
X94973809Y-96774819D01*
X94973809Y-96774819D02*
X94878571Y-96917676D01*
X94878571Y-96917676D02*
X94783333Y-97012914D01*
X94783333Y-97012914D02*
X94688095Y-97060533D01*
X96164285Y-96774819D02*
X95688095Y-96774819D01*
X95688095Y-96774819D02*
X95640476Y-97251009D01*
X95640476Y-97251009D02*
X95688095Y-97203390D01*
X95688095Y-97203390D02*
X95783333Y-97155771D01*
X95783333Y-97155771D02*
X96021428Y-97155771D01*
X96021428Y-97155771D02*
X96116666Y-97203390D01*
X96116666Y-97203390D02*
X96164285Y-97251009D01*
X96164285Y-97251009D02*
X96211904Y-97346247D01*
X96211904Y-97346247D02*
X96211904Y-97584342D01*
X96211904Y-97584342D02*
X96164285Y-97679580D01*
X96164285Y-97679580D02*
X96116666Y-97727200D01*
X96116666Y-97727200D02*
X96021428Y-97774819D01*
X96021428Y-97774819D02*
X95783333Y-97774819D01*
X95783333Y-97774819D02*
X95688095Y-97727200D01*
X95688095Y-97727200D02*
X95640476Y-97679580D01*
X70761905Y-129954819D02*
X70761905Y-130764342D01*
X70761905Y-130764342D02*
X70809524Y-130859580D01*
X70809524Y-130859580D02*
X70857143Y-130907200D01*
X70857143Y-130907200D02*
X70952381Y-130954819D01*
X70952381Y-130954819D02*
X71142857Y-130954819D01*
X71142857Y-130954819D02*
X71238095Y-130907200D01*
X71238095Y-130907200D02*
X71285714Y-130859580D01*
X71285714Y-130859580D02*
X71333333Y-130764342D01*
X71333333Y-130764342D02*
X71333333Y-129954819D01*
X72333333Y-130954819D02*
X71761905Y-130954819D01*
X72047619Y-130954819D02*
X72047619Y-129954819D01*
X72047619Y-129954819D02*
X71952381Y-130097676D01*
X71952381Y-130097676D02*
X71857143Y-130192914D01*
X71857143Y-130192914D02*
X71761905Y-130240533D01*
X72666667Y-129954819D02*
X73285714Y-129954819D01*
X73285714Y-129954819D02*
X72952381Y-130335771D01*
X72952381Y-130335771D02*
X73095238Y-130335771D01*
X73095238Y-130335771D02*
X73190476Y-130383390D01*
X73190476Y-130383390D02*
X73238095Y-130431009D01*
X73238095Y-130431009D02*
X73285714Y-130526247D01*
X73285714Y-130526247D02*
X73285714Y-130764342D01*
X73285714Y-130764342D02*
X73238095Y-130859580D01*
X73238095Y-130859580D02*
X73190476Y-130907200D01*
X73190476Y-130907200D02*
X73095238Y-130954819D01*
X73095238Y-130954819D02*
X72809524Y-130954819D01*
X72809524Y-130954819D02*
X72714286Y-130907200D01*
X72714286Y-130907200D02*
X72666667Y-130859580D01*
X54994819Y-103386785D02*
X53994819Y-103386785D01*
X53994819Y-103386785D02*
X53994819Y-103148690D01*
X53994819Y-103148690D02*
X54042438Y-103005833D01*
X54042438Y-103005833D02*
X54137676Y-102910595D01*
X54137676Y-102910595D02*
X54232914Y-102862976D01*
X54232914Y-102862976D02*
X54423390Y-102815357D01*
X54423390Y-102815357D02*
X54566247Y-102815357D01*
X54566247Y-102815357D02*
X54756723Y-102862976D01*
X54756723Y-102862976D02*
X54851961Y-102910595D01*
X54851961Y-102910595D02*
X54947200Y-103005833D01*
X54947200Y-103005833D02*
X54994819Y-103148690D01*
X54994819Y-103148690D02*
X54994819Y-103386785D01*
X54090057Y-102434404D02*
X54042438Y-102386785D01*
X54042438Y-102386785D02*
X53994819Y-102291547D01*
X53994819Y-102291547D02*
X53994819Y-102053452D01*
X53994819Y-102053452D02*
X54042438Y-101958214D01*
X54042438Y-101958214D02*
X54090057Y-101910595D01*
X54090057Y-101910595D02*
X54185295Y-101862976D01*
X54185295Y-101862976D02*
X54280533Y-101862976D01*
X54280533Y-101862976D02*
X54423390Y-101910595D01*
X54423390Y-101910595D02*
X54994819Y-102482023D01*
X54994819Y-102482023D02*
X54994819Y-101862976D01*
X53994819Y-101005833D02*
X53994819Y-101196309D01*
X53994819Y-101196309D02*
X54042438Y-101291547D01*
X54042438Y-101291547D02*
X54090057Y-101339166D01*
X54090057Y-101339166D02*
X54232914Y-101434404D01*
X54232914Y-101434404D02*
X54423390Y-101482023D01*
X54423390Y-101482023D02*
X54804342Y-101482023D01*
X54804342Y-101482023D02*
X54899580Y-101434404D01*
X54899580Y-101434404D02*
X54947200Y-101386785D01*
X54947200Y-101386785D02*
X54994819Y-101291547D01*
X54994819Y-101291547D02*
X54994819Y-101101071D01*
X54994819Y-101101071D02*
X54947200Y-101005833D01*
X54947200Y-101005833D02*
X54899580Y-100958214D01*
X54899580Y-100958214D02*
X54804342Y-100910595D01*
X54804342Y-100910595D02*
X54566247Y-100910595D01*
X54566247Y-100910595D02*
X54471009Y-100958214D01*
X54471009Y-100958214D02*
X54423390Y-101005833D01*
X54423390Y-101005833D02*
X54375771Y-101101071D01*
X54375771Y-101101071D02*
X54375771Y-101291547D01*
X54375771Y-101291547D02*
X54423390Y-101386785D01*
X54423390Y-101386785D02*
X54471009Y-101434404D01*
X54471009Y-101434404D02*
X54566247Y-101482023D01*
X89807142Y-97679580D02*
X89759523Y-97727200D01*
X89759523Y-97727200D02*
X89616666Y-97774819D01*
X89616666Y-97774819D02*
X89521428Y-97774819D01*
X89521428Y-97774819D02*
X89378571Y-97727200D01*
X89378571Y-97727200D02*
X89283333Y-97631961D01*
X89283333Y-97631961D02*
X89235714Y-97536723D01*
X89235714Y-97536723D02*
X89188095Y-97346247D01*
X89188095Y-97346247D02*
X89188095Y-97203390D01*
X89188095Y-97203390D02*
X89235714Y-97012914D01*
X89235714Y-97012914D02*
X89283333Y-96917676D01*
X89283333Y-96917676D02*
X89378571Y-96822438D01*
X89378571Y-96822438D02*
X89521428Y-96774819D01*
X89521428Y-96774819D02*
X89616666Y-96774819D01*
X89616666Y-96774819D02*
X89759523Y-96822438D01*
X89759523Y-96822438D02*
X89807142Y-96870057D01*
X90759523Y-97774819D02*
X90188095Y-97774819D01*
X90473809Y-97774819D02*
X90473809Y-96774819D01*
X90473809Y-96774819D02*
X90378571Y-96917676D01*
X90378571Y-96917676D02*
X90283333Y-97012914D01*
X90283333Y-97012914D02*
X90188095Y-97060533D01*
X91092857Y-96774819D02*
X91711904Y-96774819D01*
X91711904Y-96774819D02*
X91378571Y-97155771D01*
X91378571Y-97155771D02*
X91521428Y-97155771D01*
X91521428Y-97155771D02*
X91616666Y-97203390D01*
X91616666Y-97203390D02*
X91664285Y-97251009D01*
X91664285Y-97251009D02*
X91711904Y-97346247D01*
X91711904Y-97346247D02*
X91711904Y-97584342D01*
X91711904Y-97584342D02*
X91664285Y-97679580D01*
X91664285Y-97679580D02*
X91616666Y-97727200D01*
X91616666Y-97727200D02*
X91521428Y-97774819D01*
X91521428Y-97774819D02*
X91235714Y-97774819D01*
X91235714Y-97774819D02*
X91140476Y-97727200D01*
X91140476Y-97727200D02*
X91092857Y-97679580D01*
X53529819Y-115416904D02*
X54339342Y-115416904D01*
X54339342Y-115416904D02*
X54434580Y-115369285D01*
X54434580Y-115369285D02*
X54482200Y-115321666D01*
X54482200Y-115321666D02*
X54529819Y-115226428D01*
X54529819Y-115226428D02*
X54529819Y-115035952D01*
X54529819Y-115035952D02*
X54482200Y-114940714D01*
X54482200Y-114940714D02*
X54434580Y-114893095D01*
X54434580Y-114893095D02*
X54339342Y-114845476D01*
X54339342Y-114845476D02*
X53529819Y-114845476D01*
X53958390Y-114226428D02*
X53910771Y-114321666D01*
X53910771Y-114321666D02*
X53863152Y-114369285D01*
X53863152Y-114369285D02*
X53767914Y-114416904D01*
X53767914Y-114416904D02*
X53720295Y-114416904D01*
X53720295Y-114416904D02*
X53625057Y-114369285D01*
X53625057Y-114369285D02*
X53577438Y-114321666D01*
X53577438Y-114321666D02*
X53529819Y-114226428D01*
X53529819Y-114226428D02*
X53529819Y-114035952D01*
X53529819Y-114035952D02*
X53577438Y-113940714D01*
X53577438Y-113940714D02*
X53625057Y-113893095D01*
X53625057Y-113893095D02*
X53720295Y-113845476D01*
X53720295Y-113845476D02*
X53767914Y-113845476D01*
X53767914Y-113845476D02*
X53863152Y-113893095D01*
X53863152Y-113893095D02*
X53910771Y-113940714D01*
X53910771Y-113940714D02*
X53958390Y-114035952D01*
X53958390Y-114035952D02*
X53958390Y-114226428D01*
X53958390Y-114226428D02*
X54006009Y-114321666D01*
X54006009Y-114321666D02*
X54053628Y-114369285D01*
X54053628Y-114369285D02*
X54148866Y-114416904D01*
X54148866Y-114416904D02*
X54339342Y-114416904D01*
X54339342Y-114416904D02*
X54434580Y-114369285D01*
X54434580Y-114369285D02*
X54482200Y-114321666D01*
X54482200Y-114321666D02*
X54529819Y-114226428D01*
X54529819Y-114226428D02*
X54529819Y-114035952D01*
X54529819Y-114035952D02*
X54482200Y-113940714D01*
X54482200Y-113940714D02*
X54434580Y-113893095D01*
X54434580Y-113893095D02*
X54339342Y-113845476D01*
X54339342Y-113845476D02*
X54148866Y-113845476D01*
X54148866Y-113845476D02*
X54053628Y-113893095D01*
X54053628Y-113893095D02*
X54006009Y-113940714D01*
X54006009Y-113940714D02*
X53958390Y-114035952D01*
X91234951Y-79952602D02*
X91234951Y-80765466D01*
X91234951Y-80765466D02*
X91282767Y-80861097D01*
X91282767Y-80861097D02*
X91330582Y-80908913D01*
X91330582Y-80908913D02*
X91426213Y-80956728D01*
X91426213Y-80956728D02*
X91617475Y-80956728D01*
X91617475Y-80956728D02*
X91713106Y-80908913D01*
X91713106Y-80908913D02*
X91760922Y-80861097D01*
X91760922Y-80861097D02*
X91808737Y-80765466D01*
X91808737Y-80765466D02*
X91808737Y-79952602D01*
X92717233Y-80287311D02*
X92717233Y-80956728D01*
X92478155Y-79904787D02*
X92239078Y-80622019D01*
X92239078Y-80622019D02*
X92860679Y-80622019D01*
X50454819Y-136238094D02*
X51264342Y-136238094D01*
X51264342Y-136238094D02*
X51359580Y-136190475D01*
X51359580Y-136190475D02*
X51407200Y-136142856D01*
X51407200Y-136142856D02*
X51454819Y-136047618D01*
X51454819Y-136047618D02*
X51454819Y-135857142D01*
X51454819Y-135857142D02*
X51407200Y-135761904D01*
X51407200Y-135761904D02*
X51359580Y-135714285D01*
X51359580Y-135714285D02*
X51264342Y-135666666D01*
X51264342Y-135666666D02*
X50454819Y-135666666D01*
X51454819Y-134666666D02*
X51454819Y-135238094D01*
X51454819Y-134952380D02*
X50454819Y-134952380D01*
X50454819Y-134952380D02*
X50597676Y-135047618D01*
X50597676Y-135047618D02*
X50692914Y-135142856D01*
X50692914Y-135142856D02*
X50740533Y-135238094D01*
X50550057Y-134285713D02*
X50502438Y-134238094D01*
X50502438Y-134238094D02*
X50454819Y-134142856D01*
X50454819Y-134142856D02*
X50454819Y-133904761D01*
X50454819Y-133904761D02*
X50502438Y-133809523D01*
X50502438Y-133809523D02*
X50550057Y-133761904D01*
X50550057Y-133761904D02*
X50645295Y-133714285D01*
X50645295Y-133714285D02*
X50740533Y-133714285D01*
X50740533Y-133714285D02*
X50883390Y-133761904D01*
X50883390Y-133761904D02*
X51454819Y-134333332D01*
X51454819Y-134333332D02*
X51454819Y-133714285D01*
X99757142Y-96039580D02*
X99709523Y-96087200D01*
X99709523Y-96087200D02*
X99566666Y-96134819D01*
X99566666Y-96134819D02*
X99471428Y-96134819D01*
X99471428Y-96134819D02*
X99328571Y-96087200D01*
X99328571Y-96087200D02*
X99233333Y-95991961D01*
X99233333Y-95991961D02*
X99185714Y-95896723D01*
X99185714Y-95896723D02*
X99138095Y-95706247D01*
X99138095Y-95706247D02*
X99138095Y-95563390D01*
X99138095Y-95563390D02*
X99185714Y-95372914D01*
X99185714Y-95372914D02*
X99233333Y-95277676D01*
X99233333Y-95277676D02*
X99328571Y-95182438D01*
X99328571Y-95182438D02*
X99471428Y-95134819D01*
X99471428Y-95134819D02*
X99566666Y-95134819D01*
X99566666Y-95134819D02*
X99709523Y-95182438D01*
X99709523Y-95182438D02*
X99757142Y-95230057D01*
X100090476Y-95134819D02*
X100709523Y-95134819D01*
X100709523Y-95134819D02*
X100376190Y-95515771D01*
X100376190Y-95515771D02*
X100519047Y-95515771D01*
X100519047Y-95515771D02*
X100614285Y-95563390D01*
X100614285Y-95563390D02*
X100661904Y-95611009D01*
X100661904Y-95611009D02*
X100709523Y-95706247D01*
X100709523Y-95706247D02*
X100709523Y-95944342D01*
X100709523Y-95944342D02*
X100661904Y-96039580D01*
X100661904Y-96039580D02*
X100614285Y-96087200D01*
X100614285Y-96087200D02*
X100519047Y-96134819D01*
X100519047Y-96134819D02*
X100233333Y-96134819D01*
X100233333Y-96134819D02*
X100138095Y-96087200D01*
X100138095Y-96087200D02*
X100090476Y-96039580D01*
X101328571Y-95134819D02*
X101423809Y-95134819D01*
X101423809Y-95134819D02*
X101519047Y-95182438D01*
X101519047Y-95182438D02*
X101566666Y-95230057D01*
X101566666Y-95230057D02*
X101614285Y-95325295D01*
X101614285Y-95325295D02*
X101661904Y-95515771D01*
X101661904Y-95515771D02*
X101661904Y-95753866D01*
X101661904Y-95753866D02*
X101614285Y-95944342D01*
X101614285Y-95944342D02*
X101566666Y-96039580D01*
X101566666Y-96039580D02*
X101519047Y-96087200D01*
X101519047Y-96087200D02*
X101423809Y-96134819D01*
X101423809Y-96134819D02*
X101328571Y-96134819D01*
X101328571Y-96134819D02*
X101233333Y-96087200D01*
X101233333Y-96087200D02*
X101185714Y-96039580D01*
X101185714Y-96039580D02*
X101138095Y-95944342D01*
X101138095Y-95944342D02*
X101090476Y-95753866D01*
X101090476Y-95753866D02*
X101090476Y-95515771D01*
X101090476Y-95515771D02*
X101138095Y-95325295D01*
X101138095Y-95325295D02*
X101185714Y-95230057D01*
X101185714Y-95230057D02*
X101233333Y-95182438D01*
X101233333Y-95182438D02*
X101328571Y-95134819D01*
X61407142Y-137539580D02*
X61359523Y-137587200D01*
X61359523Y-137587200D02*
X61216666Y-137634819D01*
X61216666Y-137634819D02*
X61121428Y-137634819D01*
X61121428Y-137634819D02*
X60978571Y-137587200D01*
X60978571Y-137587200D02*
X60883333Y-137491961D01*
X60883333Y-137491961D02*
X60835714Y-137396723D01*
X60835714Y-137396723D02*
X60788095Y-137206247D01*
X60788095Y-137206247D02*
X60788095Y-137063390D01*
X60788095Y-137063390D02*
X60835714Y-136872914D01*
X60835714Y-136872914D02*
X60883333Y-136777676D01*
X60883333Y-136777676D02*
X60978571Y-136682438D01*
X60978571Y-136682438D02*
X61121428Y-136634819D01*
X61121428Y-136634819D02*
X61216666Y-136634819D01*
X61216666Y-136634819D02*
X61359523Y-136682438D01*
X61359523Y-136682438D02*
X61407142Y-136730057D01*
X62359523Y-137634819D02*
X61788095Y-137634819D01*
X62073809Y-137634819D02*
X62073809Y-136634819D01*
X62073809Y-136634819D02*
X61978571Y-136777676D01*
X61978571Y-136777676D02*
X61883333Y-136872914D01*
X61883333Y-136872914D02*
X61788095Y-136920533D01*
X62835714Y-137634819D02*
X63026190Y-137634819D01*
X63026190Y-137634819D02*
X63121428Y-137587200D01*
X63121428Y-137587200D02*
X63169047Y-137539580D01*
X63169047Y-137539580D02*
X63264285Y-137396723D01*
X63264285Y-137396723D02*
X63311904Y-137206247D01*
X63311904Y-137206247D02*
X63311904Y-136825295D01*
X63311904Y-136825295D02*
X63264285Y-136730057D01*
X63264285Y-136730057D02*
X63216666Y-136682438D01*
X63216666Y-136682438D02*
X63121428Y-136634819D01*
X63121428Y-136634819D02*
X62930952Y-136634819D01*
X62930952Y-136634819D02*
X62835714Y-136682438D01*
X62835714Y-136682438D02*
X62788095Y-136730057D01*
X62788095Y-136730057D02*
X62740476Y-136825295D01*
X62740476Y-136825295D02*
X62740476Y-137063390D01*
X62740476Y-137063390D02*
X62788095Y-137158628D01*
X62788095Y-137158628D02*
X62835714Y-137206247D01*
X62835714Y-137206247D02*
X62930952Y-137253866D01*
X62930952Y-137253866D02*
X63121428Y-137253866D01*
X63121428Y-137253866D02*
X63216666Y-137206247D01*
X63216666Y-137206247D02*
X63264285Y-137158628D01*
X63264285Y-137158628D02*
X63311904Y-137063390D01*
X154307142Y-115179580D02*
X154259523Y-115227200D01*
X154259523Y-115227200D02*
X154116666Y-115274819D01*
X154116666Y-115274819D02*
X154021428Y-115274819D01*
X154021428Y-115274819D02*
X153878571Y-115227200D01*
X153878571Y-115227200D02*
X153783333Y-115131961D01*
X153783333Y-115131961D02*
X153735714Y-115036723D01*
X153735714Y-115036723D02*
X153688095Y-114846247D01*
X153688095Y-114846247D02*
X153688095Y-114703390D01*
X153688095Y-114703390D02*
X153735714Y-114512914D01*
X153735714Y-114512914D02*
X153783333Y-114417676D01*
X153783333Y-114417676D02*
X153878571Y-114322438D01*
X153878571Y-114322438D02*
X154021428Y-114274819D01*
X154021428Y-114274819D02*
X154116666Y-114274819D01*
X154116666Y-114274819D02*
X154259523Y-114322438D01*
X154259523Y-114322438D02*
X154307142Y-114370057D01*
X154688095Y-114370057D02*
X154735714Y-114322438D01*
X154735714Y-114322438D02*
X154830952Y-114274819D01*
X154830952Y-114274819D02*
X155069047Y-114274819D01*
X155069047Y-114274819D02*
X155164285Y-114322438D01*
X155164285Y-114322438D02*
X155211904Y-114370057D01*
X155211904Y-114370057D02*
X155259523Y-114465295D01*
X155259523Y-114465295D02*
X155259523Y-114560533D01*
X155259523Y-114560533D02*
X155211904Y-114703390D01*
X155211904Y-114703390D02*
X154640476Y-115274819D01*
X154640476Y-115274819D02*
X155259523Y-115274819D01*
X155592857Y-114274819D02*
X156211904Y-114274819D01*
X156211904Y-114274819D02*
X155878571Y-114655771D01*
X155878571Y-114655771D02*
X156021428Y-114655771D01*
X156021428Y-114655771D02*
X156116666Y-114703390D01*
X156116666Y-114703390D02*
X156164285Y-114751009D01*
X156164285Y-114751009D02*
X156211904Y-114846247D01*
X156211904Y-114846247D02*
X156211904Y-115084342D01*
X156211904Y-115084342D02*
X156164285Y-115179580D01*
X156164285Y-115179580D02*
X156116666Y-115227200D01*
X156116666Y-115227200D02*
X156021428Y-115274819D01*
X156021428Y-115274819D02*
X155735714Y-115274819D01*
X155735714Y-115274819D02*
X155640476Y-115227200D01*
X155640476Y-115227200D02*
X155592857Y-115179580D01*
X155807142Y-105679580D02*
X155759523Y-105727200D01*
X155759523Y-105727200D02*
X155616666Y-105774819D01*
X155616666Y-105774819D02*
X155521428Y-105774819D01*
X155521428Y-105774819D02*
X155378571Y-105727200D01*
X155378571Y-105727200D02*
X155283333Y-105631961D01*
X155283333Y-105631961D02*
X155235714Y-105536723D01*
X155235714Y-105536723D02*
X155188095Y-105346247D01*
X155188095Y-105346247D02*
X155188095Y-105203390D01*
X155188095Y-105203390D02*
X155235714Y-105012914D01*
X155235714Y-105012914D02*
X155283333Y-104917676D01*
X155283333Y-104917676D02*
X155378571Y-104822438D01*
X155378571Y-104822438D02*
X155521428Y-104774819D01*
X155521428Y-104774819D02*
X155616666Y-104774819D01*
X155616666Y-104774819D02*
X155759523Y-104822438D01*
X155759523Y-104822438D02*
X155807142Y-104870057D01*
X156188095Y-104870057D02*
X156235714Y-104822438D01*
X156235714Y-104822438D02*
X156330952Y-104774819D01*
X156330952Y-104774819D02*
X156569047Y-104774819D01*
X156569047Y-104774819D02*
X156664285Y-104822438D01*
X156664285Y-104822438D02*
X156711904Y-104870057D01*
X156711904Y-104870057D02*
X156759523Y-104965295D01*
X156759523Y-104965295D02*
X156759523Y-105060533D01*
X156759523Y-105060533D02*
X156711904Y-105203390D01*
X156711904Y-105203390D02*
X156140476Y-105774819D01*
X156140476Y-105774819D02*
X156759523Y-105774819D01*
X157140476Y-104870057D02*
X157188095Y-104822438D01*
X157188095Y-104822438D02*
X157283333Y-104774819D01*
X157283333Y-104774819D02*
X157521428Y-104774819D01*
X157521428Y-104774819D02*
X157616666Y-104822438D01*
X157616666Y-104822438D02*
X157664285Y-104870057D01*
X157664285Y-104870057D02*
X157711904Y-104965295D01*
X157711904Y-104965295D02*
X157711904Y-105060533D01*
X157711904Y-105060533D02*
X157664285Y-105203390D01*
X157664285Y-105203390D02*
X157092857Y-105774819D01*
X157092857Y-105774819D02*
X157711904Y-105774819D01*
X106284951Y-80660102D02*
X106284951Y-81472966D01*
X106284951Y-81472966D02*
X106332767Y-81568597D01*
X106332767Y-81568597D02*
X106380582Y-81616413D01*
X106380582Y-81616413D02*
X106476213Y-81664228D01*
X106476213Y-81664228D02*
X106667475Y-81664228D01*
X106667475Y-81664228D02*
X106763106Y-81616413D01*
X106763106Y-81616413D02*
X106810922Y-81568597D01*
X106810922Y-81568597D02*
X106858737Y-81472966D01*
X106858737Y-81472966D02*
X106858737Y-80660102D01*
X107815048Y-80660102D02*
X107336893Y-80660102D01*
X107336893Y-80660102D02*
X107289078Y-81138257D01*
X107289078Y-81138257D02*
X107336893Y-81090442D01*
X107336893Y-81090442D02*
X107432524Y-81042626D01*
X107432524Y-81042626D02*
X107671602Y-81042626D01*
X107671602Y-81042626D02*
X107767233Y-81090442D01*
X107767233Y-81090442D02*
X107815048Y-81138257D01*
X107815048Y-81138257D02*
X107862864Y-81233888D01*
X107862864Y-81233888D02*
X107862864Y-81472966D01*
X107862864Y-81472966D02*
X107815048Y-81568597D01*
X107815048Y-81568597D02*
X107767233Y-81616413D01*
X107767233Y-81616413D02*
X107671602Y-81664228D01*
X107671602Y-81664228D02*
X107432524Y-81664228D01*
X107432524Y-81664228D02*
X107336893Y-81616413D01*
X107336893Y-81616413D02*
X107289078Y-81568597D01*
X150257142Y-114359580D02*
X150209523Y-114407200D01*
X150209523Y-114407200D02*
X150066666Y-114454819D01*
X150066666Y-114454819D02*
X149971428Y-114454819D01*
X149971428Y-114454819D02*
X149828571Y-114407200D01*
X149828571Y-114407200D02*
X149733333Y-114311961D01*
X149733333Y-114311961D02*
X149685714Y-114216723D01*
X149685714Y-114216723D02*
X149638095Y-114026247D01*
X149638095Y-114026247D02*
X149638095Y-113883390D01*
X149638095Y-113883390D02*
X149685714Y-113692914D01*
X149685714Y-113692914D02*
X149733333Y-113597676D01*
X149733333Y-113597676D02*
X149828571Y-113502438D01*
X149828571Y-113502438D02*
X149971428Y-113454819D01*
X149971428Y-113454819D02*
X150066666Y-113454819D01*
X150066666Y-113454819D02*
X150209523Y-113502438D01*
X150209523Y-113502438D02*
X150257142Y-113550057D01*
X151161904Y-113454819D02*
X150685714Y-113454819D01*
X150685714Y-113454819D02*
X150638095Y-113931009D01*
X150638095Y-113931009D02*
X150685714Y-113883390D01*
X150685714Y-113883390D02*
X150780952Y-113835771D01*
X150780952Y-113835771D02*
X151019047Y-113835771D01*
X151019047Y-113835771D02*
X151114285Y-113883390D01*
X151114285Y-113883390D02*
X151161904Y-113931009D01*
X151161904Y-113931009D02*
X151209523Y-114026247D01*
X151209523Y-114026247D02*
X151209523Y-114264342D01*
X151209523Y-114264342D02*
X151161904Y-114359580D01*
X151161904Y-114359580D02*
X151114285Y-114407200D01*
X151114285Y-114407200D02*
X151019047Y-114454819D01*
X151019047Y-114454819D02*
X150780952Y-114454819D01*
X150780952Y-114454819D02*
X150685714Y-114407200D01*
X150685714Y-114407200D02*
X150638095Y-114359580D01*
X152161904Y-114454819D02*
X151590476Y-114454819D01*
X151876190Y-114454819D02*
X151876190Y-113454819D01*
X151876190Y-113454819D02*
X151780952Y-113597676D01*
X151780952Y-113597676D02*
X151685714Y-113692914D01*
X151685714Y-113692914D02*
X151590476Y-113740533D01*
X70494819Y-103386785D02*
X69494819Y-103386785D01*
X69494819Y-103386785D02*
X69494819Y-103148690D01*
X69494819Y-103148690D02*
X69542438Y-103005833D01*
X69542438Y-103005833D02*
X69637676Y-102910595D01*
X69637676Y-102910595D02*
X69732914Y-102862976D01*
X69732914Y-102862976D02*
X69923390Y-102815357D01*
X69923390Y-102815357D02*
X70066247Y-102815357D01*
X70066247Y-102815357D02*
X70256723Y-102862976D01*
X70256723Y-102862976D02*
X70351961Y-102910595D01*
X70351961Y-102910595D02*
X70447200Y-103005833D01*
X70447200Y-103005833D02*
X70494819Y-103148690D01*
X70494819Y-103148690D02*
X70494819Y-103386785D01*
X69590057Y-102434404D02*
X69542438Y-102386785D01*
X69542438Y-102386785D02*
X69494819Y-102291547D01*
X69494819Y-102291547D02*
X69494819Y-102053452D01*
X69494819Y-102053452D02*
X69542438Y-101958214D01*
X69542438Y-101958214D02*
X69590057Y-101910595D01*
X69590057Y-101910595D02*
X69685295Y-101862976D01*
X69685295Y-101862976D02*
X69780533Y-101862976D01*
X69780533Y-101862976D02*
X69923390Y-101910595D01*
X69923390Y-101910595D02*
X70494819Y-102482023D01*
X70494819Y-102482023D02*
X70494819Y-101862976D01*
X70494819Y-100910595D02*
X70494819Y-101482023D01*
X70494819Y-101196309D02*
X69494819Y-101196309D01*
X69494819Y-101196309D02*
X69637676Y-101291547D01*
X69637676Y-101291547D02*
X69732914Y-101386785D01*
X69732914Y-101386785D02*
X69780533Y-101482023D01*
X141104819Y-79215357D02*
X140628628Y-79548690D01*
X141104819Y-79786785D02*
X140104819Y-79786785D01*
X140104819Y-79786785D02*
X140104819Y-79405833D01*
X140104819Y-79405833D02*
X140152438Y-79310595D01*
X140152438Y-79310595D02*
X140200057Y-79262976D01*
X140200057Y-79262976D02*
X140295295Y-79215357D01*
X140295295Y-79215357D02*
X140438152Y-79215357D01*
X140438152Y-79215357D02*
X140533390Y-79262976D01*
X140533390Y-79262976D02*
X140581009Y-79310595D01*
X140581009Y-79310595D02*
X140628628Y-79405833D01*
X140628628Y-79405833D02*
X140628628Y-79786785D01*
X140200057Y-78834404D02*
X140152438Y-78786785D01*
X140152438Y-78786785D02*
X140104819Y-78691547D01*
X140104819Y-78691547D02*
X140104819Y-78453452D01*
X140104819Y-78453452D02*
X140152438Y-78358214D01*
X140152438Y-78358214D02*
X140200057Y-78310595D01*
X140200057Y-78310595D02*
X140295295Y-78262976D01*
X140295295Y-78262976D02*
X140390533Y-78262976D01*
X140390533Y-78262976D02*
X140533390Y-78310595D01*
X140533390Y-78310595D02*
X141104819Y-78882023D01*
X141104819Y-78882023D02*
X141104819Y-78262976D01*
X140200057Y-77882023D02*
X140152438Y-77834404D01*
X140152438Y-77834404D02*
X140104819Y-77739166D01*
X140104819Y-77739166D02*
X140104819Y-77501071D01*
X140104819Y-77501071D02*
X140152438Y-77405833D01*
X140152438Y-77405833D02*
X140200057Y-77358214D01*
X140200057Y-77358214D02*
X140295295Y-77310595D01*
X140295295Y-77310595D02*
X140390533Y-77310595D01*
X140390533Y-77310595D02*
X140533390Y-77358214D01*
X140533390Y-77358214D02*
X141104819Y-77929642D01*
X141104819Y-77929642D02*
X141104819Y-77310595D01*
X53679580Y-132092857D02*
X53727200Y-132140476D01*
X53727200Y-132140476D02*
X53774819Y-132283333D01*
X53774819Y-132283333D02*
X53774819Y-132378571D01*
X53774819Y-132378571D02*
X53727200Y-132521428D01*
X53727200Y-132521428D02*
X53631961Y-132616666D01*
X53631961Y-132616666D02*
X53536723Y-132664285D01*
X53536723Y-132664285D02*
X53346247Y-132711904D01*
X53346247Y-132711904D02*
X53203390Y-132711904D01*
X53203390Y-132711904D02*
X53012914Y-132664285D01*
X53012914Y-132664285D02*
X52917676Y-132616666D01*
X52917676Y-132616666D02*
X52822438Y-132521428D01*
X52822438Y-132521428D02*
X52774819Y-132378571D01*
X52774819Y-132378571D02*
X52774819Y-132283333D01*
X52774819Y-132283333D02*
X52822438Y-132140476D01*
X52822438Y-132140476D02*
X52870057Y-132092857D01*
X53774819Y-131140476D02*
X53774819Y-131711904D01*
X53774819Y-131426190D02*
X52774819Y-131426190D01*
X52774819Y-131426190D02*
X52917676Y-131521428D01*
X52917676Y-131521428D02*
X53012914Y-131616666D01*
X53012914Y-131616666D02*
X53060533Y-131711904D01*
X53203390Y-130569047D02*
X53155771Y-130664285D01*
X53155771Y-130664285D02*
X53108152Y-130711904D01*
X53108152Y-130711904D02*
X53012914Y-130759523D01*
X53012914Y-130759523D02*
X52965295Y-130759523D01*
X52965295Y-130759523D02*
X52870057Y-130711904D01*
X52870057Y-130711904D02*
X52822438Y-130664285D01*
X52822438Y-130664285D02*
X52774819Y-130569047D01*
X52774819Y-130569047D02*
X52774819Y-130378571D01*
X52774819Y-130378571D02*
X52822438Y-130283333D01*
X52822438Y-130283333D02*
X52870057Y-130235714D01*
X52870057Y-130235714D02*
X52965295Y-130188095D01*
X52965295Y-130188095D02*
X53012914Y-130188095D01*
X53012914Y-130188095D02*
X53108152Y-130235714D01*
X53108152Y-130235714D02*
X53155771Y-130283333D01*
X53155771Y-130283333D02*
X53203390Y-130378571D01*
X53203390Y-130378571D02*
X53203390Y-130569047D01*
X53203390Y-130569047D02*
X53251009Y-130664285D01*
X53251009Y-130664285D02*
X53298628Y-130711904D01*
X53298628Y-130711904D02*
X53393866Y-130759523D01*
X53393866Y-130759523D02*
X53584342Y-130759523D01*
X53584342Y-130759523D02*
X53679580Y-130711904D01*
X53679580Y-130711904D02*
X53727200Y-130664285D01*
X53727200Y-130664285D02*
X53774819Y-130569047D01*
X53774819Y-130569047D02*
X53774819Y-130378571D01*
X53774819Y-130378571D02*
X53727200Y-130283333D01*
X53727200Y-130283333D02*
X53679580Y-130235714D01*
X53679580Y-130235714D02*
X53584342Y-130188095D01*
X53584342Y-130188095D02*
X53393866Y-130188095D01*
X53393866Y-130188095D02*
X53298628Y-130235714D01*
X53298628Y-130235714D02*
X53251009Y-130283333D01*
X53251009Y-130283333D02*
X53203390Y-130378571D01*
X130904819Y-110166666D02*
X130904819Y-110642856D01*
X130904819Y-110642856D02*
X129904819Y-110642856D01*
X129904819Y-109928570D02*
X129904819Y-109309523D01*
X129904819Y-109309523D02*
X130285771Y-109642856D01*
X130285771Y-109642856D02*
X130285771Y-109499999D01*
X130285771Y-109499999D02*
X130333390Y-109404761D01*
X130333390Y-109404761D02*
X130381009Y-109357142D01*
X130381009Y-109357142D02*
X130476247Y-109309523D01*
X130476247Y-109309523D02*
X130714342Y-109309523D01*
X130714342Y-109309523D02*
X130809580Y-109357142D01*
X130809580Y-109357142D02*
X130857200Y-109404761D01*
X130857200Y-109404761D02*
X130904819Y-109499999D01*
X130904819Y-109499999D02*
X130904819Y-109785713D01*
X130904819Y-109785713D02*
X130857200Y-109880951D01*
X130857200Y-109880951D02*
X130809580Y-109928570D01*
X91449642Y-129104819D02*
X91116309Y-128628628D01*
X90878214Y-129104819D02*
X90878214Y-128104819D01*
X90878214Y-128104819D02*
X91259166Y-128104819D01*
X91259166Y-128104819D02*
X91354404Y-128152438D01*
X91354404Y-128152438D02*
X91402023Y-128200057D01*
X91402023Y-128200057D02*
X91449642Y-128295295D01*
X91449642Y-128295295D02*
X91449642Y-128438152D01*
X91449642Y-128438152D02*
X91402023Y-128533390D01*
X91402023Y-128533390D02*
X91354404Y-128581009D01*
X91354404Y-128581009D02*
X91259166Y-128628628D01*
X91259166Y-128628628D02*
X90878214Y-128628628D01*
X92402023Y-129104819D02*
X91830595Y-129104819D01*
X92116309Y-129104819D02*
X92116309Y-128104819D01*
X92116309Y-128104819D02*
X92021071Y-128247676D01*
X92021071Y-128247676D02*
X91925833Y-128342914D01*
X91925833Y-128342914D02*
X91830595Y-128390533D01*
X92973452Y-128533390D02*
X92878214Y-128485771D01*
X92878214Y-128485771D02*
X92830595Y-128438152D01*
X92830595Y-128438152D02*
X92782976Y-128342914D01*
X92782976Y-128342914D02*
X92782976Y-128295295D01*
X92782976Y-128295295D02*
X92830595Y-128200057D01*
X92830595Y-128200057D02*
X92878214Y-128152438D01*
X92878214Y-128152438D02*
X92973452Y-128104819D01*
X92973452Y-128104819D02*
X93163928Y-128104819D01*
X93163928Y-128104819D02*
X93259166Y-128152438D01*
X93259166Y-128152438D02*
X93306785Y-128200057D01*
X93306785Y-128200057D02*
X93354404Y-128295295D01*
X93354404Y-128295295D02*
X93354404Y-128342914D01*
X93354404Y-128342914D02*
X93306785Y-128438152D01*
X93306785Y-128438152D02*
X93259166Y-128485771D01*
X93259166Y-128485771D02*
X93163928Y-128533390D01*
X93163928Y-128533390D02*
X92973452Y-128533390D01*
X92973452Y-128533390D02*
X92878214Y-128581009D01*
X92878214Y-128581009D02*
X92830595Y-128628628D01*
X92830595Y-128628628D02*
X92782976Y-128723866D01*
X92782976Y-128723866D02*
X92782976Y-128914342D01*
X92782976Y-128914342D02*
X92830595Y-129009580D01*
X92830595Y-129009580D02*
X92878214Y-129057200D01*
X92878214Y-129057200D02*
X92973452Y-129104819D01*
X92973452Y-129104819D02*
X93163928Y-129104819D01*
X93163928Y-129104819D02*
X93259166Y-129057200D01*
X93259166Y-129057200D02*
X93306785Y-129009580D01*
X93306785Y-129009580D02*
X93354404Y-128914342D01*
X93354404Y-128914342D02*
X93354404Y-128723866D01*
X93354404Y-128723866D02*
X93306785Y-128628628D01*
X93306785Y-128628628D02*
X93259166Y-128581009D01*
X93259166Y-128581009D02*
X93163928Y-128533390D01*
X113184819Y-107676785D02*
X112184819Y-107676785D01*
X112184819Y-107676785D02*
X112184819Y-107438690D01*
X112184819Y-107438690D02*
X112232438Y-107295833D01*
X112232438Y-107295833D02*
X112327676Y-107200595D01*
X112327676Y-107200595D02*
X112422914Y-107152976D01*
X112422914Y-107152976D02*
X112613390Y-107105357D01*
X112613390Y-107105357D02*
X112756247Y-107105357D01*
X112756247Y-107105357D02*
X112946723Y-107152976D01*
X112946723Y-107152976D02*
X113041961Y-107200595D01*
X113041961Y-107200595D02*
X113137200Y-107295833D01*
X113137200Y-107295833D02*
X113184819Y-107438690D01*
X113184819Y-107438690D02*
X113184819Y-107676785D01*
X112280057Y-106724404D02*
X112232438Y-106676785D01*
X112232438Y-106676785D02*
X112184819Y-106581547D01*
X112184819Y-106581547D02*
X112184819Y-106343452D01*
X112184819Y-106343452D02*
X112232438Y-106248214D01*
X112232438Y-106248214D02*
X112280057Y-106200595D01*
X112280057Y-106200595D02*
X112375295Y-106152976D01*
X112375295Y-106152976D02*
X112470533Y-106152976D01*
X112470533Y-106152976D02*
X112613390Y-106200595D01*
X112613390Y-106200595D02*
X113184819Y-106772023D01*
X113184819Y-106772023D02*
X113184819Y-106152976D01*
X112184819Y-105533928D02*
X112184819Y-105438690D01*
X112184819Y-105438690D02*
X112232438Y-105343452D01*
X112232438Y-105343452D02*
X112280057Y-105295833D01*
X112280057Y-105295833D02*
X112375295Y-105248214D01*
X112375295Y-105248214D02*
X112565771Y-105200595D01*
X112565771Y-105200595D02*
X112803866Y-105200595D01*
X112803866Y-105200595D02*
X112994342Y-105248214D01*
X112994342Y-105248214D02*
X113089580Y-105295833D01*
X113089580Y-105295833D02*
X113137200Y-105343452D01*
X113137200Y-105343452D02*
X113184819Y-105438690D01*
X113184819Y-105438690D02*
X113184819Y-105533928D01*
X113184819Y-105533928D02*
X113137200Y-105629166D01*
X113137200Y-105629166D02*
X113089580Y-105676785D01*
X113089580Y-105676785D02*
X112994342Y-105724404D01*
X112994342Y-105724404D02*
X112803866Y-105772023D01*
X112803866Y-105772023D02*
X112565771Y-105772023D01*
X112565771Y-105772023D02*
X112375295Y-105724404D01*
X112375295Y-105724404D02*
X112280057Y-105676785D01*
X112280057Y-105676785D02*
X112232438Y-105629166D01*
X112232438Y-105629166D02*
X112184819Y-105533928D01*
X41857142Y-127859580D02*
X41809523Y-127907200D01*
X41809523Y-127907200D02*
X41666666Y-127954819D01*
X41666666Y-127954819D02*
X41571428Y-127954819D01*
X41571428Y-127954819D02*
X41428571Y-127907200D01*
X41428571Y-127907200D02*
X41333333Y-127811961D01*
X41333333Y-127811961D02*
X41285714Y-127716723D01*
X41285714Y-127716723D02*
X41238095Y-127526247D01*
X41238095Y-127526247D02*
X41238095Y-127383390D01*
X41238095Y-127383390D02*
X41285714Y-127192914D01*
X41285714Y-127192914D02*
X41333333Y-127097676D01*
X41333333Y-127097676D02*
X41428571Y-127002438D01*
X41428571Y-127002438D02*
X41571428Y-126954819D01*
X41571428Y-126954819D02*
X41666666Y-126954819D01*
X41666666Y-126954819D02*
X41809523Y-127002438D01*
X41809523Y-127002438D02*
X41857142Y-127050057D01*
X42809523Y-127954819D02*
X42238095Y-127954819D01*
X42523809Y-127954819D02*
X42523809Y-126954819D01*
X42523809Y-126954819D02*
X42428571Y-127097676D01*
X42428571Y-127097676D02*
X42333333Y-127192914D01*
X42333333Y-127192914D02*
X42238095Y-127240533D01*
X43666666Y-126954819D02*
X43476190Y-126954819D01*
X43476190Y-126954819D02*
X43380952Y-127002438D01*
X43380952Y-127002438D02*
X43333333Y-127050057D01*
X43333333Y-127050057D02*
X43238095Y-127192914D01*
X43238095Y-127192914D02*
X43190476Y-127383390D01*
X43190476Y-127383390D02*
X43190476Y-127764342D01*
X43190476Y-127764342D02*
X43238095Y-127859580D01*
X43238095Y-127859580D02*
X43285714Y-127907200D01*
X43285714Y-127907200D02*
X43380952Y-127954819D01*
X43380952Y-127954819D02*
X43571428Y-127954819D01*
X43571428Y-127954819D02*
X43666666Y-127907200D01*
X43666666Y-127907200D02*
X43714285Y-127859580D01*
X43714285Y-127859580D02*
X43761904Y-127764342D01*
X43761904Y-127764342D02*
X43761904Y-127526247D01*
X43761904Y-127526247D02*
X43714285Y-127431009D01*
X43714285Y-127431009D02*
X43666666Y-127383390D01*
X43666666Y-127383390D02*
X43571428Y-127335771D01*
X43571428Y-127335771D02*
X43380952Y-127335771D01*
X43380952Y-127335771D02*
X43285714Y-127383390D01*
X43285714Y-127383390D02*
X43238095Y-127431009D01*
X43238095Y-127431009D02*
X43190476Y-127526247D01*
X115721401Y-80567842D02*
X115721401Y-81380706D01*
X115721401Y-81380706D02*
X115769217Y-81476337D01*
X115769217Y-81476337D02*
X115817032Y-81524153D01*
X115817032Y-81524153D02*
X115912663Y-81571968D01*
X115912663Y-81571968D02*
X116103925Y-81571968D01*
X116103925Y-81571968D02*
X116199556Y-81524153D01*
X116199556Y-81524153D02*
X116247372Y-81476337D01*
X116247372Y-81476337D02*
X116295187Y-81380706D01*
X116295187Y-81380706D02*
X116295187Y-80567842D01*
X117203683Y-80567842D02*
X117012421Y-80567842D01*
X117012421Y-80567842D02*
X116916790Y-80615658D01*
X116916790Y-80615658D02*
X116868974Y-80663473D01*
X116868974Y-80663473D02*
X116773343Y-80806920D01*
X116773343Y-80806920D02*
X116725528Y-80998182D01*
X116725528Y-80998182D02*
X116725528Y-81380706D01*
X116725528Y-81380706D02*
X116773343Y-81476337D01*
X116773343Y-81476337D02*
X116821159Y-81524153D01*
X116821159Y-81524153D02*
X116916790Y-81571968D01*
X116916790Y-81571968D02*
X117108052Y-81571968D01*
X117108052Y-81571968D02*
X117203683Y-81524153D01*
X117203683Y-81524153D02*
X117251498Y-81476337D01*
X117251498Y-81476337D02*
X117299314Y-81380706D01*
X117299314Y-81380706D02*
X117299314Y-81141628D01*
X117299314Y-81141628D02*
X117251498Y-81045997D01*
X117251498Y-81045997D02*
X117203683Y-80998182D01*
X117203683Y-80998182D02*
X117108052Y-80950366D01*
X117108052Y-80950366D02*
X116916790Y-80950366D01*
X116916790Y-80950366D02*
X116821159Y-80998182D01*
X116821159Y-80998182D02*
X116773343Y-81045997D01*
X116773343Y-81045997D02*
X116725528Y-81141628D01*
X75994819Y-103386785D02*
X74994819Y-103386785D01*
X74994819Y-103386785D02*
X74994819Y-103148690D01*
X74994819Y-103148690D02*
X75042438Y-103005833D01*
X75042438Y-103005833D02*
X75137676Y-102910595D01*
X75137676Y-102910595D02*
X75232914Y-102862976D01*
X75232914Y-102862976D02*
X75423390Y-102815357D01*
X75423390Y-102815357D02*
X75566247Y-102815357D01*
X75566247Y-102815357D02*
X75756723Y-102862976D01*
X75756723Y-102862976D02*
X75851961Y-102910595D01*
X75851961Y-102910595D02*
X75947200Y-103005833D01*
X75947200Y-103005833D02*
X75994819Y-103148690D01*
X75994819Y-103148690D02*
X75994819Y-103386785D01*
X75090057Y-102434404D02*
X75042438Y-102386785D01*
X75042438Y-102386785D02*
X74994819Y-102291547D01*
X74994819Y-102291547D02*
X74994819Y-102053452D01*
X74994819Y-102053452D02*
X75042438Y-101958214D01*
X75042438Y-101958214D02*
X75090057Y-101910595D01*
X75090057Y-101910595D02*
X75185295Y-101862976D01*
X75185295Y-101862976D02*
X75280533Y-101862976D01*
X75280533Y-101862976D02*
X75423390Y-101910595D01*
X75423390Y-101910595D02*
X75994819Y-102482023D01*
X75994819Y-102482023D02*
X75994819Y-101862976D01*
X74994819Y-101529642D02*
X74994819Y-100862976D01*
X74994819Y-100862976D02*
X75994819Y-101291547D01*
X95449642Y-125804819D02*
X95116309Y-125328628D01*
X94878214Y-125804819D02*
X94878214Y-124804819D01*
X94878214Y-124804819D02*
X95259166Y-124804819D01*
X95259166Y-124804819D02*
X95354404Y-124852438D01*
X95354404Y-124852438D02*
X95402023Y-124900057D01*
X95402023Y-124900057D02*
X95449642Y-124995295D01*
X95449642Y-124995295D02*
X95449642Y-125138152D01*
X95449642Y-125138152D02*
X95402023Y-125233390D01*
X95402023Y-125233390D02*
X95354404Y-125281009D01*
X95354404Y-125281009D02*
X95259166Y-125328628D01*
X95259166Y-125328628D02*
X94878214Y-125328628D01*
X95782976Y-124804819D02*
X96402023Y-124804819D01*
X96402023Y-124804819D02*
X96068690Y-125185771D01*
X96068690Y-125185771D02*
X96211547Y-125185771D01*
X96211547Y-125185771D02*
X96306785Y-125233390D01*
X96306785Y-125233390D02*
X96354404Y-125281009D01*
X96354404Y-125281009D02*
X96402023Y-125376247D01*
X96402023Y-125376247D02*
X96402023Y-125614342D01*
X96402023Y-125614342D02*
X96354404Y-125709580D01*
X96354404Y-125709580D02*
X96306785Y-125757200D01*
X96306785Y-125757200D02*
X96211547Y-125804819D01*
X96211547Y-125804819D02*
X95925833Y-125804819D01*
X95925833Y-125804819D02*
X95830595Y-125757200D01*
X95830595Y-125757200D02*
X95782976Y-125709580D01*
X97259166Y-124804819D02*
X97068690Y-124804819D01*
X97068690Y-124804819D02*
X96973452Y-124852438D01*
X96973452Y-124852438D02*
X96925833Y-124900057D01*
X96925833Y-124900057D02*
X96830595Y-125042914D01*
X96830595Y-125042914D02*
X96782976Y-125233390D01*
X96782976Y-125233390D02*
X96782976Y-125614342D01*
X96782976Y-125614342D02*
X96830595Y-125709580D01*
X96830595Y-125709580D02*
X96878214Y-125757200D01*
X96878214Y-125757200D02*
X96973452Y-125804819D01*
X96973452Y-125804819D02*
X97163928Y-125804819D01*
X97163928Y-125804819D02*
X97259166Y-125757200D01*
X97259166Y-125757200D02*
X97306785Y-125709580D01*
X97306785Y-125709580D02*
X97354404Y-125614342D01*
X97354404Y-125614342D02*
X97354404Y-125376247D01*
X97354404Y-125376247D02*
X97306785Y-125281009D01*
X97306785Y-125281009D02*
X97259166Y-125233390D01*
X97259166Y-125233390D02*
X97163928Y-125185771D01*
X97163928Y-125185771D02*
X96973452Y-125185771D01*
X96973452Y-125185771D02*
X96878214Y-125233390D01*
X96878214Y-125233390D02*
X96830595Y-125281009D01*
X96830595Y-125281009D02*
X96782976Y-125376247D01*
X123184819Y-102692857D02*
X122708628Y-103026190D01*
X123184819Y-103264285D02*
X122184819Y-103264285D01*
X122184819Y-103264285D02*
X122184819Y-102883333D01*
X122184819Y-102883333D02*
X122232438Y-102788095D01*
X122232438Y-102788095D02*
X122280057Y-102740476D01*
X122280057Y-102740476D02*
X122375295Y-102692857D01*
X122375295Y-102692857D02*
X122518152Y-102692857D01*
X122518152Y-102692857D02*
X122613390Y-102740476D01*
X122613390Y-102740476D02*
X122661009Y-102788095D01*
X122661009Y-102788095D02*
X122708628Y-102883333D01*
X122708628Y-102883333D02*
X122708628Y-103264285D01*
X122184819Y-102359523D02*
X122184819Y-101740476D01*
X122184819Y-101740476D02*
X122565771Y-102073809D01*
X122565771Y-102073809D02*
X122565771Y-101930952D01*
X122565771Y-101930952D02*
X122613390Y-101835714D01*
X122613390Y-101835714D02*
X122661009Y-101788095D01*
X122661009Y-101788095D02*
X122756247Y-101740476D01*
X122756247Y-101740476D02*
X122994342Y-101740476D01*
X122994342Y-101740476D02*
X123089580Y-101788095D01*
X123089580Y-101788095D02*
X123137200Y-101835714D01*
X123137200Y-101835714D02*
X123184819Y-101930952D01*
X123184819Y-101930952D02*
X123184819Y-102216666D01*
X123184819Y-102216666D02*
X123137200Y-102311904D01*
X123137200Y-102311904D02*
X123089580Y-102359523D01*
X123184819Y-100788095D02*
X123184819Y-101359523D01*
X123184819Y-101073809D02*
X122184819Y-101073809D01*
X122184819Y-101073809D02*
X122327676Y-101169047D01*
X122327676Y-101169047D02*
X122422914Y-101264285D01*
X122422914Y-101264285D02*
X122470533Y-101359523D01*
X142857142Y-129859580D02*
X142809523Y-129907200D01*
X142809523Y-129907200D02*
X142666666Y-129954819D01*
X142666666Y-129954819D02*
X142571428Y-129954819D01*
X142571428Y-129954819D02*
X142428571Y-129907200D01*
X142428571Y-129907200D02*
X142333333Y-129811961D01*
X142333333Y-129811961D02*
X142285714Y-129716723D01*
X142285714Y-129716723D02*
X142238095Y-129526247D01*
X142238095Y-129526247D02*
X142238095Y-129383390D01*
X142238095Y-129383390D02*
X142285714Y-129192914D01*
X142285714Y-129192914D02*
X142333333Y-129097676D01*
X142333333Y-129097676D02*
X142428571Y-129002438D01*
X142428571Y-129002438D02*
X142571428Y-128954819D01*
X142571428Y-128954819D02*
X142666666Y-128954819D01*
X142666666Y-128954819D02*
X142809523Y-129002438D01*
X142809523Y-129002438D02*
X142857142Y-129050057D01*
X143238095Y-129050057D02*
X143285714Y-129002438D01*
X143285714Y-129002438D02*
X143380952Y-128954819D01*
X143380952Y-128954819D02*
X143619047Y-128954819D01*
X143619047Y-128954819D02*
X143714285Y-129002438D01*
X143714285Y-129002438D02*
X143761904Y-129050057D01*
X143761904Y-129050057D02*
X143809523Y-129145295D01*
X143809523Y-129145295D02*
X143809523Y-129240533D01*
X143809523Y-129240533D02*
X143761904Y-129383390D01*
X143761904Y-129383390D02*
X143190476Y-129954819D01*
X143190476Y-129954819D02*
X143809523Y-129954819D01*
X144380952Y-129383390D02*
X144285714Y-129335771D01*
X144285714Y-129335771D02*
X144238095Y-129288152D01*
X144238095Y-129288152D02*
X144190476Y-129192914D01*
X144190476Y-129192914D02*
X144190476Y-129145295D01*
X144190476Y-129145295D02*
X144238095Y-129050057D01*
X144238095Y-129050057D02*
X144285714Y-129002438D01*
X144285714Y-129002438D02*
X144380952Y-128954819D01*
X144380952Y-128954819D02*
X144571428Y-128954819D01*
X144571428Y-128954819D02*
X144666666Y-129002438D01*
X144666666Y-129002438D02*
X144714285Y-129050057D01*
X144714285Y-129050057D02*
X144761904Y-129145295D01*
X144761904Y-129145295D02*
X144761904Y-129192914D01*
X144761904Y-129192914D02*
X144714285Y-129288152D01*
X144714285Y-129288152D02*
X144666666Y-129335771D01*
X144666666Y-129335771D02*
X144571428Y-129383390D01*
X144571428Y-129383390D02*
X144380952Y-129383390D01*
X144380952Y-129383390D02*
X144285714Y-129431009D01*
X144285714Y-129431009D02*
X144238095Y-129478628D01*
X144238095Y-129478628D02*
X144190476Y-129573866D01*
X144190476Y-129573866D02*
X144190476Y-129764342D01*
X144190476Y-129764342D02*
X144238095Y-129859580D01*
X144238095Y-129859580D02*
X144285714Y-129907200D01*
X144285714Y-129907200D02*
X144380952Y-129954819D01*
X144380952Y-129954819D02*
X144571428Y-129954819D01*
X144571428Y-129954819D02*
X144666666Y-129907200D01*
X144666666Y-129907200D02*
X144714285Y-129859580D01*
X144714285Y-129859580D02*
X144761904Y-129764342D01*
X144761904Y-129764342D02*
X144761904Y-129573866D01*
X144761904Y-129573866D02*
X144714285Y-129478628D01*
X144714285Y-129478628D02*
X144666666Y-129431009D01*
X144666666Y-129431009D02*
X144571428Y-129383390D01*
X146757142Y-126304819D02*
X146423809Y-125828628D01*
X146185714Y-126304819D02*
X146185714Y-125304819D01*
X146185714Y-125304819D02*
X146566666Y-125304819D01*
X146566666Y-125304819D02*
X146661904Y-125352438D01*
X146661904Y-125352438D02*
X146709523Y-125400057D01*
X146709523Y-125400057D02*
X146757142Y-125495295D01*
X146757142Y-125495295D02*
X146757142Y-125638152D01*
X146757142Y-125638152D02*
X146709523Y-125733390D01*
X146709523Y-125733390D02*
X146661904Y-125781009D01*
X146661904Y-125781009D02*
X146566666Y-125828628D01*
X146566666Y-125828628D02*
X146185714Y-125828628D01*
X147090476Y-125304819D02*
X147709523Y-125304819D01*
X147709523Y-125304819D02*
X147376190Y-125685771D01*
X147376190Y-125685771D02*
X147519047Y-125685771D01*
X147519047Y-125685771D02*
X147614285Y-125733390D01*
X147614285Y-125733390D02*
X147661904Y-125781009D01*
X147661904Y-125781009D02*
X147709523Y-125876247D01*
X147709523Y-125876247D02*
X147709523Y-126114342D01*
X147709523Y-126114342D02*
X147661904Y-126209580D01*
X147661904Y-126209580D02*
X147614285Y-126257200D01*
X147614285Y-126257200D02*
X147519047Y-126304819D01*
X147519047Y-126304819D02*
X147233333Y-126304819D01*
X147233333Y-126304819D02*
X147138095Y-126257200D01*
X147138095Y-126257200D02*
X147090476Y-126209580D01*
X148042857Y-125304819D02*
X148709523Y-125304819D01*
X148709523Y-125304819D02*
X148280952Y-126304819D01*
X135857142Y-119359580D02*
X135809523Y-119407200D01*
X135809523Y-119407200D02*
X135666666Y-119454819D01*
X135666666Y-119454819D02*
X135571428Y-119454819D01*
X135571428Y-119454819D02*
X135428571Y-119407200D01*
X135428571Y-119407200D02*
X135333333Y-119311961D01*
X135333333Y-119311961D02*
X135285714Y-119216723D01*
X135285714Y-119216723D02*
X135238095Y-119026247D01*
X135238095Y-119026247D02*
X135238095Y-118883390D01*
X135238095Y-118883390D02*
X135285714Y-118692914D01*
X135285714Y-118692914D02*
X135333333Y-118597676D01*
X135333333Y-118597676D02*
X135428571Y-118502438D01*
X135428571Y-118502438D02*
X135571428Y-118454819D01*
X135571428Y-118454819D02*
X135666666Y-118454819D01*
X135666666Y-118454819D02*
X135809523Y-118502438D01*
X135809523Y-118502438D02*
X135857142Y-118550057D01*
X136714285Y-118788152D02*
X136714285Y-119454819D01*
X136476190Y-118407200D02*
X136238095Y-119121485D01*
X136238095Y-119121485D02*
X136857142Y-119121485D01*
X137190476Y-118550057D02*
X137238095Y-118502438D01*
X137238095Y-118502438D02*
X137333333Y-118454819D01*
X137333333Y-118454819D02*
X137571428Y-118454819D01*
X137571428Y-118454819D02*
X137666666Y-118502438D01*
X137666666Y-118502438D02*
X137714285Y-118550057D01*
X137714285Y-118550057D02*
X137761904Y-118645295D01*
X137761904Y-118645295D02*
X137761904Y-118740533D01*
X137761904Y-118740533D02*
X137714285Y-118883390D01*
X137714285Y-118883390D02*
X137142857Y-119454819D01*
X137142857Y-119454819D02*
X137761904Y-119454819D01*
X49994819Y-100214285D02*
X48994819Y-100214285D01*
X48994819Y-100214285D02*
X48994819Y-99976190D01*
X48994819Y-99976190D02*
X49042438Y-99833333D01*
X49042438Y-99833333D02*
X49137676Y-99738095D01*
X49137676Y-99738095D02*
X49232914Y-99690476D01*
X49232914Y-99690476D02*
X49423390Y-99642857D01*
X49423390Y-99642857D02*
X49566247Y-99642857D01*
X49566247Y-99642857D02*
X49756723Y-99690476D01*
X49756723Y-99690476D02*
X49851961Y-99738095D01*
X49851961Y-99738095D02*
X49947200Y-99833333D01*
X49947200Y-99833333D02*
X49994819Y-99976190D01*
X49994819Y-99976190D02*
X49994819Y-100214285D01*
X49090057Y-99261904D02*
X49042438Y-99214285D01*
X49042438Y-99214285D02*
X48994819Y-99119047D01*
X48994819Y-99119047D02*
X48994819Y-98880952D01*
X48994819Y-98880952D02*
X49042438Y-98785714D01*
X49042438Y-98785714D02*
X49090057Y-98738095D01*
X49090057Y-98738095D02*
X49185295Y-98690476D01*
X49185295Y-98690476D02*
X49280533Y-98690476D01*
X49280533Y-98690476D02*
X49423390Y-98738095D01*
X49423390Y-98738095D02*
X49994819Y-99309523D01*
X49994819Y-99309523D02*
X49994819Y-98690476D01*
X48994819Y-97785714D02*
X48994819Y-98261904D01*
X48994819Y-98261904D02*
X49471009Y-98309523D01*
X49471009Y-98309523D02*
X49423390Y-98261904D01*
X49423390Y-98261904D02*
X49375771Y-98166666D01*
X49375771Y-98166666D02*
X49375771Y-97928571D01*
X49375771Y-97928571D02*
X49423390Y-97833333D01*
X49423390Y-97833333D02*
X49471009Y-97785714D01*
X49471009Y-97785714D02*
X49566247Y-97738095D01*
X49566247Y-97738095D02*
X49804342Y-97738095D01*
X49804342Y-97738095D02*
X49899580Y-97785714D01*
X49899580Y-97785714D02*
X49947200Y-97833333D01*
X49947200Y-97833333D02*
X49994819Y-97928571D01*
X49994819Y-97928571D02*
X49994819Y-98166666D01*
X49994819Y-98166666D02*
X49947200Y-98261904D01*
X49947200Y-98261904D02*
X49899580Y-98309523D01*
X127704819Y-79982857D02*
X127228628Y-80316190D01*
X127704819Y-80554285D02*
X126704819Y-80554285D01*
X126704819Y-80554285D02*
X126704819Y-80173333D01*
X126704819Y-80173333D02*
X126752438Y-80078095D01*
X126752438Y-80078095D02*
X126800057Y-80030476D01*
X126800057Y-80030476D02*
X126895295Y-79982857D01*
X126895295Y-79982857D02*
X127038152Y-79982857D01*
X127038152Y-79982857D02*
X127133390Y-80030476D01*
X127133390Y-80030476D02*
X127181009Y-80078095D01*
X127181009Y-80078095D02*
X127228628Y-80173333D01*
X127228628Y-80173333D02*
X127228628Y-80554285D01*
X126800057Y-79601904D02*
X126752438Y-79554285D01*
X126752438Y-79554285D02*
X126704819Y-79459047D01*
X126704819Y-79459047D02*
X126704819Y-79220952D01*
X126704819Y-79220952D02*
X126752438Y-79125714D01*
X126752438Y-79125714D02*
X126800057Y-79078095D01*
X126800057Y-79078095D02*
X126895295Y-79030476D01*
X126895295Y-79030476D02*
X126990533Y-79030476D01*
X126990533Y-79030476D02*
X127133390Y-79078095D01*
X127133390Y-79078095D02*
X127704819Y-79649523D01*
X127704819Y-79649523D02*
X127704819Y-79030476D01*
X126704819Y-78411428D02*
X126704819Y-78316190D01*
X126704819Y-78316190D02*
X126752438Y-78220952D01*
X126752438Y-78220952D02*
X126800057Y-78173333D01*
X126800057Y-78173333D02*
X126895295Y-78125714D01*
X126895295Y-78125714D02*
X127085771Y-78078095D01*
X127085771Y-78078095D02*
X127323866Y-78078095D01*
X127323866Y-78078095D02*
X127514342Y-78125714D01*
X127514342Y-78125714D02*
X127609580Y-78173333D01*
X127609580Y-78173333D02*
X127657200Y-78220952D01*
X127657200Y-78220952D02*
X127704819Y-78316190D01*
X127704819Y-78316190D02*
X127704819Y-78411428D01*
X127704819Y-78411428D02*
X127657200Y-78506666D01*
X127657200Y-78506666D02*
X127609580Y-78554285D01*
X127609580Y-78554285D02*
X127514342Y-78601904D01*
X127514342Y-78601904D02*
X127323866Y-78649523D01*
X127323866Y-78649523D02*
X127085771Y-78649523D01*
X127085771Y-78649523D02*
X126895295Y-78601904D01*
X126895295Y-78601904D02*
X126800057Y-78554285D01*
X126800057Y-78554285D02*
X126752438Y-78506666D01*
X126752438Y-78506666D02*
X126704819Y-78411428D01*
X132807142Y-114679580D02*
X132759523Y-114727200D01*
X132759523Y-114727200D02*
X132616666Y-114774819D01*
X132616666Y-114774819D02*
X132521428Y-114774819D01*
X132521428Y-114774819D02*
X132378571Y-114727200D01*
X132378571Y-114727200D02*
X132283333Y-114631961D01*
X132283333Y-114631961D02*
X132235714Y-114536723D01*
X132235714Y-114536723D02*
X132188095Y-114346247D01*
X132188095Y-114346247D02*
X132188095Y-114203390D01*
X132188095Y-114203390D02*
X132235714Y-114012914D01*
X132235714Y-114012914D02*
X132283333Y-113917676D01*
X132283333Y-113917676D02*
X132378571Y-113822438D01*
X132378571Y-113822438D02*
X132521428Y-113774819D01*
X132521428Y-113774819D02*
X132616666Y-113774819D01*
X132616666Y-113774819D02*
X132759523Y-113822438D01*
X132759523Y-113822438D02*
X132807142Y-113870057D01*
X133711904Y-113774819D02*
X133235714Y-113774819D01*
X133235714Y-113774819D02*
X133188095Y-114251009D01*
X133188095Y-114251009D02*
X133235714Y-114203390D01*
X133235714Y-114203390D02*
X133330952Y-114155771D01*
X133330952Y-114155771D02*
X133569047Y-114155771D01*
X133569047Y-114155771D02*
X133664285Y-114203390D01*
X133664285Y-114203390D02*
X133711904Y-114251009D01*
X133711904Y-114251009D02*
X133759523Y-114346247D01*
X133759523Y-114346247D02*
X133759523Y-114584342D01*
X133759523Y-114584342D02*
X133711904Y-114679580D01*
X133711904Y-114679580D02*
X133664285Y-114727200D01*
X133664285Y-114727200D02*
X133569047Y-114774819D01*
X133569047Y-114774819D02*
X133330952Y-114774819D01*
X133330952Y-114774819D02*
X133235714Y-114727200D01*
X133235714Y-114727200D02*
X133188095Y-114679580D01*
X134378571Y-113774819D02*
X134473809Y-113774819D01*
X134473809Y-113774819D02*
X134569047Y-113822438D01*
X134569047Y-113822438D02*
X134616666Y-113870057D01*
X134616666Y-113870057D02*
X134664285Y-113965295D01*
X134664285Y-113965295D02*
X134711904Y-114155771D01*
X134711904Y-114155771D02*
X134711904Y-114393866D01*
X134711904Y-114393866D02*
X134664285Y-114584342D01*
X134664285Y-114584342D02*
X134616666Y-114679580D01*
X134616666Y-114679580D02*
X134569047Y-114727200D01*
X134569047Y-114727200D02*
X134473809Y-114774819D01*
X134473809Y-114774819D02*
X134378571Y-114774819D01*
X134378571Y-114774819D02*
X134283333Y-114727200D01*
X134283333Y-114727200D02*
X134235714Y-114679580D01*
X134235714Y-114679580D02*
X134188095Y-114584342D01*
X134188095Y-114584342D02*
X134140476Y-114393866D01*
X134140476Y-114393866D02*
X134140476Y-114155771D01*
X134140476Y-114155771D02*
X134188095Y-113965295D01*
X134188095Y-113965295D02*
X134235714Y-113870057D01*
X134235714Y-113870057D02*
X134283333Y-113822438D01*
X134283333Y-113822438D02*
X134378571Y-113774819D01*
X112254819Y-79730357D02*
X111778628Y-80063690D01*
X112254819Y-80301785D02*
X111254819Y-80301785D01*
X111254819Y-80301785D02*
X111254819Y-79920833D01*
X111254819Y-79920833D02*
X111302438Y-79825595D01*
X111302438Y-79825595D02*
X111350057Y-79777976D01*
X111350057Y-79777976D02*
X111445295Y-79730357D01*
X111445295Y-79730357D02*
X111588152Y-79730357D01*
X111588152Y-79730357D02*
X111683390Y-79777976D01*
X111683390Y-79777976D02*
X111731009Y-79825595D01*
X111731009Y-79825595D02*
X111778628Y-79920833D01*
X111778628Y-79920833D02*
X111778628Y-80301785D01*
X111350057Y-79349404D02*
X111302438Y-79301785D01*
X111302438Y-79301785D02*
X111254819Y-79206547D01*
X111254819Y-79206547D02*
X111254819Y-78968452D01*
X111254819Y-78968452D02*
X111302438Y-78873214D01*
X111302438Y-78873214D02*
X111350057Y-78825595D01*
X111350057Y-78825595D02*
X111445295Y-78777976D01*
X111445295Y-78777976D02*
X111540533Y-78777976D01*
X111540533Y-78777976D02*
X111683390Y-78825595D01*
X111683390Y-78825595D02*
X112254819Y-79397023D01*
X112254819Y-79397023D02*
X112254819Y-78777976D01*
X112254819Y-77825595D02*
X112254819Y-78397023D01*
X112254819Y-78111309D02*
X111254819Y-78111309D01*
X111254819Y-78111309D02*
X111397676Y-78206547D01*
X111397676Y-78206547D02*
X111492914Y-78301785D01*
X111492914Y-78301785D02*
X111540533Y-78397023D01*
X161733333Y-105404819D02*
X161257143Y-105404819D01*
X161257143Y-105404819D02*
X161257143Y-104404819D01*
X162019048Y-104500057D02*
X162066667Y-104452438D01*
X162066667Y-104452438D02*
X162161905Y-104404819D01*
X162161905Y-104404819D02*
X162400000Y-104404819D01*
X162400000Y-104404819D02*
X162495238Y-104452438D01*
X162495238Y-104452438D02*
X162542857Y-104500057D01*
X162542857Y-104500057D02*
X162590476Y-104595295D01*
X162590476Y-104595295D02*
X162590476Y-104690533D01*
X162590476Y-104690533D02*
X162542857Y-104833390D01*
X162542857Y-104833390D02*
X161971429Y-105404819D01*
X161971429Y-105404819D02*
X162590476Y-105404819D01*
X140919580Y-131642857D02*
X140967200Y-131690476D01*
X140967200Y-131690476D02*
X141014819Y-131833333D01*
X141014819Y-131833333D02*
X141014819Y-131928571D01*
X141014819Y-131928571D02*
X140967200Y-132071428D01*
X140967200Y-132071428D02*
X140871961Y-132166666D01*
X140871961Y-132166666D02*
X140776723Y-132214285D01*
X140776723Y-132214285D02*
X140586247Y-132261904D01*
X140586247Y-132261904D02*
X140443390Y-132261904D01*
X140443390Y-132261904D02*
X140252914Y-132214285D01*
X140252914Y-132214285D02*
X140157676Y-132166666D01*
X140157676Y-132166666D02*
X140062438Y-132071428D01*
X140062438Y-132071428D02*
X140014819Y-131928571D01*
X140014819Y-131928571D02*
X140014819Y-131833333D01*
X140014819Y-131833333D02*
X140062438Y-131690476D01*
X140062438Y-131690476D02*
X140110057Y-131642857D01*
X140110057Y-131261904D02*
X140062438Y-131214285D01*
X140062438Y-131214285D02*
X140014819Y-131119047D01*
X140014819Y-131119047D02*
X140014819Y-130880952D01*
X140014819Y-130880952D02*
X140062438Y-130785714D01*
X140062438Y-130785714D02*
X140110057Y-130738095D01*
X140110057Y-130738095D02*
X140205295Y-130690476D01*
X140205295Y-130690476D02*
X140300533Y-130690476D01*
X140300533Y-130690476D02*
X140443390Y-130738095D01*
X140443390Y-130738095D02*
X141014819Y-131309523D01*
X141014819Y-131309523D02*
X141014819Y-130690476D01*
X140348152Y-129833333D02*
X141014819Y-129833333D01*
X139967200Y-130071428D02*
X140681485Y-130309523D01*
X140681485Y-130309523D02*
X140681485Y-129690476D01*
X116384819Y-124764285D02*
X115384819Y-124764285D01*
X115384819Y-124764285D02*
X115384819Y-124526190D01*
X115384819Y-124526190D02*
X115432438Y-124383333D01*
X115432438Y-124383333D02*
X115527676Y-124288095D01*
X115527676Y-124288095D02*
X115622914Y-124240476D01*
X115622914Y-124240476D02*
X115813390Y-124192857D01*
X115813390Y-124192857D02*
X115956247Y-124192857D01*
X115956247Y-124192857D02*
X116146723Y-124240476D01*
X116146723Y-124240476D02*
X116241961Y-124288095D01*
X116241961Y-124288095D02*
X116337200Y-124383333D01*
X116337200Y-124383333D02*
X116384819Y-124526190D01*
X116384819Y-124526190D02*
X116384819Y-124764285D01*
X116384819Y-123240476D02*
X116384819Y-123811904D01*
X116384819Y-123526190D02*
X115384819Y-123526190D01*
X115384819Y-123526190D02*
X115527676Y-123621428D01*
X115527676Y-123621428D02*
X115622914Y-123716666D01*
X115622914Y-123716666D02*
X115670533Y-123811904D01*
X115384819Y-122383333D02*
X115384819Y-122573809D01*
X115384819Y-122573809D02*
X115432438Y-122669047D01*
X115432438Y-122669047D02*
X115480057Y-122716666D01*
X115480057Y-122716666D02*
X115622914Y-122811904D01*
X115622914Y-122811904D02*
X115813390Y-122859523D01*
X115813390Y-122859523D02*
X116194342Y-122859523D01*
X116194342Y-122859523D02*
X116289580Y-122811904D01*
X116289580Y-122811904D02*
X116337200Y-122764285D01*
X116337200Y-122764285D02*
X116384819Y-122669047D01*
X116384819Y-122669047D02*
X116384819Y-122478571D01*
X116384819Y-122478571D02*
X116337200Y-122383333D01*
X116337200Y-122383333D02*
X116289580Y-122335714D01*
X116289580Y-122335714D02*
X116194342Y-122288095D01*
X116194342Y-122288095D02*
X115956247Y-122288095D01*
X115956247Y-122288095D02*
X115861009Y-122335714D01*
X115861009Y-122335714D02*
X115813390Y-122383333D01*
X115813390Y-122383333D02*
X115765771Y-122478571D01*
X115765771Y-122478571D02*
X115765771Y-122669047D01*
X115765771Y-122669047D02*
X115813390Y-122764285D01*
X115813390Y-122764285D02*
X115861009Y-122811904D01*
X115861009Y-122811904D02*
X115956247Y-122859523D01*
X87537142Y-125679580D02*
X87489523Y-125727200D01*
X87489523Y-125727200D02*
X87346666Y-125774819D01*
X87346666Y-125774819D02*
X87251428Y-125774819D01*
X87251428Y-125774819D02*
X87108571Y-125727200D01*
X87108571Y-125727200D02*
X87013333Y-125631961D01*
X87013333Y-125631961D02*
X86965714Y-125536723D01*
X86965714Y-125536723D02*
X86918095Y-125346247D01*
X86918095Y-125346247D02*
X86918095Y-125203390D01*
X86918095Y-125203390D02*
X86965714Y-125012914D01*
X86965714Y-125012914D02*
X87013333Y-124917676D01*
X87013333Y-124917676D02*
X87108571Y-124822438D01*
X87108571Y-124822438D02*
X87251428Y-124774819D01*
X87251428Y-124774819D02*
X87346666Y-124774819D01*
X87346666Y-124774819D02*
X87489523Y-124822438D01*
X87489523Y-124822438D02*
X87537142Y-124870057D01*
X88489523Y-125774819D02*
X87918095Y-125774819D01*
X88203809Y-125774819D02*
X88203809Y-124774819D01*
X88203809Y-124774819D02*
X88108571Y-124917676D01*
X88108571Y-124917676D02*
X88013333Y-125012914D01*
X88013333Y-125012914D02*
X87918095Y-125060533D01*
X88870476Y-124870057D02*
X88918095Y-124822438D01*
X88918095Y-124822438D02*
X89013333Y-124774819D01*
X89013333Y-124774819D02*
X89251428Y-124774819D01*
X89251428Y-124774819D02*
X89346666Y-124822438D01*
X89346666Y-124822438D02*
X89394285Y-124870057D01*
X89394285Y-124870057D02*
X89441904Y-124965295D01*
X89441904Y-124965295D02*
X89441904Y-125060533D01*
X89441904Y-125060533D02*
X89394285Y-125203390D01*
X89394285Y-125203390D02*
X88822857Y-125774819D01*
X88822857Y-125774819D02*
X89441904Y-125774819D01*
X153579580Y-121692857D02*
X153627200Y-121740476D01*
X153627200Y-121740476D02*
X153674819Y-121883333D01*
X153674819Y-121883333D02*
X153674819Y-121978571D01*
X153674819Y-121978571D02*
X153627200Y-122121428D01*
X153627200Y-122121428D02*
X153531961Y-122216666D01*
X153531961Y-122216666D02*
X153436723Y-122264285D01*
X153436723Y-122264285D02*
X153246247Y-122311904D01*
X153246247Y-122311904D02*
X153103390Y-122311904D01*
X153103390Y-122311904D02*
X152912914Y-122264285D01*
X152912914Y-122264285D02*
X152817676Y-122216666D01*
X152817676Y-122216666D02*
X152722438Y-122121428D01*
X152722438Y-122121428D02*
X152674819Y-121978571D01*
X152674819Y-121978571D02*
X152674819Y-121883333D01*
X152674819Y-121883333D02*
X152722438Y-121740476D01*
X152722438Y-121740476D02*
X152770057Y-121692857D01*
X152770057Y-121311904D02*
X152722438Y-121264285D01*
X152722438Y-121264285D02*
X152674819Y-121169047D01*
X152674819Y-121169047D02*
X152674819Y-120930952D01*
X152674819Y-120930952D02*
X152722438Y-120835714D01*
X152722438Y-120835714D02*
X152770057Y-120788095D01*
X152770057Y-120788095D02*
X152865295Y-120740476D01*
X152865295Y-120740476D02*
X152960533Y-120740476D01*
X152960533Y-120740476D02*
X153103390Y-120788095D01*
X153103390Y-120788095D02*
X153674819Y-121359523D01*
X153674819Y-121359523D02*
X153674819Y-120740476D01*
X153674819Y-119788095D02*
X153674819Y-120359523D01*
X153674819Y-120073809D02*
X152674819Y-120073809D01*
X152674819Y-120073809D02*
X152817676Y-120169047D01*
X152817676Y-120169047D02*
X152912914Y-120264285D01*
X152912914Y-120264285D02*
X152960533Y-120359523D01*
X111884819Y-124764285D02*
X110884819Y-124764285D01*
X110884819Y-124764285D02*
X110884819Y-124526190D01*
X110884819Y-124526190D02*
X110932438Y-124383333D01*
X110932438Y-124383333D02*
X111027676Y-124288095D01*
X111027676Y-124288095D02*
X111122914Y-124240476D01*
X111122914Y-124240476D02*
X111313390Y-124192857D01*
X111313390Y-124192857D02*
X111456247Y-124192857D01*
X111456247Y-124192857D02*
X111646723Y-124240476D01*
X111646723Y-124240476D02*
X111741961Y-124288095D01*
X111741961Y-124288095D02*
X111837200Y-124383333D01*
X111837200Y-124383333D02*
X111884819Y-124526190D01*
X111884819Y-124526190D02*
X111884819Y-124764285D01*
X111884819Y-123240476D02*
X111884819Y-123811904D01*
X111884819Y-123526190D02*
X110884819Y-123526190D01*
X110884819Y-123526190D02*
X111027676Y-123621428D01*
X111027676Y-123621428D02*
X111122914Y-123716666D01*
X111122914Y-123716666D02*
X111170533Y-123811904D01*
X110884819Y-122335714D02*
X110884819Y-122811904D01*
X110884819Y-122811904D02*
X111361009Y-122859523D01*
X111361009Y-122859523D02*
X111313390Y-122811904D01*
X111313390Y-122811904D02*
X111265771Y-122716666D01*
X111265771Y-122716666D02*
X111265771Y-122478571D01*
X111265771Y-122478571D02*
X111313390Y-122383333D01*
X111313390Y-122383333D02*
X111361009Y-122335714D01*
X111361009Y-122335714D02*
X111456247Y-122288095D01*
X111456247Y-122288095D02*
X111694342Y-122288095D01*
X111694342Y-122288095D02*
X111789580Y-122335714D01*
X111789580Y-122335714D02*
X111837200Y-122383333D01*
X111837200Y-122383333D02*
X111884819Y-122478571D01*
X111884819Y-122478571D02*
X111884819Y-122716666D01*
X111884819Y-122716666D02*
X111837200Y-122811904D01*
X111837200Y-122811904D02*
X111789580Y-122859523D01*
X151207142Y-128179580D02*
X151159523Y-128227200D01*
X151159523Y-128227200D02*
X151016666Y-128274819D01*
X151016666Y-128274819D02*
X150921428Y-128274819D01*
X150921428Y-128274819D02*
X150778571Y-128227200D01*
X150778571Y-128227200D02*
X150683333Y-128131961D01*
X150683333Y-128131961D02*
X150635714Y-128036723D01*
X150635714Y-128036723D02*
X150588095Y-127846247D01*
X150588095Y-127846247D02*
X150588095Y-127703390D01*
X150588095Y-127703390D02*
X150635714Y-127512914D01*
X150635714Y-127512914D02*
X150683333Y-127417676D01*
X150683333Y-127417676D02*
X150778571Y-127322438D01*
X150778571Y-127322438D02*
X150921428Y-127274819D01*
X150921428Y-127274819D02*
X151016666Y-127274819D01*
X151016666Y-127274819D02*
X151159523Y-127322438D01*
X151159523Y-127322438D02*
X151207142Y-127370057D01*
X152064285Y-127608152D02*
X152064285Y-128274819D01*
X151826190Y-127227200D02*
X151588095Y-127941485D01*
X151588095Y-127941485D02*
X152207142Y-127941485D01*
X153016666Y-127274819D02*
X152826190Y-127274819D01*
X152826190Y-127274819D02*
X152730952Y-127322438D01*
X152730952Y-127322438D02*
X152683333Y-127370057D01*
X152683333Y-127370057D02*
X152588095Y-127512914D01*
X152588095Y-127512914D02*
X152540476Y-127703390D01*
X152540476Y-127703390D02*
X152540476Y-128084342D01*
X152540476Y-128084342D02*
X152588095Y-128179580D01*
X152588095Y-128179580D02*
X152635714Y-128227200D01*
X152635714Y-128227200D02*
X152730952Y-128274819D01*
X152730952Y-128274819D02*
X152921428Y-128274819D01*
X152921428Y-128274819D02*
X153016666Y-128227200D01*
X153016666Y-128227200D02*
X153064285Y-128179580D01*
X153064285Y-128179580D02*
X153111904Y-128084342D01*
X153111904Y-128084342D02*
X153111904Y-127846247D01*
X153111904Y-127846247D02*
X153064285Y-127751009D01*
X153064285Y-127751009D02*
X153016666Y-127703390D01*
X153016666Y-127703390D02*
X152921428Y-127655771D01*
X152921428Y-127655771D02*
X152730952Y-127655771D01*
X152730952Y-127655771D02*
X152635714Y-127703390D01*
X152635714Y-127703390D02*
X152588095Y-127751009D01*
X152588095Y-127751009D02*
X152540476Y-127846247D01*
X151307142Y-105679580D02*
X151259523Y-105727200D01*
X151259523Y-105727200D02*
X151116666Y-105774819D01*
X151116666Y-105774819D02*
X151021428Y-105774819D01*
X151021428Y-105774819D02*
X150878571Y-105727200D01*
X150878571Y-105727200D02*
X150783333Y-105631961D01*
X150783333Y-105631961D02*
X150735714Y-105536723D01*
X150735714Y-105536723D02*
X150688095Y-105346247D01*
X150688095Y-105346247D02*
X150688095Y-105203390D01*
X150688095Y-105203390D02*
X150735714Y-105012914D01*
X150735714Y-105012914D02*
X150783333Y-104917676D01*
X150783333Y-104917676D02*
X150878571Y-104822438D01*
X150878571Y-104822438D02*
X151021428Y-104774819D01*
X151021428Y-104774819D02*
X151116666Y-104774819D01*
X151116666Y-104774819D02*
X151259523Y-104822438D01*
X151259523Y-104822438D02*
X151307142Y-104870057D01*
X152164285Y-105108152D02*
X152164285Y-105774819D01*
X151926190Y-104727200D02*
X151688095Y-105441485D01*
X151688095Y-105441485D02*
X152307142Y-105441485D01*
X153116666Y-105108152D02*
X153116666Y-105774819D01*
X152878571Y-104727200D02*
X152640476Y-105441485D01*
X152640476Y-105441485D02*
X153259523Y-105441485D01*
X159079580Y-122592857D02*
X159127200Y-122640476D01*
X159127200Y-122640476D02*
X159174819Y-122783333D01*
X159174819Y-122783333D02*
X159174819Y-122878571D01*
X159174819Y-122878571D02*
X159127200Y-123021428D01*
X159127200Y-123021428D02*
X159031961Y-123116666D01*
X159031961Y-123116666D02*
X158936723Y-123164285D01*
X158936723Y-123164285D02*
X158746247Y-123211904D01*
X158746247Y-123211904D02*
X158603390Y-123211904D01*
X158603390Y-123211904D02*
X158412914Y-123164285D01*
X158412914Y-123164285D02*
X158317676Y-123116666D01*
X158317676Y-123116666D02*
X158222438Y-123021428D01*
X158222438Y-123021428D02*
X158174819Y-122878571D01*
X158174819Y-122878571D02*
X158174819Y-122783333D01*
X158174819Y-122783333D02*
X158222438Y-122640476D01*
X158222438Y-122640476D02*
X158270057Y-122592857D01*
X158270057Y-122211904D02*
X158222438Y-122164285D01*
X158222438Y-122164285D02*
X158174819Y-122069047D01*
X158174819Y-122069047D02*
X158174819Y-121830952D01*
X158174819Y-121830952D02*
X158222438Y-121735714D01*
X158222438Y-121735714D02*
X158270057Y-121688095D01*
X158270057Y-121688095D02*
X158365295Y-121640476D01*
X158365295Y-121640476D02*
X158460533Y-121640476D01*
X158460533Y-121640476D02*
X158603390Y-121688095D01*
X158603390Y-121688095D02*
X159174819Y-122259523D01*
X159174819Y-122259523D02*
X159174819Y-121640476D01*
X158174819Y-121307142D02*
X158174819Y-120640476D01*
X158174819Y-120640476D02*
X159174819Y-121069047D01*
X137757142Y-108679580D02*
X137709523Y-108727200D01*
X137709523Y-108727200D02*
X137566666Y-108774819D01*
X137566666Y-108774819D02*
X137471428Y-108774819D01*
X137471428Y-108774819D02*
X137328571Y-108727200D01*
X137328571Y-108727200D02*
X137233333Y-108631961D01*
X137233333Y-108631961D02*
X137185714Y-108536723D01*
X137185714Y-108536723D02*
X137138095Y-108346247D01*
X137138095Y-108346247D02*
X137138095Y-108203390D01*
X137138095Y-108203390D02*
X137185714Y-108012914D01*
X137185714Y-108012914D02*
X137233333Y-107917676D01*
X137233333Y-107917676D02*
X137328571Y-107822438D01*
X137328571Y-107822438D02*
X137471428Y-107774819D01*
X137471428Y-107774819D02*
X137566666Y-107774819D01*
X137566666Y-107774819D02*
X137709523Y-107822438D01*
X137709523Y-107822438D02*
X137757142Y-107870057D01*
X138614285Y-108108152D02*
X138614285Y-108774819D01*
X138376190Y-107727200D02*
X138138095Y-108441485D01*
X138138095Y-108441485D02*
X138757142Y-108441485D01*
X139042857Y-107774819D02*
X139709523Y-107774819D01*
X139709523Y-107774819D02*
X139280952Y-108774819D01*
X44785714Y-97454819D02*
X44785714Y-96454819D01*
X44785714Y-96454819D02*
X45023809Y-96454819D01*
X45023809Y-96454819D02*
X45166666Y-96502438D01*
X45166666Y-96502438D02*
X45261904Y-96597676D01*
X45261904Y-96597676D02*
X45309523Y-96692914D01*
X45309523Y-96692914D02*
X45357142Y-96883390D01*
X45357142Y-96883390D02*
X45357142Y-97026247D01*
X45357142Y-97026247D02*
X45309523Y-97216723D01*
X45309523Y-97216723D02*
X45261904Y-97311961D01*
X45261904Y-97311961D02*
X45166666Y-97407200D01*
X45166666Y-97407200D02*
X45023809Y-97454819D01*
X45023809Y-97454819D02*
X44785714Y-97454819D01*
X45738095Y-96550057D02*
X45785714Y-96502438D01*
X45785714Y-96502438D02*
X45880952Y-96454819D01*
X45880952Y-96454819D02*
X46119047Y-96454819D01*
X46119047Y-96454819D02*
X46214285Y-96502438D01*
X46214285Y-96502438D02*
X46261904Y-96550057D01*
X46261904Y-96550057D02*
X46309523Y-96645295D01*
X46309523Y-96645295D02*
X46309523Y-96740533D01*
X46309523Y-96740533D02*
X46261904Y-96883390D01*
X46261904Y-96883390D02*
X45690476Y-97454819D01*
X45690476Y-97454819D02*
X46309523Y-97454819D01*
X46642857Y-96454819D02*
X47261904Y-96454819D01*
X47261904Y-96454819D02*
X46928571Y-96835771D01*
X46928571Y-96835771D02*
X47071428Y-96835771D01*
X47071428Y-96835771D02*
X47166666Y-96883390D01*
X47166666Y-96883390D02*
X47214285Y-96931009D01*
X47214285Y-96931009D02*
X47261904Y-97026247D01*
X47261904Y-97026247D02*
X47261904Y-97264342D01*
X47261904Y-97264342D02*
X47214285Y-97359580D01*
X47214285Y-97359580D02*
X47166666Y-97407200D01*
X47166666Y-97407200D02*
X47071428Y-97454819D01*
X47071428Y-97454819D02*
X46785714Y-97454819D01*
X46785714Y-97454819D02*
X46690476Y-97407200D01*
X46690476Y-97407200D02*
X46642857Y-97359580D01*
X64261905Y-127954819D02*
X64261905Y-126954819D01*
X64261905Y-126954819D02*
X64500000Y-126954819D01*
X64500000Y-126954819D02*
X64642857Y-127002438D01*
X64642857Y-127002438D02*
X64738095Y-127097676D01*
X64738095Y-127097676D02*
X64785714Y-127192914D01*
X64785714Y-127192914D02*
X64833333Y-127383390D01*
X64833333Y-127383390D02*
X64833333Y-127526247D01*
X64833333Y-127526247D02*
X64785714Y-127716723D01*
X64785714Y-127716723D02*
X64738095Y-127811961D01*
X64738095Y-127811961D02*
X64642857Y-127907200D01*
X64642857Y-127907200D02*
X64500000Y-127954819D01*
X64500000Y-127954819D02*
X64261905Y-127954819D01*
X65785714Y-127954819D02*
X65214286Y-127954819D01*
X65500000Y-127954819D02*
X65500000Y-126954819D01*
X65500000Y-126954819D02*
X65404762Y-127097676D01*
X65404762Y-127097676D02*
X65309524Y-127192914D01*
X65309524Y-127192914D02*
X65214286Y-127240533D01*
X154218333Y-111284819D02*
X153742143Y-111284819D01*
X153742143Y-111284819D02*
X153742143Y-110284819D01*
X154980238Y-110618152D02*
X154980238Y-111284819D01*
X154742143Y-110237200D02*
X154504048Y-110951485D01*
X154504048Y-110951485D02*
X155123095Y-110951485D01*
X75854819Y-79080357D02*
X75378628Y-79413690D01*
X75854819Y-79651785D02*
X74854819Y-79651785D01*
X74854819Y-79651785D02*
X74854819Y-79270833D01*
X74854819Y-79270833D02*
X74902438Y-79175595D01*
X74902438Y-79175595D02*
X74950057Y-79127976D01*
X74950057Y-79127976D02*
X75045295Y-79080357D01*
X75045295Y-79080357D02*
X75188152Y-79080357D01*
X75188152Y-79080357D02*
X75283390Y-79127976D01*
X75283390Y-79127976D02*
X75331009Y-79175595D01*
X75331009Y-79175595D02*
X75378628Y-79270833D01*
X75378628Y-79270833D02*
X75378628Y-79651785D01*
X74950057Y-78699404D02*
X74902438Y-78651785D01*
X74902438Y-78651785D02*
X74854819Y-78556547D01*
X74854819Y-78556547D02*
X74854819Y-78318452D01*
X74854819Y-78318452D02*
X74902438Y-78223214D01*
X74902438Y-78223214D02*
X74950057Y-78175595D01*
X74950057Y-78175595D02*
X75045295Y-78127976D01*
X75045295Y-78127976D02*
X75140533Y-78127976D01*
X75140533Y-78127976D02*
X75283390Y-78175595D01*
X75283390Y-78175595D02*
X75854819Y-78747023D01*
X75854819Y-78747023D02*
X75854819Y-78127976D01*
X74854819Y-77794642D02*
X74854819Y-77175595D01*
X74854819Y-77175595D02*
X75235771Y-77508928D01*
X75235771Y-77508928D02*
X75235771Y-77366071D01*
X75235771Y-77366071D02*
X75283390Y-77270833D01*
X75283390Y-77270833D02*
X75331009Y-77223214D01*
X75331009Y-77223214D02*
X75426247Y-77175595D01*
X75426247Y-77175595D02*
X75664342Y-77175595D01*
X75664342Y-77175595D02*
X75759580Y-77223214D01*
X75759580Y-77223214D02*
X75807200Y-77270833D01*
X75807200Y-77270833D02*
X75854819Y-77366071D01*
X75854819Y-77366071D02*
X75854819Y-77651785D01*
X75854819Y-77651785D02*
X75807200Y-77747023D01*
X75807200Y-77747023D02*
X75759580Y-77794642D01*
X151307142Y-124679580D02*
X151259523Y-124727200D01*
X151259523Y-124727200D02*
X151116666Y-124774819D01*
X151116666Y-124774819D02*
X151021428Y-124774819D01*
X151021428Y-124774819D02*
X150878571Y-124727200D01*
X150878571Y-124727200D02*
X150783333Y-124631961D01*
X150783333Y-124631961D02*
X150735714Y-124536723D01*
X150735714Y-124536723D02*
X150688095Y-124346247D01*
X150688095Y-124346247D02*
X150688095Y-124203390D01*
X150688095Y-124203390D02*
X150735714Y-124012914D01*
X150735714Y-124012914D02*
X150783333Y-123917676D01*
X150783333Y-123917676D02*
X150878571Y-123822438D01*
X150878571Y-123822438D02*
X151021428Y-123774819D01*
X151021428Y-123774819D02*
X151116666Y-123774819D01*
X151116666Y-123774819D02*
X151259523Y-123822438D01*
X151259523Y-123822438D02*
X151307142Y-123870057D01*
X152164285Y-124108152D02*
X152164285Y-124774819D01*
X151926190Y-123727200D02*
X151688095Y-124441485D01*
X151688095Y-124441485D02*
X152307142Y-124441485D01*
X152735714Y-124774819D02*
X152926190Y-124774819D01*
X152926190Y-124774819D02*
X153021428Y-124727200D01*
X153021428Y-124727200D02*
X153069047Y-124679580D01*
X153069047Y-124679580D02*
X153164285Y-124536723D01*
X153164285Y-124536723D02*
X153211904Y-124346247D01*
X153211904Y-124346247D02*
X153211904Y-123965295D01*
X153211904Y-123965295D02*
X153164285Y-123870057D01*
X153164285Y-123870057D02*
X153116666Y-123822438D01*
X153116666Y-123822438D02*
X153021428Y-123774819D01*
X153021428Y-123774819D02*
X152830952Y-123774819D01*
X152830952Y-123774819D02*
X152735714Y-123822438D01*
X152735714Y-123822438D02*
X152688095Y-123870057D01*
X152688095Y-123870057D02*
X152640476Y-123965295D01*
X152640476Y-123965295D02*
X152640476Y-124203390D01*
X152640476Y-124203390D02*
X152688095Y-124298628D01*
X152688095Y-124298628D02*
X152735714Y-124346247D01*
X152735714Y-124346247D02*
X152830952Y-124393866D01*
X152830952Y-124393866D02*
X153021428Y-124393866D01*
X153021428Y-124393866D02*
X153116666Y-124346247D01*
X153116666Y-124346247D02*
X153164285Y-124298628D01*
X153164285Y-124298628D02*
X153211904Y-124203390D01*
X47807142Y-129539580D02*
X47759523Y-129587200D01*
X47759523Y-129587200D02*
X47616666Y-129634819D01*
X47616666Y-129634819D02*
X47521428Y-129634819D01*
X47521428Y-129634819D02*
X47378571Y-129587200D01*
X47378571Y-129587200D02*
X47283333Y-129491961D01*
X47283333Y-129491961D02*
X47235714Y-129396723D01*
X47235714Y-129396723D02*
X47188095Y-129206247D01*
X47188095Y-129206247D02*
X47188095Y-129063390D01*
X47188095Y-129063390D02*
X47235714Y-128872914D01*
X47235714Y-128872914D02*
X47283333Y-128777676D01*
X47283333Y-128777676D02*
X47378571Y-128682438D01*
X47378571Y-128682438D02*
X47521428Y-128634819D01*
X47521428Y-128634819D02*
X47616666Y-128634819D01*
X47616666Y-128634819D02*
X47759523Y-128682438D01*
X47759523Y-128682438D02*
X47807142Y-128730057D01*
X48140476Y-128634819D02*
X48759523Y-128634819D01*
X48759523Y-128634819D02*
X48426190Y-129015771D01*
X48426190Y-129015771D02*
X48569047Y-129015771D01*
X48569047Y-129015771D02*
X48664285Y-129063390D01*
X48664285Y-129063390D02*
X48711904Y-129111009D01*
X48711904Y-129111009D02*
X48759523Y-129206247D01*
X48759523Y-129206247D02*
X48759523Y-129444342D01*
X48759523Y-129444342D02*
X48711904Y-129539580D01*
X48711904Y-129539580D02*
X48664285Y-129587200D01*
X48664285Y-129587200D02*
X48569047Y-129634819D01*
X48569047Y-129634819D02*
X48283333Y-129634819D01*
X48283333Y-129634819D02*
X48188095Y-129587200D01*
X48188095Y-129587200D02*
X48140476Y-129539580D01*
X49711904Y-129634819D02*
X49140476Y-129634819D01*
X49426190Y-129634819D02*
X49426190Y-128634819D01*
X49426190Y-128634819D02*
X49330952Y-128777676D01*
X49330952Y-128777676D02*
X49235714Y-128872914D01*
X49235714Y-128872914D02*
X49140476Y-128920533D01*
X127579580Y-118642857D02*
X127627200Y-118690476D01*
X127627200Y-118690476D02*
X127674819Y-118833333D01*
X127674819Y-118833333D02*
X127674819Y-118928571D01*
X127674819Y-118928571D02*
X127627200Y-119071428D01*
X127627200Y-119071428D02*
X127531961Y-119166666D01*
X127531961Y-119166666D02*
X127436723Y-119214285D01*
X127436723Y-119214285D02*
X127246247Y-119261904D01*
X127246247Y-119261904D02*
X127103390Y-119261904D01*
X127103390Y-119261904D02*
X126912914Y-119214285D01*
X126912914Y-119214285D02*
X126817676Y-119166666D01*
X126817676Y-119166666D02*
X126722438Y-119071428D01*
X126722438Y-119071428D02*
X126674819Y-118928571D01*
X126674819Y-118928571D02*
X126674819Y-118833333D01*
X126674819Y-118833333D02*
X126722438Y-118690476D01*
X126722438Y-118690476D02*
X126770057Y-118642857D01*
X126770057Y-118261904D02*
X126722438Y-118214285D01*
X126722438Y-118214285D02*
X126674819Y-118119047D01*
X126674819Y-118119047D02*
X126674819Y-117880952D01*
X126674819Y-117880952D02*
X126722438Y-117785714D01*
X126722438Y-117785714D02*
X126770057Y-117738095D01*
X126770057Y-117738095D02*
X126865295Y-117690476D01*
X126865295Y-117690476D02*
X126960533Y-117690476D01*
X126960533Y-117690476D02*
X127103390Y-117738095D01*
X127103390Y-117738095D02*
X127674819Y-118309523D01*
X127674819Y-118309523D02*
X127674819Y-117690476D01*
X126674819Y-117071428D02*
X126674819Y-116976190D01*
X126674819Y-116976190D02*
X126722438Y-116880952D01*
X126722438Y-116880952D02*
X126770057Y-116833333D01*
X126770057Y-116833333D02*
X126865295Y-116785714D01*
X126865295Y-116785714D02*
X127055771Y-116738095D01*
X127055771Y-116738095D02*
X127293866Y-116738095D01*
X127293866Y-116738095D02*
X127484342Y-116785714D01*
X127484342Y-116785714D02*
X127579580Y-116833333D01*
X127579580Y-116833333D02*
X127627200Y-116880952D01*
X127627200Y-116880952D02*
X127674819Y-116976190D01*
X127674819Y-116976190D02*
X127674819Y-117071428D01*
X127674819Y-117071428D02*
X127627200Y-117166666D01*
X127627200Y-117166666D02*
X127579580Y-117214285D01*
X127579580Y-117214285D02*
X127484342Y-117261904D01*
X127484342Y-117261904D02*
X127293866Y-117309523D01*
X127293866Y-117309523D02*
X127055771Y-117309523D01*
X127055771Y-117309523D02*
X126865295Y-117261904D01*
X126865295Y-117261904D02*
X126770057Y-117214285D01*
X126770057Y-117214285D02*
X126722438Y-117166666D01*
X126722438Y-117166666D02*
X126674819Y-117071428D01*
X123184819Y-108176785D02*
X122184819Y-108176785D01*
X122184819Y-108176785D02*
X122184819Y-107938690D01*
X122184819Y-107938690D02*
X122232438Y-107795833D01*
X122232438Y-107795833D02*
X122327676Y-107700595D01*
X122327676Y-107700595D02*
X122422914Y-107652976D01*
X122422914Y-107652976D02*
X122613390Y-107605357D01*
X122613390Y-107605357D02*
X122756247Y-107605357D01*
X122756247Y-107605357D02*
X122946723Y-107652976D01*
X122946723Y-107652976D02*
X123041961Y-107700595D01*
X123041961Y-107700595D02*
X123137200Y-107795833D01*
X123137200Y-107795833D02*
X123184819Y-107938690D01*
X123184819Y-107938690D02*
X123184819Y-108176785D01*
X123184819Y-106652976D02*
X123184819Y-107224404D01*
X123184819Y-106938690D02*
X122184819Y-106938690D01*
X122184819Y-106938690D02*
X122327676Y-107033928D01*
X122327676Y-107033928D02*
X122422914Y-107129166D01*
X122422914Y-107129166D02*
X122470533Y-107224404D01*
X122613390Y-106081547D02*
X122565771Y-106176785D01*
X122565771Y-106176785D02*
X122518152Y-106224404D01*
X122518152Y-106224404D02*
X122422914Y-106272023D01*
X122422914Y-106272023D02*
X122375295Y-106272023D01*
X122375295Y-106272023D02*
X122280057Y-106224404D01*
X122280057Y-106224404D02*
X122232438Y-106176785D01*
X122232438Y-106176785D02*
X122184819Y-106081547D01*
X122184819Y-106081547D02*
X122184819Y-105891071D01*
X122184819Y-105891071D02*
X122232438Y-105795833D01*
X122232438Y-105795833D02*
X122280057Y-105748214D01*
X122280057Y-105748214D02*
X122375295Y-105700595D01*
X122375295Y-105700595D02*
X122422914Y-105700595D01*
X122422914Y-105700595D02*
X122518152Y-105748214D01*
X122518152Y-105748214D02*
X122565771Y-105795833D01*
X122565771Y-105795833D02*
X122613390Y-105891071D01*
X122613390Y-105891071D02*
X122613390Y-106081547D01*
X122613390Y-106081547D02*
X122661009Y-106176785D01*
X122661009Y-106176785D02*
X122708628Y-106224404D01*
X122708628Y-106224404D02*
X122803866Y-106272023D01*
X122803866Y-106272023D02*
X122994342Y-106272023D01*
X122994342Y-106272023D02*
X123089580Y-106224404D01*
X123089580Y-106224404D02*
X123137200Y-106176785D01*
X123137200Y-106176785D02*
X123184819Y-106081547D01*
X123184819Y-106081547D02*
X123184819Y-105891071D01*
X123184819Y-105891071D02*
X123137200Y-105795833D01*
X123137200Y-105795833D02*
X123089580Y-105748214D01*
X123089580Y-105748214D02*
X122994342Y-105700595D01*
X122994342Y-105700595D02*
X122803866Y-105700595D01*
X122803866Y-105700595D02*
X122708628Y-105748214D01*
X122708628Y-105748214D02*
X122661009Y-105795833D01*
X122661009Y-105795833D02*
X122613390Y-105891071D01*
X54274819Y-75873333D02*
X54989104Y-75873333D01*
X54989104Y-75873333D02*
X55131961Y-75920952D01*
X55131961Y-75920952D02*
X55227200Y-76016190D01*
X55227200Y-76016190D02*
X55274819Y-76159047D01*
X55274819Y-76159047D02*
X55274819Y-76254285D01*
X55274819Y-74873333D02*
X55274819Y-75444761D01*
X55274819Y-75159047D02*
X54274819Y-75159047D01*
X54274819Y-75159047D02*
X54417676Y-75254285D01*
X54417676Y-75254285D02*
X54512914Y-75349523D01*
X54512914Y-75349523D02*
X54560533Y-75444761D01*
X47494819Y-112505833D02*
X48209104Y-112505833D01*
X48209104Y-112505833D02*
X48351961Y-112553452D01*
X48351961Y-112553452D02*
X48447200Y-112648690D01*
X48447200Y-112648690D02*
X48494819Y-112791547D01*
X48494819Y-112791547D02*
X48494819Y-112886785D01*
X47494819Y-112124880D02*
X47494819Y-111458214D01*
X47494819Y-111458214D02*
X48494819Y-111886785D01*
X122704819Y-79982857D02*
X122228628Y-80316190D01*
X122704819Y-80554285D02*
X121704819Y-80554285D01*
X121704819Y-80554285D02*
X121704819Y-80173333D01*
X121704819Y-80173333D02*
X121752438Y-80078095D01*
X121752438Y-80078095D02*
X121800057Y-80030476D01*
X121800057Y-80030476D02*
X121895295Y-79982857D01*
X121895295Y-79982857D02*
X122038152Y-79982857D01*
X122038152Y-79982857D02*
X122133390Y-80030476D01*
X122133390Y-80030476D02*
X122181009Y-80078095D01*
X122181009Y-80078095D02*
X122228628Y-80173333D01*
X122228628Y-80173333D02*
X122228628Y-80554285D01*
X121800057Y-79601904D02*
X121752438Y-79554285D01*
X121752438Y-79554285D02*
X121704819Y-79459047D01*
X121704819Y-79459047D02*
X121704819Y-79220952D01*
X121704819Y-79220952D02*
X121752438Y-79125714D01*
X121752438Y-79125714D02*
X121800057Y-79078095D01*
X121800057Y-79078095D02*
X121895295Y-79030476D01*
X121895295Y-79030476D02*
X121990533Y-79030476D01*
X121990533Y-79030476D02*
X122133390Y-79078095D01*
X122133390Y-79078095D02*
X122704819Y-79649523D01*
X122704819Y-79649523D02*
X122704819Y-79030476D01*
X121704819Y-78125714D02*
X121704819Y-78601904D01*
X121704819Y-78601904D02*
X122181009Y-78649523D01*
X122181009Y-78649523D02*
X122133390Y-78601904D01*
X122133390Y-78601904D02*
X122085771Y-78506666D01*
X122085771Y-78506666D02*
X122085771Y-78268571D01*
X122085771Y-78268571D02*
X122133390Y-78173333D01*
X122133390Y-78173333D02*
X122181009Y-78125714D01*
X122181009Y-78125714D02*
X122276247Y-78078095D01*
X122276247Y-78078095D02*
X122514342Y-78078095D01*
X122514342Y-78078095D02*
X122609580Y-78125714D01*
X122609580Y-78125714D02*
X122657200Y-78173333D01*
X122657200Y-78173333D02*
X122704819Y-78268571D01*
X122704819Y-78268571D02*
X122704819Y-78506666D01*
X122704819Y-78506666D02*
X122657200Y-78601904D01*
X122657200Y-78601904D02*
X122609580Y-78649523D01*
X53679580Y-137292857D02*
X53727200Y-137340476D01*
X53727200Y-137340476D02*
X53774819Y-137483333D01*
X53774819Y-137483333D02*
X53774819Y-137578571D01*
X53774819Y-137578571D02*
X53727200Y-137721428D01*
X53727200Y-137721428D02*
X53631961Y-137816666D01*
X53631961Y-137816666D02*
X53536723Y-137864285D01*
X53536723Y-137864285D02*
X53346247Y-137911904D01*
X53346247Y-137911904D02*
X53203390Y-137911904D01*
X53203390Y-137911904D02*
X53012914Y-137864285D01*
X53012914Y-137864285D02*
X52917676Y-137816666D01*
X52917676Y-137816666D02*
X52822438Y-137721428D01*
X52822438Y-137721428D02*
X52774819Y-137578571D01*
X52774819Y-137578571D02*
X52774819Y-137483333D01*
X52774819Y-137483333D02*
X52822438Y-137340476D01*
X52822438Y-137340476D02*
X52870057Y-137292857D01*
X53774819Y-136340476D02*
X53774819Y-136911904D01*
X53774819Y-136626190D02*
X52774819Y-136626190D01*
X52774819Y-136626190D02*
X52917676Y-136721428D01*
X52917676Y-136721428D02*
X53012914Y-136816666D01*
X53012914Y-136816666D02*
X53060533Y-136911904D01*
X52774819Y-136007142D02*
X52774819Y-135340476D01*
X52774819Y-135340476D02*
X53774819Y-135769047D01*
G04 #@! TO.C,C55*
D12*
X133138748Y-106265000D02*
X133661252Y-106265000D01*
X133138748Y-107735000D02*
X133661252Y-107735000D01*
G04 #@! TO.C,C45*
X133088748Y-122765000D02*
X133611252Y-122765000D01*
X133088748Y-124235000D02*
X133611252Y-124235000D01*
G04 #@! TO.C,D22*
X60390000Y-98662500D02*
X60390000Y-104172500D01*
X63690000Y-98662500D02*
X60390000Y-98662500D01*
X63690000Y-98662500D02*
X63690000Y-104172500D01*
G04 #@! TO.C,D24*
X55050000Y-91350000D02*
X49540000Y-91350000D01*
X55050000Y-94650000D02*
X49540000Y-94650000D01*
X55050000Y-94650000D02*
X55050000Y-91350000D01*
G04 #@! TO.C,C29*
X99738748Y-98265000D02*
X100261252Y-98265000D01*
X99738748Y-99735000D02*
X100261252Y-99735000D01*
G04 #@! TO.C,D28*
X62550000Y-91350000D02*
X57040000Y-91350000D01*
X62550000Y-94650000D02*
X57040000Y-94650000D01*
X62550000Y-94650000D02*
X62550000Y-91350000D01*
G04 #@! TO.C,C4*
X118865000Y-132961252D02*
X118865000Y-132438748D01*
X120335000Y-132961252D02*
X120335000Y-132438748D01*
G04 #@! TO.C,C43*
X142088748Y-126265000D02*
X142611252Y-126265000D01*
X142088748Y-127735000D02*
X142611252Y-127735000D01*
G04 #@! TO.C,U1*
D13*
X138900000Y-116250000D02*
X138900000Y-116550000D01*
X138900000Y-121950000D02*
X138900000Y-122250000D01*
X138900000Y-122250000D02*
X139200000Y-122250000D01*
X139200000Y-116250000D02*
X138900000Y-116250000D01*
X144600000Y-122250000D02*
X144900000Y-122250000D01*
X144900000Y-116250000D02*
X144600000Y-116250000D01*
X144900000Y-116550000D02*
X144900000Y-116250000D01*
X144900000Y-122250000D02*
X144900000Y-121950000D01*
D14*
X138563500Y-116350000D02*
G75*
G02*
X138436500Y-116350000I-63500J0D01*
G01*
X138436500Y-116350000D02*
G75*
G02*
X138563500Y-116350000I63500J0D01*
G01*
G04 #@! TO.C,SW2*
D12*
X91470000Y-131270000D02*
X97930000Y-131270000D01*
X91470000Y-131300000D02*
X91470000Y-131270000D01*
X91470000Y-133200000D02*
X91470000Y-135800000D01*
X91470000Y-137730000D02*
X91470000Y-137700000D01*
X91470000Y-137730000D02*
X97930000Y-137730000D01*
X97930000Y-131270000D02*
X97930000Y-131300000D01*
X97930000Y-133200000D02*
X97930000Y-135800000D01*
X97930000Y-137730000D02*
X97930000Y-137700000D01*
G04 #@! TO.C,R28*
X112345000Y-128277064D02*
X112345000Y-127822936D01*
X113815000Y-128277064D02*
X113815000Y-127822936D01*
G04 #@! TO.C,R29*
X116845000Y-127777064D02*
X116845000Y-127322936D01*
X118315000Y-127777064D02*
X118315000Y-127322936D01*
G04 #@! TO.C,C39*
X158638748Y-116265000D02*
X159161252Y-116265000D01*
X158638748Y-117735000D02*
X159161252Y-117735000D01*
G04 #@! TO.C,U3*
D14*
X72350000Y-82257500D02*
X76330000Y-82257500D01*
X72350000Y-87007500D02*
X72350000Y-82257500D01*
X73500000Y-88157500D02*
X76330000Y-88157500D01*
X78670000Y-88157500D02*
X81100000Y-88157500D01*
X81100000Y-82257500D02*
X78670000Y-82257500D01*
X81100000Y-82257500D02*
X82650000Y-83807500D01*
X81100000Y-88157500D02*
X82650000Y-86607500D01*
X82650000Y-86607500D02*
X82650000Y-83807500D01*
G04 #@! TO.C,C54*
D12*
X133088748Y-127265000D02*
X133611252Y-127265000D01*
X133088748Y-128735000D02*
X133611252Y-128735000D01*
G04 #@! TO.C,C40*
X133138748Y-131265000D02*
X133661252Y-131265000D01*
X133138748Y-132735000D02*
X133661252Y-132735000D01*
G04 #@! TO.C,U11*
D14*
X89680000Y-108500000D02*
X89680000Y-109000000D01*
X89680000Y-108500000D02*
X90180000Y-108500000D01*
X89680000Y-122500000D02*
X89680000Y-122000000D01*
X89680000Y-122500000D02*
X90180000Y-122500000D01*
X103680000Y-108500000D02*
X103180000Y-108500000D01*
X103680000Y-108500000D02*
X103680000Y-109000000D01*
X103680000Y-122500000D02*
X103180000Y-122500000D01*
X103680000Y-122500000D02*
X103680000Y-122000000D01*
D15*
X87780000Y-109500000D02*
G75*
G02*
X87580000Y-109500000I-100000J0D01*
G01*
X87580000Y-109500000D02*
G75*
G02*
X87780000Y-109500000I100000J0D01*
G01*
G04 #@! TO.C,Y4*
D12*
X142190000Y-112560000D02*
X145610000Y-112560000D01*
X145610000Y-112560000D02*
X145610000Y-108440000D01*
G04 #@! TO.C,C26*
X128165000Y-113688748D02*
X128165000Y-114211252D01*
X129635000Y-113688748D02*
X129635000Y-114211252D01*
G04 #@! TO.C,R27*
X131765000Y-78345436D02*
X131765000Y-78799564D01*
X133235000Y-78345436D02*
X133235000Y-78799564D01*
G04 #@! TO.C,C48*
X137138748Y-125265000D02*
X137661252Y-125265000D01*
X137138748Y-126735000D02*
X137661252Y-126735000D01*
G04 #@! TO.C,R33*
X110345000Y-101322936D02*
X110345000Y-101777064D01*
X111815000Y-101322936D02*
X111815000Y-101777064D01*
G04 #@! TO.C,R32*
X115345000Y-101735436D02*
X115345000Y-102189564D01*
X116815000Y-101735436D02*
X116815000Y-102189564D01*
G04 #@! TO.C,D17*
X121120000Y-122487500D02*
X121120000Y-125172500D01*
X121120000Y-125172500D02*
X123040000Y-125172500D01*
X123040000Y-125172500D02*
X123040000Y-122487500D01*
G04 #@! TO.C,R26*
X103415000Y-78772936D02*
X103415000Y-79227064D01*
X104885000Y-78772936D02*
X104885000Y-79227064D01*
G04 #@! TO.C,L1*
X163500378Y-110440000D02*
X164299622Y-110440000D01*
X163500378Y-111560000D02*
X164299622Y-111560000D01*
G04 #@! TO.C,J6*
X77620000Y-128960000D02*
X77620000Y-121120000D01*
X80270000Y-126310000D02*
X80270000Y-128960000D01*
X80270000Y-128960000D02*
X77620000Y-128960000D01*
X82920000Y-121120000D02*
X77620000Y-121120000D01*
X82920000Y-126310000D02*
X80270000Y-126310000D01*
X82920000Y-126310000D02*
X82920000Y-121120000D01*
X82920000Y-127580000D02*
X82920000Y-128960000D01*
X82920000Y-128960000D02*
X81540000Y-128960000D01*
G04 #@! TO.C,R34*
X155665000Y-125185436D02*
X155665000Y-125639564D01*
X157135000Y-125185436D02*
X157135000Y-125639564D01*
G04 #@! TO.C,C38*
X138138748Y-104265000D02*
X138661252Y-104265000D01*
X138138748Y-105735000D02*
X138661252Y-105735000D01*
G04 #@! TO.C,C41*
X147188748Y-130765000D02*
X147711252Y-130765000D01*
X147188748Y-132235000D02*
X147711252Y-132235000D01*
G04 #@! TO.C,C25*
X157688748Y-110765000D02*
X158211252Y-110765000D01*
X157688748Y-112235000D02*
X158211252Y-112235000D01*
G04 #@! TO.C,C52*
X149588748Y-110765000D02*
X150111252Y-110765000D01*
X149588748Y-112235000D02*
X150111252Y-112235000D01*
G04 #@! TO.C,C11*
X100441252Y-126265000D02*
X99918748Y-126265000D01*
X100441252Y-127735000D02*
X99918748Y-127735000D01*
G04 #@! TO.C,U7*
D14*
X130850000Y-81950000D02*
X134830000Y-81950000D01*
X130850000Y-86700000D02*
X130850000Y-81950000D01*
X132000000Y-87850000D02*
X134830000Y-87850000D01*
X137170000Y-87850000D02*
X139600000Y-87850000D01*
X139600000Y-81950000D02*
X137170000Y-81950000D01*
X139600000Y-81950000D02*
X141150000Y-83500000D01*
X139600000Y-87850000D02*
X141150000Y-86300000D01*
X141150000Y-86300000D02*
X141150000Y-83500000D01*
G04 #@! TO.C,C53*
D12*
X133188748Y-110765000D02*
X133711252Y-110765000D01*
X133188748Y-112235000D02*
X133711252Y-112235000D01*
G04 #@! TO.C,R30*
X121345000Y-127777064D02*
X121345000Y-127322936D01*
X122815000Y-127777064D02*
X122815000Y-127322936D01*
G04 #@! TO.C,R35*
X104452936Y-126265000D02*
X104907064Y-126265000D01*
X104452936Y-127735000D02*
X104907064Y-127735000D01*
G04 #@! TO.C,D19*
X115120000Y-104777500D02*
X115120000Y-107462500D01*
X117040000Y-104777500D02*
X115120000Y-104777500D01*
X117040000Y-107462500D02*
X117040000Y-104777500D01*
G04 #@! TO.C,U16*
D14*
X111445000Y-116195000D02*
X111445000Y-113855000D01*
X120095000Y-116195000D02*
X120095000Y-113855000D01*
D15*
X111770000Y-119075000D02*
G75*
G02*
X111570000Y-119075000I-100000J0D01*
G01*
X111570000Y-119075000D02*
G75*
G02*
X111770000Y-119075000I100000J0D01*
G01*
G04 #@! TO.C,Y2*
D12*
X152060000Y-118940000D02*
X147940000Y-118940000D01*
X152060000Y-122360000D02*
X152060000Y-118940000D01*
G04 #@! TO.C,C14*
X90188748Y-93265000D02*
X90711252Y-93265000D01*
X90188748Y-94735000D02*
X90711252Y-94735000D01*
G04 #@! TO.C,R17*
X79515000Y-78622936D02*
X79515000Y-79077064D01*
X80985000Y-78622936D02*
X80985000Y-79077064D01*
G04 #@! TO.C,R19*
X94015000Y-79002936D02*
X94015000Y-79457064D01*
X95485000Y-79002936D02*
X95485000Y-79457064D01*
G04 #@! TO.C,C2*
X112845000Y-132811252D02*
X112845000Y-132288748D01*
X114315000Y-132811252D02*
X114315000Y-132288748D01*
G04 #@! TO.C,R24*
X88015000Y-78502936D02*
X88015000Y-78957064D01*
X89485000Y-78502936D02*
X89485000Y-78957064D01*
G04 #@! TO.C,C15*
X94688748Y-98265000D02*
X95211252Y-98265000D01*
X94688748Y-99735000D02*
X95211252Y-99735000D01*
G04 #@! TO.C,U13*
X70150000Y-131590000D02*
X73910000Y-131590000D01*
X70150000Y-138410000D02*
X73910000Y-138410000D01*
X73910000Y-131590000D02*
X73910000Y-132850000D01*
X73910000Y-138410000D02*
X73910000Y-137150000D01*
X68870000Y-131690000D02*
X68630000Y-131360000D01*
X69110000Y-131360000D01*
X68870000Y-131690000D01*
G36*
X68870000Y-131690000D02*
G01*
X68630000Y-131360000D01*
X69110000Y-131360000D01*
X68870000Y-131690000D01*
G37*
G04 #@! TO.C,D26*
X55390000Y-105682500D02*
X55390000Y-100172500D01*
X55390000Y-105682500D02*
X58690000Y-105682500D01*
X58690000Y-105682500D02*
X58690000Y-100172500D01*
G04 #@! TO.C,C13*
X90188748Y-98265000D02*
X90711252Y-98265000D01*
X90188748Y-99735000D02*
X90711252Y-99735000D01*
G04 #@! TO.C,U8*
D14*
X55360000Y-107450000D02*
X55360000Y-112450000D01*
X75560000Y-107450000D02*
X55360000Y-107450000D01*
X75560000Y-112450000D02*
X75560000Y-107450000D01*
D15*
X56670000Y-118670000D02*
G75*
G02*
X56470000Y-118670000I-100000J0D01*
G01*
X56470000Y-118670000D02*
G75*
G02*
X56670000Y-118670000I100000J0D01*
G01*
G04 #@! TO.C,U4*
D14*
X87350000Y-82050000D02*
X91330000Y-82050000D01*
X87350000Y-86800000D02*
X87350000Y-82050000D01*
X88500000Y-87950000D02*
X91330000Y-87950000D01*
X93670000Y-87950000D02*
X96100000Y-87950000D01*
X96100000Y-82050000D02*
X93670000Y-82050000D01*
X96100000Y-82050000D02*
X97650000Y-83600000D01*
X96100000Y-87950000D02*
X97650000Y-86400000D01*
X97650000Y-86400000D02*
X97650000Y-83600000D01*
G04 #@! TO.C,U12*
D12*
X43090000Y-133150000D02*
X43090000Y-136910000D01*
X43090000Y-136910000D02*
X44350000Y-136910000D01*
X49910000Y-133150000D02*
X49910000Y-136910000D01*
X49910000Y-136910000D02*
X48650000Y-136910000D01*
X50140000Y-132110000D02*
X49810000Y-131870000D01*
X50140000Y-131630000D01*
X50140000Y-132110000D01*
G36*
X50140000Y-132110000D02*
G01*
X49810000Y-131870000D01*
X50140000Y-131630000D01*
X50140000Y-132110000D01*
G37*
G04 #@! TO.C,C30*
X100661252Y-93265000D02*
X100138748Y-93265000D01*
X100661252Y-94735000D02*
X100138748Y-94735000D01*
G04 #@! TO.C,C19*
X62311252Y-134765000D02*
X61788748Y-134765000D01*
X62311252Y-136235000D02*
X61788748Y-136235000D01*
G04 #@! TO.C,C23*
X154688748Y-115765000D02*
X155211252Y-115765000D01*
X154688748Y-117235000D02*
X155211252Y-117235000D01*
G04 #@! TO.C,C22*
X156188748Y-106265000D02*
X156711252Y-106265000D01*
X156188748Y-107735000D02*
X156711252Y-107735000D01*
G04 #@! TO.C,U5*
D14*
X102000000Y-82537500D02*
X105980000Y-82537500D01*
X102000000Y-87287500D02*
X102000000Y-82537500D01*
X103150000Y-88437500D02*
X105980000Y-88437500D01*
X108320000Y-88437500D02*
X110750000Y-88437500D01*
X110750000Y-82537500D02*
X108320000Y-82537500D01*
X110750000Y-82537500D02*
X112300000Y-84087500D01*
X110750000Y-88437500D02*
X112300000Y-86887500D01*
X112300000Y-86887500D02*
X112300000Y-84087500D01*
G04 #@! TO.C,C51*
D12*
X149638748Y-115265000D02*
X150161252Y-115265000D01*
X149638748Y-116735000D02*
X150161252Y-116735000D01*
G04 #@! TO.C,D21*
X65890000Y-98662500D02*
X65890000Y-104172500D01*
X69190000Y-98662500D02*
X65890000Y-98662500D01*
X69190000Y-98662500D02*
X69190000Y-104172500D01*
G04 #@! TO.C,R22*
X138265000Y-78345436D02*
X138265000Y-78799564D01*
X139735000Y-78345436D02*
X139735000Y-78799564D01*
G04 #@! TO.C,C18*
X54265000Y-131711252D02*
X54265000Y-131188748D01*
X55735000Y-131711252D02*
X55735000Y-131188748D01*
G04 #@! TO.C,L3*
X128340000Y-109600378D02*
X128340000Y-110399622D01*
X129460000Y-109600378D02*
X129460000Y-110399622D01*
G04 #@! TO.C,R18*
X92319564Y-126265000D02*
X91865436Y-126265000D01*
X92319564Y-127735000D02*
X91865436Y-127735000D01*
G04 #@! TO.C,D20*
X110120000Y-104777500D02*
X110120000Y-107462500D01*
X112040000Y-104777500D02*
X110120000Y-104777500D01*
X112040000Y-107462500D02*
X112040000Y-104777500D01*
G04 #@! TO.C,C16*
X44711252Y-128415000D02*
X44188748Y-128415000D01*
X44711252Y-129885000D02*
X44188748Y-129885000D01*
G04 #@! TO.C,U6*
D14*
X118100000Y-82280000D02*
X122080000Y-82280000D01*
X118100000Y-87030000D02*
X118100000Y-82280000D01*
X119250000Y-88180000D02*
X122080000Y-88180000D01*
X124420000Y-88180000D02*
X126850000Y-88180000D01*
X126850000Y-82280000D02*
X124420000Y-82280000D01*
X126850000Y-82280000D02*
X128400000Y-83830000D01*
X126850000Y-88180000D02*
X128400000Y-86630000D01*
X128400000Y-86630000D02*
X128400000Y-83830000D01*
G04 #@! TO.C,D27*
D12*
X71390000Y-98662500D02*
X71390000Y-104172500D01*
X74690000Y-98662500D02*
X71390000Y-98662500D01*
X74690000Y-98662500D02*
X74690000Y-104172500D01*
G04 #@! TO.C,R36*
X95865436Y-126265000D02*
X96319564Y-126265000D01*
X95865436Y-127735000D02*
X96319564Y-127735000D01*
G04 #@! TO.C,R31*
X120345000Y-101822936D02*
X120345000Y-102277064D01*
X121815000Y-101822936D02*
X121815000Y-102277064D01*
G04 #@! TO.C,C28*
X143188748Y-130765000D02*
X143711252Y-130765000D01*
X143188748Y-132235000D02*
X143711252Y-132235000D01*
G04 #@! TO.C,R37*
X147172936Y-126765000D02*
X147627064Y-126765000D01*
X147172936Y-128235000D02*
X147627064Y-128235000D01*
G04 #@! TO.C,C42*
X133138748Y-118265000D02*
X133661252Y-118265000D01*
X133138748Y-119735000D02*
X133661252Y-119735000D01*
G04 #@! TO.C,D25*
X50390000Y-105682500D02*
X50390000Y-100172500D01*
X50390000Y-105682500D02*
X53690000Y-105682500D01*
X53690000Y-105682500D02*
X53690000Y-100172500D01*
G04 #@! TO.C,R20*
X124865000Y-79112936D02*
X124865000Y-79567064D01*
X126335000Y-79112936D02*
X126335000Y-79567064D01*
G04 #@! TO.C,C50*
X133188748Y-115265000D02*
X133711252Y-115265000D01*
X133188748Y-116735000D02*
X133711252Y-116735000D01*
G04 #@! TO.C,R21*
X109415000Y-78860436D02*
X109415000Y-79314564D01*
X110885000Y-78860436D02*
X110885000Y-79314564D01*
G04 #@! TO.C,L2*
X161500378Y-105940000D02*
X162299622Y-105940000D01*
X161500378Y-107060000D02*
X162299622Y-107060000D01*
G04 #@! TO.C,C24*
X139040000Y-130892164D02*
X139040000Y-131107836D01*
X139760000Y-130892164D02*
X139760000Y-131107836D01*
G04 #@! TO.C,D16*
X116620000Y-122550000D02*
X116620000Y-125235000D01*
X116620000Y-125235000D02*
X118540000Y-125235000D01*
X118540000Y-125235000D02*
X118540000Y-122550000D01*
G04 #@! TO.C,C12*
X87918748Y-126265000D02*
X88441252Y-126265000D01*
X87918748Y-127735000D02*
X88441252Y-127735000D01*
G04 #@! TO.C,C21*
X154165000Y-121311252D02*
X154165000Y-120788748D01*
X155635000Y-121311252D02*
X155635000Y-120788748D01*
G04 #@! TO.C,D15*
X112120000Y-122550000D02*
X112120000Y-125235000D01*
X112120000Y-125235000D02*
X114040000Y-125235000D01*
X114040000Y-125235000D02*
X114040000Y-122550000D01*
G04 #@! TO.C,C46*
X151588748Y-128765000D02*
X152111252Y-128765000D01*
X151588748Y-130235000D02*
X152111252Y-130235000D01*
G04 #@! TO.C,C44*
X151688748Y-106265000D02*
X152211252Y-106265000D01*
X151688748Y-107735000D02*
X152211252Y-107735000D01*
G04 #@! TO.C,C27*
X159665000Y-122211252D02*
X159665000Y-121688748D01*
X161135000Y-122211252D02*
X161135000Y-121688748D01*
G04 #@! TO.C,C47*
X138138748Y-109265000D02*
X138661252Y-109265000D01*
X138138748Y-110735000D02*
X138661252Y-110735000D01*
G04 #@! TO.C,D23*
X44390000Y-98662500D02*
X44390000Y-104172500D01*
X47690000Y-98662500D02*
X44390000Y-98662500D01*
X47690000Y-98662500D02*
X47690000Y-104172500D01*
G04 #@! TO.C,D1*
X68510000Y-123350000D02*
X63000000Y-123350000D01*
X68510000Y-126650000D02*
X63000000Y-126650000D01*
X68510000Y-126650000D02*
X68510000Y-123350000D01*
G04 #@! TO.C,R23*
X73015000Y-78210436D02*
X73015000Y-78664564D01*
X74485000Y-78210436D02*
X74485000Y-78664564D01*
G04 #@! TO.C,C49*
X151688748Y-125265000D02*
X152211252Y-125265000D01*
X151688748Y-126735000D02*
X152211252Y-126735000D01*
G04 #@! TO.C,C31*
X48711252Y-126765000D02*
X48188748Y-126765000D01*
X48711252Y-128235000D02*
X48188748Y-128235000D01*
G04 #@! TO.C,C20*
X128165000Y-118261252D02*
X128165000Y-117738748D01*
X129635000Y-118261252D02*
X129635000Y-117738748D01*
G04 #@! TO.C,D18*
X120120000Y-105277500D02*
X120120000Y-107962500D01*
X122040000Y-105277500D02*
X120120000Y-105277500D01*
X122040000Y-107962500D02*
X122040000Y-105277500D01*
G04 #@! TO.C,J1*
X43780000Y-65260000D02*
X53820000Y-65260000D01*
X43780000Y-67620000D02*
X43780000Y-65260000D01*
X43780000Y-85820000D02*
X43780000Y-68220000D01*
X44400000Y-65260000D02*
X44400000Y-85820000D01*
X45900000Y-65260000D02*
X45900000Y-85820000D01*
X50800000Y-65260000D02*
X50800000Y-85820000D01*
X53820000Y-65260000D02*
X53820000Y-85820000D01*
X53820000Y-85820000D02*
X43780000Y-85820000D01*
X43780000Y-67920000D02*
X43170000Y-68360000D01*
X43170000Y-67480000D01*
X43780000Y-67920000D01*
G36*
X43780000Y-67920000D02*
G01*
X43170000Y-68360000D01*
X43170000Y-67480000D01*
X43780000Y-67920000D01*
G37*
G04 #@! TO.C,J7*
X43320000Y-106932500D02*
X53360000Y-106932500D01*
X43320000Y-109292500D02*
X43320000Y-106932500D01*
X43320000Y-117332500D02*
X43320000Y-109892500D01*
X43940000Y-106932500D02*
X43940000Y-117332500D01*
X45440000Y-106932500D02*
X45440000Y-117332500D01*
X50340000Y-106932500D02*
X50340000Y-117332500D01*
X53360000Y-106932500D02*
X53360000Y-117332500D01*
X53360000Y-117332500D02*
X43320000Y-117332500D01*
X43320000Y-109592500D02*
X42710000Y-110032500D01*
X42710000Y-109152500D01*
X43320000Y-109592500D01*
G36*
X43320000Y-109592500D02*
G01*
X42710000Y-110032500D01*
X42710000Y-109152500D01*
X43320000Y-109592500D01*
G37*
G04 #@! TO.C,R25*
X119865000Y-79112936D02*
X119865000Y-79567064D01*
X121335000Y-79112936D02*
X121335000Y-79567064D01*
G04 #@! TO.C,C17*
X54265000Y-136911252D02*
X54265000Y-136388748D01*
X55735000Y-136911252D02*
X55735000Y-136388748D01*
G04 #@! TD*
M02*
